<?xml version="1.0" encoding="UTF-8"?>
<svg id="Layer_1" xmlns="http://www.w3.org/2000/svg" xmlns:xlink="http://www.w3.org/1999/xlink" version="1.1" viewBox="0 0 300 300">
  <!-- Generator: Adobe Illustrator 29.1.0, SVG Export Plug-In . SVG Version: 2.1.0 Build 142)  -->
  <defs>
    <style>
      .st0 {
        fill: #baa68a;
      }

      .st0, .st1, .st2, .st3 {
        opacity: .6;
      }

      .st0, .st1, .st2, .st4, .st5, .st6, .st7, .st8, .st9, .st10, .st11, .st12, .st13, .st14 {
        isolation: isolate;
      }

      .st15 {
        fill: url(#linear-gradient2);
      }

      .st16 {
        fill: url(#linear-gradient1);
      }

      .st17 {
        fill: url(#linear-gradient9);
      }

      .st18 {
        fill: url(#linear-gradient3);
      }

      .st19 {
        fill: url(#linear-gradient6);
      }

      .st20 {
        fill: url(#linear-gradient8);
      }

      .st21 {
        fill: url(#linear-gradient7);
      }

      .st22 {
        fill: url(#linear-gradient5);
      }

      .st23 {
        fill: url(#linear-gradient4);
      }

      .st24 {
        fill: #382830;
      }

      .st25 {
        fill: #e99f0c;
      }

      .st1 {
        fill: #a38b86;
      }

      .st1, .st2, .st3, .st26, .st6, .st8, .st9 {
        mix-blend-mode: multiply;
      }

      .st27 {
        fill: #976a55;
      }

      .st2 {
        fill: #f6f2ec;
      }

      .st28 {
        fill: #936855;
      }

      .st29 {
        fill: #c68209;
      }

      .st30 {
        fill: #f7f1e8;
      }

      .st31 {
        fill: url(#linear-gradient11);
      }

      .st32 {
        fill: url(#linear-gradient10);
      }

      .st26, .st8 {
        opacity: .4;
      }

      .st33 {
        fill: #eeb211;
      }

      .st34 {
        fill: #7d513e;
      }

      .st35 {
        fill: #96a10b;
      }

      .st36 {
        fill: #3f322f;
      }

      .st37 {
        fill: #eac9b8;
      }

      .st38, .st12 {
        fill: #e5dbd1;
      }

      .st39 {
        fill: #9f877c;
      }

      .st40 {
        fill: url(#radial-gradient);
      }

      .st41 {
        fill: #e28617;
      }

      .st42 {
        fill: #db8f45;
      }

      .st43 {
        fill: #755549;
      }

      .st44 {
        fill: url(#linear-gradient);
      }

      .st45 {
        fill: #8e9622;
      }

      .st46 {
        fill: #c12b2b;
      }

      .st47 {
        fill: #ccc8c6;
      }

      .st4 {
        fill: #d8d5c9;
      }

      .st4, .st10 {
        opacity: .9;
      }

      .st48 {
        fill: #d14343;
      }

      .st49 {
        fill: #514145;
      }

      .st50 {
        fill: #2a2122;
      }

      .st51 {
        fill: #d3c8ba;
      }

      .st52 {
        fill: #605155;
      }

      .st53 {
        fill: #ea4e4e;
      }

      .st6 {
        fill: #bc8e28;
        opacity: .2;
      }

      .st7 {
        fill: #966653;
      }

      .st7, .st14 {
        opacity: .7;
      }

      .st54 {
        fill: #443a3d;
      }

      .st55 {
        fill: #ffc424;
      }

      .st56, .st13 {
        fill: #d89000;
      }

      .st57 {
        fill: #ddbfab;
      }

      .st58 {
        fill: #e7e2e1;
      }

      .st59 {
        fill: #fff;
      }

      .st60 {
        fill: #bd957f;
      }

      .st8, .st9, .st61 {
        fill: #6f7708;
      }

      .st9, .st11, .st13 {
        opacity: .5;
      }

      .st62 {
        fill: #fcbe9f;
      }

      .st63 {
        fill: #a1ad2d;
      }

      .st10 {
        fill: #b0836d;
      }

      .st64 {
        fill: #302524;
      }

      .st65 {
        fill: #8b950a;
      }

      .st66 {
        fill: #b3ba2f;
      }

      .st67 {
        fill: #f3f0e8;
      }

      .st68 {
        fill: #47343e;
      }

      .st69 {
        fill: #c3e3ed;
      }

      .st70 {
        fill: #efb635;
      }

      .st71 {
        fill: url(#radial-gradient1);
      }

      .st11 {
        fill: #705858;
      }

      .st72 {
        fill: #4f403c;
      }

      .st73 {
        fill: #fff7e6;
      }

      .st74 {
        fill: #fffdf8;
      }

      .st75 {
        fill: #433833;
      }

      .st76 {
        fill: #ad7e69;
      }

      .st77 {
        fill: #a3735e;
      }

      .st78 {
        fill: #7f513d;
      }

      .st79 {
        fill: #c6650e;
      }

      .st80 {
        fill: #2b2a29;
      }

      .st81 {
        fill: #c2b8b5;
      }

      .st82 {
        fill: #e6e2d6;
      }

      .st83 {
        fill: #99655b;
      }

      .st84 {
        fill: #fffbf3;
      }

      .st12 {
        opacity: .3;
      }

      .st85 {
        fill: #1e1d1d;
      }

      .st86 {
        fill: #f3a984;
      }

      .st87 {
        fill: #b7aea3;
      }

      .st14 {
        fill: #dbd8cc;
      }

      .st88 {
        fill: #c39b83;
      }
    </style>
    <linearGradient id="linear-gradient" x1="103.78" y1="127.09" x2="117.31" y2="127.09" gradientTransform="translate(0 302) scale(1 -1)" gradientUnits="userSpaceOnUse">
      <stop offset="0" stop-color="#a3735e"/>
      <stop offset="1" stop-color="#c39b83"/>
    </linearGradient>
    <linearGradient id="linear-gradient1" x1="106.57" y1="167.41" x2="114.53" y2="167.41" gradientTransform="translate(0 302) scale(1 -1)" gradientUnits="userSpaceOnUse">
      <stop offset="0" stop-color="#a3735e"/>
      <stop offset="1" stop-color="#c39b83"/>
    </linearGradient>
    <linearGradient id="linear-gradient2" x1="183.74" y1="156.72" x2="190.99" y2="156.72" gradientTransform="translate(0 302) scale(1 -1)" gradientUnits="userSpaceOnUse">
      <stop offset="0" stop-color="#d3d0c4"/>
      <stop offset="1" stop-color="#e9e5d9"/>
    </linearGradient>
    <linearGradient id="linear-gradient3" x1="184.98" y1="164.8" x2="189.75" y2="164.8" gradientTransform="translate(0 302) scale(1 -1)" gradientUnits="userSpaceOnUse">
      <stop offset="0" stop-color="#d3d0c4"/>
      <stop offset="1" stop-color="#e9e5d9"/>
    </linearGradient>
    <linearGradient id="linear-gradient4" x1="186.16" y1="201.53" x2="188.57" y2="201.53" gradientTransform="translate(0 302) scale(1 -1)" gradientUnits="userSpaceOnUse">
      <stop offset="0" stop-color="#d3d0c4"/>
      <stop offset="1" stop-color="#e9e5d9"/>
    </linearGradient>
    <linearGradient id="linear-gradient5" x1="186.16" y1="230.55" x2="188.57" y2="230.55" gradientTransform="translate(0 302) scale(1 -1)" gradientUnits="userSpaceOnUse">
      <stop offset="0" stop-color="#d3d0c4"/>
      <stop offset="1" stop-color="#e9e5d9"/>
    </linearGradient>
    <radialGradient id="radial-gradient" cx="189.52" cy="237.33" fx="189.52" fy="237.33" r="8.65" gradientTransform="translate(0 302) scale(1 -1)" gradientUnits="userSpaceOnUse">
      <stop offset="0" stop-color="#fcfbf8"/>
      <stop offset="1" stop-color="#f5f1e9"/>
    </radialGradient>
    <linearGradient id="linear-gradient6" x1="56.85" y1="83.45" x2="64.1" y2="83.45" gradientTransform="translate(0 302) scale(1 -1)" gradientUnits="userSpaceOnUse">
      <stop offset="0" stop-color="#d3d0c4"/>
      <stop offset="1" stop-color="#e9e5d9"/>
    </linearGradient>
    <linearGradient id="linear-gradient7" x1="58.09" y1="91.54" x2="62.85" y2="91.54" gradientTransform="translate(0 302) scale(1 -1)" gradientUnits="userSpaceOnUse">
      <stop offset="0" stop-color="#d3d0c4"/>
      <stop offset="1" stop-color="#e9e5d9"/>
    </linearGradient>
    <linearGradient id="linear-gradient8" x1="59.27" y1="128.27" x2="61.68" y2="128.27" gradientTransform="translate(0 302) scale(1 -1)" gradientUnits="userSpaceOnUse">
      <stop offset="0" stop-color="#d3d0c4"/>
      <stop offset="1" stop-color="#e9e5d9"/>
    </linearGradient>
    <linearGradient id="linear-gradient9" x1="59.27" y1="157.3" x2="61.68" y2="157.3" gradientTransform="translate(0 302) scale(1 -1)" gradientUnits="userSpaceOnUse">
      <stop offset="0" stop-color="#d3d0c4"/>
      <stop offset="1" stop-color="#e9e5d9"/>
    </linearGradient>
    <radialGradient id="radial-gradient1" cx="62.63" cy="164.07" fx="62.63" fy="164.07" r="8.65" gradientTransform="translate(0 302) scale(1 -1)" gradientUnits="userSpaceOnUse">
      <stop offset="0" stop-color="#fcfbf8"/>
      <stop offset="1" stop-color="#f5f1e9"/>
    </radialGradient>
    <linearGradient id="linear-gradient10" x1="79.65" y1="103.54" x2="83.95" y2="103.54" gradientTransform="translate(0 302) scale(1 -1)" gradientUnits="userSpaceOnUse">
      <stop offset="0" stop-color="#e89a00"/>
      <stop offset=".46" stop-color="#eca200"/>
      <stop offset="1" stop-color="#f5b200"/>
    </linearGradient>
    <linearGradient id="linear-gradient11" x1="76.73" y1="100.03" x2="81.03" y2="100.03" gradientTransform="translate(0 302) scale(1 -1)" gradientUnits="userSpaceOnUse">
      <stop offset="0" stop-color="#e89a00"/>
      <stop offset=".46" stop-color="#eca200"/>
      <stop offset="1" stop-color="#f5b200"/>
    </linearGradient>
  </defs>
  <g class="st5">
    <g id="_x30_">
      <g id="_x31_">
        <g>
          <polygon id="Cube_face_-_top" class="st0" points="138.96 300 22.98 233.04 161.04 153.33 277.02 220.29 138.96 300"/>
          <g>
            <polygon id="Cube_face_-_left" class="st34" points="138.96 286.29 22.98 219.32 22.98 209.19 138.96 276.15 138.96 286.29"/>
            <polygon id="Cube_face_-_right" class="st27" points="277.02 206.57 138.96 286.29 138.96 276.15 277.02 196.43 277.02 206.57"/>
          </g>
          <polygon class="st61" points="105.01 251.33 22.98 203.97 22.98 209.82 105.01 257.19 105.01 251.33"/>
          <polygon id="Cube_face_-_right1" class="st45" points="277.02 197.07 138.96 276.79 138.96 270.93 277.02 191.22 277.02 197.07"/>
          <polygon id="Cube_face_-_top1" class="st63" points="138.96 270.93 22.98 203.97 161.04 124.26 277.02 191.22 138.96 270.93"/>
          <path class="st8" d="M134.23,187.21s-1.11-.12-2.69-.29l-.71-.73-2.8-.54-1.29.74c-1.83-.2-3.56-.39-4.63-.52.46-.36,1.63-3.01,1.63-3.01-.92.06-1.89.07-2.81.09-4.35.06-15.03,7.81-9.65,8.42l6.65.11,1.6-.93,3.09.37.81.65,10.64.17s.98-.14,1.11-1.82c.09-1.16,0-2.1-.99-2.71h0Z"/>
          <path class="st9" d="M59.57,218.77l-11.37-.23-3.23-1.86c.08-.01.16-.03.23-.03l15.55-.31c.38,0,.7.11.87.36.33.48-.06,1.25-.87,1.73-.4.23-.83.35-1.2.36h0ZM170.57,144.93c.05.07.11.11.18.15.02,0,.03.02.05.03.07.03.15.06.23.07h.08s.07,0,.11,0l15.24.31c.37,0,.8-.12,1.2-.36.81-.48,1.2-1.25.87-1.73-.17-.24-.49-.36-.87-.36l-15.55.31c-.28,0-.59.09-.89.27-.03.03-31.26.12-31.26.12v1.05l30.61.09s0,.02,0,.03h0Z"/>
          <polygon id="Cube_face_-_top2" class="st57" points="107.11 252.55 60.67 225.73 198.73 146.02 245.17 172.83 107.11 252.55"/>
          <polygon id="Cube_face_-_left1" class="st54" points="138.96 276.79 102.73 255.87 102.73 250.01 134.27 265.83 138.96 270.93 138.96 276.79"/>
          <polygon id="Cube_face_-_right2" class="st49" points="277.02 197.07 138.96 276.79 138.96 270.93 142.43 265.54 277.02 191.22 277.02 197.07"/>
          <polygon id="Cube_face_-_top3" class="st52" points="138.96 270.93 103.49 250.45 241.55 170.74 277.02 191.22 138.96 270.93"/>
          <g id="Axonometric_Cube">
            <polygon id="Cube_face_-_left2" class="st77" points="101.63 248.23 103.49 249.31 103.49 250.75 101.63 249.67 101.63 248.23"/>
            <polygon id="Cube_face_-_right3" class="st88" points="241.54 170.75 103.49 250.45 103.49 249.31 241.54 169.61 241.54 170.75"/>
            <polygon id="Cube_face_-_top4" class="st57" points="103.49 249.31 101.63 248.23 239.67 168.53 241.54 169.61 103.49 249.31"/>
          </g>
          <g id="Axonometric_Cube1">
            <polygon id="Cube_face_-_left3" class="st77" points="60.64 224.57 62.5 225.64 62.5 227.17 60.64 226.1 60.64 224.57"/>
            <polygon id="Cube_face_-_right4" class="st88" points="200.55 147.08 62.5 226.78 62.5 225.64 200.55 145.94 200.55 147.08"/>
            <polygon id="Cube_face_-_top5" class="st57" points="62.5 225.64 60.64 224.57 198.68 144.87 200.55 145.94 62.5 225.64"/>
          </g>
          <polygon class="st77" points="103.49 250.45 60.67 225.73 60.67 231.58 103.49 256.31 103.49 250.45"/>
          <g>
            <polygon id="Cube_face_-_top6" class="st70" points="105.79 251.78 105.29 251.49 243.36 171.79 243.85 172.07 105.79 251.78"/>
            <polygon class="st29" points="105.79 251.78 105.29 251.49 105.29 253.35 105.79 253.63 105.79 251.78"/>
          </g>
        </g>
        <polygon class="st9" points="103.31 162.51 109.79 166.27 127.16 166.27 151.3 134.81 103.31 162.51"/>
        <polygon class="st9" points="91.37 169.7 88.89 175.3 105.77 175.3 112.29 169.7 91.37 169.7"/>
        <g>
          <path class="st1" d="M228.83,166.13l-67.78,39.13-4.06,6.12-7.52,4.34,4.23,2.45.99-.57,1.87,1.07v1.14l22.71,13.15h12.29l1.41-.82h5.7c.42,0,.79-.29.87-.71l1.78-8.39,1.13-4.32,15.03-3.01-3.52-21.75,16.43,9.49h11.05l1.41-.82h7.04c.35,0,.66-.25.73-.59l1.81-8.51,1.13-4.32,15.03-3.01-39.76-20.07h0Z"/>
          <g>
            <g>
              <g class="st5">
                <path class="st55" d="M174.79,186.65c.09-.05.2-.04.33.03l2.75,1.59c.25.15.46.5.46.79v1.66c0,.15-.05.25-.14.29l-.4.23-3.4-4.36.4-.23h0Z"/>
                <path class="st25" d="M174.26,187.17c0-.29.21-.4.46-.26l2.75,1.59c.25.15.46.5.46.79v1.66c0,.29-.21.41-.47.26l-2.75-1.59c-.25-.15-.46-.51-.46-.79v-1.66h0Z"/>
              </g>
              <path class="st75" d="M178.35,192.47s-.37-1.69-.38-1.75c-.23-.95-1.38-.43-1.25.08l.52,1.85c.1.48,1.07.39,1.1-.17h0Z"/>
            </g>
            <polygon id="Cube_face_-_top7" class="st55" points="268.99 187.58 274.1 184.63 270.06 182.3 268.2 187.12 268.99 187.58"/>
            <polygon id="Cube_face_-_top8" class="st72" points="162.95 215.05 166.35 213.09 165.35 212.51 161.94 214.47 162.95 215.05"/>
            <path class="st64" d="M253.68,184.27l5.39,2.64c1.89,1.33-1.41,7.74-1.41,7.74l-6.96-4.06,2.99-6.32h0Z"/>
            <path class="st64" d="M196.19,214.28l8.79,5.11c.48.28.86.76,1.09,1.46.19.56.27,1.16.27,1.79v1.65l-10.92-6.34c.23-1.23.49-2.44.77-3.65h0Z"/>
            <path class="st55" d="M242.53,140.08c.43-.25.82-.27,1.1-.11l27.19,15.77c-.28-.17-.67-.14-1.1.11l-57.97,33.47-27.19-15.77,57.97-33.47Z"/>
            <path class="st25" d="M176.09,193.11c6.01,6.19,17.48,13.37,28.36,16.47,0,0,5.13-9.38,7.29-15.77.96-2.85-.06-4.46,0-4.49l-27.19-15.77-1.01,1.24v2.41l-7.44,15.9h0ZM177.69,192.62l6.63-14.18,7.61,4.4s1.98,3.92,1.91,3.96c-4.65,2.68-15.85,5.85-15.85,5.85-.11.06-.22.04-.3-.03Z"/>
            <path class="st50" d="M177.69,192.62c.08.06.19.09.3.03,1.79-1.03,8.36-4.83,13.01-7.51.56-.33.91-.92.91-1.57v-.71l17.5,10.16-5.79,15.35c-8.87-3.71-20.42-10.37-26.17-15.19l.25-.54h0Z"/>
            <path class="st56" d="M212.05,192.49c-.05.35-.13.69-.23,1.04l-28.28-16.33v-2.35l27.18,15.7,1.33,1.93Z"/>
            <g>
              <g>
                <g id="Axonometric_Cylinder">
                  <path class="st64" d="M198.01,219.35c1.31-.76,2.51-.83,3.36-.31l2.47,1.43c2.01,5.97-2.17,11.13-6.72,11.5l-2.47-1.43c-.83-.5-1.35-1.55-1.35-3.03,0-3.01,2.11-6.66,4.71-8.16h0Z"/>
                  <path id="Cylinder_face" class="st75" d="M195.77,228.94c0,3.01,2.11,4.22,4.71,2.72,2.6-1.5,4.71-5.15,4.71-8.16s-2.11-4.22-4.71-2.72-4.71,5.15-4.71,8.16Z"/>
                </g>
                <g class="st5">
                  <path class="st58" d="M200.49,230.1c1.79-.99,3.27-3.49,3.3-5.59.03-2.09-1.39-2.99-3.19-1.99s-3.27,3.49-3.3,5.59c-.03,2.09,1.39,2.99,3.19,1.99Z"/>
                  <path class="st47" d="M200.5,229.57c1.54-.85,2.81-3.01,2.84-4.81s-1.2-2.57-2.74-1.71-2.81,3.01-2.84,4.81c-.03,1.8,1.2,2.57,2.74,1.71Z"/>
                  <g>
                    <path class="st58" d="M200.37,228.06c.87-.48,1.59-1.7,1.61-2.71.01-1.02-.68-1.45-1.55-.97s-1.59,1.7-1.61,2.71c-.01,1.02.68,1.45,1.55.97h0Z"/>
                    <path class="st81" d="M198.09,227.21v.16c.05,1.21.93,1.71,2.01,1.11,1.13-.63,2.07-2.21,2.09-3.54.02-1.33-.89-1.89-2.02-1.27-.6.33-1.15.93-1.53,1.62-.34.61-.55,1.29-.56,1.91h0ZM198.81,227.09c0-.24.05-.49.12-.74.07-.25.18-.49.31-.73.29-.53.71-.99,1.17-1.25.87-.48,1.57-.05,1.55.97-.01,1.02-.73,2.23-1.61,2.71-.83.46-1.51.08-1.55-.85v-.12h0Z"/>
                  </g>
                </g>
              </g>
              <g>
                <g id="Axonometric_Cylinder1">
                  <path class="st64" d="M249.33,189.72c1.31-.76,2.51-.83,3.36-.31l2.47,1.43c2.01,5.97-2.17,11.13-6.72,11.5l-2.47-1.43c-.83-.5-1.35-1.55-1.35-3.03,0-3.01,2.11-6.66,4.71-8.16h0Z"/>
                  <path id="Cylinder_face1" class="st75" d="M247.1,199.31c0,3.01,2.11,4.22,4.71,2.72,2.6-1.5,4.71-5.15,4.71-8.16s-2.11-4.22-4.71-2.72c-2.6,1.5-4.71,5.15-4.71,8.16Z"/>
                </g>
                <g class="st5">
                  <path class="st58" d="M251.82,200.47c1.79-.99,3.27-3.49,3.3-5.59.03-2.09-1.39-2.99-3.19-1.99-1.79.99-3.27,3.49-3.3,5.59s1.39,2.99,3.19,1.99Z"/>
                  <path class="st47" d="M251.83,199.94c1.54-.85,2.81-3.01,2.84-4.81s-1.2-2.57-2.74-1.71-2.81,3.01-2.84,4.81c-.03,1.8,1.2,2.57,2.74,1.71Z"/>
                  <g>
                    <path class="st58" d="M251.69,198.43c.87-.48,1.59-1.7,1.61-2.71.01-1.02-.68-1.45-1.55-.97-.87.48-1.59,1.7-1.61,2.71-.01,1.02.68,1.45,1.55.97Z"/>
                    <path class="st81" d="M249.42,197.59v.16c.05,1.21.93,1.71,2.01,1.11,1.13-.63,2.07-2.21,2.09-3.54.02-1.33-.89-1.89-2.02-1.27-.6.33-1.15.93-1.53,1.62-.34.61-.55,1.29-.56,1.91h0ZM250.14,197.46c0-.24.05-.49.12-.74.07-.25.18-.49.31-.73.29-.53.71-.99,1.17-1.25.87-.48,1.57-.05,1.55.97-.01,1.02-.73,2.23-1.61,2.71-.83.46-1.51.08-1.55-.85v-.12h0Z"/>
                  </g>
                </g>
              </g>
            </g>
            <path class="st33" d="M193.21,218.99c.47-.92,1.06-1.87,1.87-2.51l9.37-6.89,6.27-16.68v-2.34l1.01-1.24,57.97-33.47c.86-.5,1.55-.09,1.55.89l.06,30.02-13.67,7.89v-1.82c-.02-.56-.1-1.1-.27-1.61-.7-2.08-2.67-2.21-4.94-.91-3.52,2.03-5.78,5.37-5.77,8.97,0,.05,0,1.62,0,1.7l-40.35,23.3v-1.65c0-.63-.07-1.23-.26-1.79-.67-2.01-2.54-2.23-4.71-.98-.08.05-.15.09-.23.14-3.69,2.29-5.77,5.31-5.77,8.9v1.71l-2.65,1.53-.37-9.69c0-1.13.36-2.46.87-3.47h0Z"/>
            <g>
              <g>
                <path class="st55" d="M165.55,201.73c.17-.33.41-.62.69-.85l9.84-7.77c6.45,5.52,17.82,12.4,28.36,16.47l-9.84,7.77c-.29.23-.53.52-.69.85l-.96,1.88-28.36-16.47.96-1.88h0Z"/>
                <polygon class="st25" points="165.55 201.73 193.91 218.2 192.96 220.08 164.6 203.61 165.55 201.73"/>
              </g>
              <path class="st56" d="M164.6,203.61l28.36,16.47c-.19.36-.28.77-.28,1.17l.03,10.89-28.36-16.47-.03-10.89c0-.41.09-.81.28-1.17h0Z"/>
            </g>
            <g>
              <path class="st75" d="M195.83,202.1c.95,2.19,3.01,3.91,4.69,3.91.67,0,1.22-.28,1.55-.79.51-.78.48-2.04-.09-3.36-.95-2.19-3.01-3.91-4.69-3.91-.67,0-1.22.28-1.55.79-.51.78-.48,2.04.09,3.36ZM201.42,202.1c.2.47.33.91.38,1.33l-1.71-.99c0-.21-.05-.44-.15-.67-.32-.74-1.01-1.3-1.61-1.3-.29,0-.53.13-.69.35-.03.05-.05.11-.07.16l-1.57-.91c0-.39.09-.73.26-1,.23-.34.57-.52,1.05-.52,1.43,0,3.28,1.59,4.13,3.54h0ZM196.39,201.86c-.17-.41-.29-.8-.35-1.17l1.47.85c.02.17.06.34.13.52.32.74,1.01,1.3,1.61,1.3.29,0,.53-.13.69-.35,0-.01.01-.03.02-.05l1.87,1.08c-.02.33-.11.62-.26.85-.23.34-.57.52-1.05.52-1.43,0-3.28-1.59-4.13-3.54h0Z"/>
              <path class="st57" d="M177.86,193.5c5.87,4.79,17.07,11.23,25.75,14.85l.54-1.43c-7.41-5.33-14.71-8.36-24.92-14.22l-1.37.81h0Z"/>
              <path class="st57" d="M193.23,200.27c.63,2.71,5.21,5.86,9.77,5.84-2.59-4.38-7.01-6.04-9.77-5.84Z"/>
            </g>
            <path class="st11" d="M177.44,193.16l6.88-14.72,25.09,14.57-5.79,15.35c-8.88-3.71-20.42-10.37-26.17-15.19h0Z"/>
            <path class="st50" d="M206.23,208.61l4.99-13.32c.38-1.03,1.11-1.89,2.06-2.43l6.32-3.63c.56-.31,1.24.09,1.24.73,0,2.61.01,9.72.01,9.72,0,.65-.35,1.24-.91,1.57-4.07,2.35-11.49,6.63-13.33,7.7-.21.13-.47-.09-.39-.32h0Z"/>
            <path class="st41" d="M207.58,220.27l.89-.51c.26-.15.47-.49.47-.75s-.21-.35-.47-.2l-.89.51c-.26.15-.47.49-.47.75s.21.35.47.2Z"/>
            <path class="st41" d="M268.51,184.57l.89-.51c.26-.15.47-.49.47-.75s-.21-.35-.47-.2l-.89.51c-.26.15-.47.49-.47.75s.21.35.47.2Z"/>
            <g id="Axonometric_Cube2">
              <polygon class="st33" points="274.1 184.63 274.1 186.05 267.01 190.14 267.01 188.73 274.1 184.63"/>
              <polygon id="Cube_face_-_right5" class="st56" points="266.22 189.68 267.01 190.14 267.01 188.73 266.22 188.27 266.22 189.68"/>
              <polygon id="Cube_face_-_top9" class="st55" points="267.01 188.73 272.12 185.77 271.33 185.32 266.22 188.27 267.01 188.73"/>
            </g>
            <polygon id="Cube_face_-_top10" class="st72" points="191.63 231.62 193.03 230.81 164.31 214.23 162.91 215.03 191.63 231.62"/>
            <g>
              <polygon class="st75" points="195.58 229.97 195.58 231.38 192.17 233.35 192.17 231.93 195.58 229.97"/>
              <polygon class="st36" points="192.17 231.93 192.17 233.35 161.94 215.89 161.94 214.47 192.17 231.93"/>
              <polygon id="Cube_face_-_top11" class="st72" points="192.17 231.93 195.58 229.97 194.79 229.51 191.38 231.47 192.17 231.93"/>
            </g>
            <g>
              <g>
                <polygon id="Cube_face_-_left4" class="st56" points="169.69 210.98 169.11 211.31 167.92 209.22 169.69 208.2 169.69 210.98"/>
                <polygon id="Cube_face_-_top12" class="st55" points="167.92 209.22 169.69 208.2 164.68 205.31 164.1 205.65 167.92 209.22"/>
                <g>
                  <polygon class="st36" points="169.11 208.53 169.11 211.31 164.1 208.43 164.1 205.65 169.11 208.53"/>
                  <g>
                    <polygon class="st69" points="168.85 208.68 164.69 206.29 164.69 208.45 168.85 210.85 168.85 208.68"/>
                    <polygon class="st79" points="165.03 206.48 164.36 206.09 164.36 208.26 165.03 208.65 165.03 206.48"/>
                  </g>
                </g>
              </g>
              <g id="Axonometric_Cube3">
                <polygon id="Cube_face_-_left5" class="st56" points="186.55 225.31 187.13 224.97 187.13 218.27 186.55 218.61 186.55 225.31"/>
                <polygon id="Cube_face_-_right6" class="st36" points="169.11 215.23 186.55 225.31 186.55 218.61 169.11 208.53 169.11 215.23"/>
                <path class="st64" d="M186.01,219.53l-16.37-9.45v-.58l16.37,9.45v.59h0ZM186.01,220.15l-16.37-9.45v.58l16.37,9.45v-.59h0ZM186.01,221.34l-16.37-9.45v.58l16.37,9.45v-.59h0ZM186.01,222.53l-16.37-9.45v.58l16.37,9.45v-.59h0ZM186.01,223.72l-16.37-9.45v.58l16.37,9.45v-.59h0Z"/>
                <polygon id="Cube_face_-_top13" class="st55" points="186.55 218.61 187.13 218.27 169.69 208.19 169.11 208.53 186.55 218.61"/>
              </g>
              <g>
                <polygon id="Cube_face_-_left6" class="st33" points="192.14 223.94 191.56 224.28 190.37 222.18 192.14 221.16 192.14 223.94"/>
                <polygon id="Cube_face_-_top14" class="st55" points="190.37 222.18 192.14 221.16 186.99 218.19 186.55 218.61 190.37 222.18"/>
                <g>
                  <polygon class="st36" points="191.56 221.5 191.56 224.28 186.44 221.33 186.55 218.61 191.56 221.5"/>
                  <g>
                    <polygon class="st69" points="186.81 219.05 190.96 221.45 190.96 223.62 186.81 221.22 186.81 219.05"/>
                    <polygon class="st79" points="190.62 221.25 191.3 221.65 191.3 223.81 190.62 223.42 190.62 221.25"/>
                  </g>
                </g>
              </g>
            </g>
            <path class="st6" d="M204.89,219.35v-9.3l5.86-15.77c.37-.99,1.07-1.83,1.99-2.35l8.83-5.1s.1-.03.14,0,.07.07.07.12v27.23l-15.45,8.92v-.21l15.27-8.81v-27.04l-8.77,5.06c-.88.51-1.56,1.31-1.91,2.26l-5.85,15.73v9.41c-.06-.04-.12-.09-.19-.13h0Z"/>
            <g>
              <path class="st80" d="M219.91,203.81l-2.01,1.16c-.24.14-.43.03-.43-.25v-.08c0-.27.19-.61.43-.75l2.01-1.16c.24-.14.43-.03.43.25v.08c0,.27-.19.61-.43.75Z"/>
              <path class="st85" d="M217.58,204.63c0,.23.16.32.36.21l1.95-1.12c.2-.11.36-.39.36-.62l-2.66,1.53h0Z"/>
            </g>
            <g>
              <polygon class="st13" points="197.71 169.33 190.71 173.37 210.63 184.87 211.91 184.87 197.71 169.33"/>
              <g id="Axonometric_Cube4">
                <polygon id="Cube_face_-_left7" class="st56" points="211.91 184.87 191.81 173.27 191.81 171.65 211.91 183.25 211.91 184.87"/>
                <polygon id="Cube_face_-_right7" class="st33" points="227.28 175.99 211.91 184.87 211.91 183.25 227.28 174.37 227.28 175.99"/>
                <polygon id="Cube_face_-_top15" class="st55" points="211.91 183.25 191.81 171.65 207.19 162.77 227.28 174.37 211.91 183.25"/>
              </g>
            </g>
            <g>
              <path class="st6" d="M244.33,187.74c-.08.05-.15.04-.18-.03-.03-.08.02-.21.12-.31.49-.45.83-1.09.83-1.61v-11.03c0-.66-.54-.89-1.2-.51l-18.43,10.64c-.48.28-.91.81-1.1,1.37-.06.19-.09.36-.09.52,0,.1-.08.23-.19.29-.1.06-.19.03-.19-.08,0-.21.04-.44.13-.69.25-.73.81-1.43,1.45-1.79l18.43-10.64c.87-.5,1.57-.2,1.57.67v11.03c0,.68-.43,1.53-1.08,2.12-.02.02-.04.03-.06.04h0Z"/>
              <path class="st55" d="M243.91,188.05l-18.43,10.64c-.87.5-1.57.2-1.57-.67v-11.03c0-.1.03-.69.39-1.26-.05.35-.02.98-.02,1.08v11c0,.66.54.89,1.2.51l18.43-10.64c.63-.38,1.31-1.07,1.31-1.07,0,0-.23.53-.77,1.07-.15.15-.37.28-.53.37h0Z"/>
            </g>
            <g>
              <path class="st6" d="M267.7,174.25c-.08.05-.15.04-.18-.03-.03-.08.02-.21.12-.31.49-.45.83-1.09.83-1.61v-11.03c0-.66-.54-.89-1.2-.51l-18.43,10.64c-.48.28-.91.81-1.11,1.37-.06.19-.09.36-.09.52,0,.1-.08.23-.19.29s-.19.03-.19-.08c0-.21.04-.44.13-.69.25-.73.81-1.43,1.45-1.79l18.43-10.64c.87-.5,1.57-.2,1.57.67v11.03c0,.68-.43,1.53-1.08,2.12-.02.02-.04.03-.06.04h0Z"/>
              <path class="st55" d="M267.27,174.57l-18.43,10.64c-.87.5-1.57.2-1.57-.67v-11.03c0-.1.03-.69.39-1.26-.05.35-.02.98-.02,1.08v11c0,.66.54.89,1.2.51l18.43-10.64c.63-.38,1.31-1.07,1.31-1.07,0,0-.23.53-.77,1.07-.15.15-.37.28-.53.37h0Z"/>
            </g>
            <g>
              <g class="st5">
                <path class="st55" d="M208.56,206.14c.09-.05.2-.04.33.03l2.75,1.59c.25.15.46.5.46.79v1.66c0,.15-.05.25-.14.29l-.4.23-3.4-4.36.4-.23h0Z"/>
                <path class="st25" d="M208.03,206.67c0-.29.21-.4.46-.26l2.75,1.59c.25.15.46.5.46.79v1.66c0,.29-.21.41-.47.26l-2.75-1.59c-.25-.15-.46-.51-.46-.79v-1.66h0Z"/>
              </g>
              <path class="st75" d="M206.21,208.24s.88-.1,1.73-.23c.14-.02.33-.03.45.03.62.27,1,1.19.54,1.27l-2.62.11c-.49.07-.62-.97-.1-1.19h0Z"/>
            </g>
          </g>
          <g>
            <path class="st67" d="M247.37,175.65v1.31c0,.37-.08.71-.27,1.01-.17.31-.43.55-.75.74l-.55.32c-.33.19-.58.23-.76.14-.18-.1-.27-.34-.27-.71v-1.31c0-.37.08-.71.26-1.01.17-.31.43-.55.76-.73l.55-.32c.33-.19.58-.23.75-.13.18.1.27.33.27.71h0ZM246.6,177.38v-1.25c0-.15-.03-.24-.09-.27-.05-.03-.15,0-.29.07l-.31.18c-.13.07-.23.17-.28.25-.05.09-.08.21-.08.37v1.25c0,.15.03.24.09.27.05.03.15,0,.28-.07l.31-.18c.13-.07.23-.17.29-.25.05-.09.08-.22.08-.37ZM244.21,177.47v1.31c0,.37-.09.71-.27,1.01-.18.31-.43.55-.75.74l-.55.32c-.33.19-.58.23-.76.14-.18-.1-.27-.34-.27-.71v-1.31c0-.37.08-.71.26-1.01.17-.31.43-.55.76-.73l.55-.32c.32-.19.57-.23.75-.13.18.1.27.33.27.71h0ZM243.44,179.2v-1.25c0-.15-.03-.24-.09-.27-.05-.03-.15,0-.29.07l-.31.18c-.13.07-.22.16-.28.25-.05.09-.08.21-.08.37v1.25c0,.15.03.24.09.27.05.03.15,0,.28-.07l.31-.18c.13-.08.23-.17.28-.25.05-.09.08-.22.08-.37h0ZM238.36,182.17v-1.31c0-.37.07-.71.23-1,.16-.3.41-.53.73-.72l.25-.15c.13-.07.25-.11.37-.11s.19.05.24.15c.02-.01.02-1.63.02-1.63,0-.09.05-.17.13-.23l.53-.31c.09-.05.13-.02.13.07v4.71c.01.09-.03.17-.11.23l-.53.31c-.09.05-.13.02-.13-.07v-.23c-.07.17-.15.31-.27.44-.11.13-.24.23-.37.31l-.25.15c-.32.19-.56.22-.73.12-.16-.11-.24-.35-.25-.73h0ZM239.14,180.45v1.22c0,.15.03.25.09.28.05.03.15.01.28-.07l.28-.16c.29-.17.43-.43.43-.79v-.98c0-.36-.15-.47-.43-.3l-.28.16c-.13.07-.22.16-.28.26-.05.09-.08.21-.08.37h0ZM234.89,185.33l.52-.3c.09-.05.14-.13.14-.23v-3.33c0-.1-.05-.12-.15-.07l-.52.3c-.09.05-.13.12-.13.23v2.16c0,.36-.13.62-.42.79l-.23.13c-.13.07-.22.09-.27.06-.05-.03-.09-.12-.09-.28v-2.27c0-.1-.05-.12-.14-.07l-.53.31c-.09.05-.13.12-.13.23v2.32c0,.37.09.61.25.72.16.11.41.07.72-.12l.21-.12c.13-.07.25-.18.37-.31.11-.13.19-.27.24-.43.02-.01.03.22.03.22,0,.09.05.12.13.07h0ZM229.57,187.24v-2.25c0-.38.08-.71.25-1.02.18-.3.43-.55.76-.74l.69-.4c.33-.19.58-.23.76-.14.18.1.27.33.27.71v2.25c0,.37-.08.71-.25,1.02-.17.3-.43.55-.76.74l-.69.4c-.33.19-.58.23-.76.14-.18-.1-.27-.34-.27-.71ZM230.35,184.57v2.17c0,.15.03.25.09.28.05.03.15.01.28-.07l.44-.25c.13-.08.23-.17.28-.26.05-.09.08-.22.08-.37v-2.17c0-.15-.03-.25-.09-.28-.05-.03-.15-.01-.29.07l-.44.25c-.13.08-.23.17-.28.26-.05.09-.08.22-.08.37h0ZM235.95,181.84s.05,0,.1-.03l.25-.14.07.04v1.62c0,.37.09.6.28.7.18.09.43.05.76-.14l.37-.22c.05-.03.09-.06.1-.09l.03-.13v-.49c0-.1-.05-.13-.13-.07l-.25.14c-.13.07-.23.1-.29.07-.06-.03-.09-.12-.09-.27v-1.57c0-.05.02-.09.07-.12l.49-.28c.05-.03.09-.06.1-.09l.03-.12v-.49c0-.1-.05-.13-.13-.07l-.49.28c-.05.03-.07.01-.07-.04v-.68c0-.09-.05-.13-.13-.07l-.52.3c-.09.05-.13.13-.13.23v.68l-.07.12-.25.14c-.09.05-.13.12-.13.23v.49c0,.05.01.09.03.09h.01ZM248.13,177.69l.53-.3c.09-.05.13-.13.13-.23v-2.15c0-.37.13-.64.42-.8l.43-.25.1-.08s.03-.08.03-.13v-.49c0-.1-.05-.13-.13-.08l-.22.13c-.13.07-.25.18-.37.31-.11.13-.19.28-.24.43-.02.01-.03-.23-.03-.23,0-.1-.04-.13-.13-.07l-.53.3c-.09.05-.13.12-.13.23v3.33c0,.09.05.13.14.07h0Z"/>
            <path class="st67" d="M255.58,178.01c.09.09.13.25.13.48,0,.63-.32,1.14-.97,1.51l-1.17.68c-.09.05-.12.02-.12-.08v-.45l.02-.13s.05-.06.1-.09l1.04-.6c.2-.11.3-.25.3-.39s-.09-.21-.25-.22l-.61-.03c-.21,0-.37-.05-.47-.13-.1-.08-.15-.24-.15-.46,0-.33.07-.62.23-.87s.39-.46.72-.65l1.03-.59c.09-.05.13-.02.13.08v.47l-.02.13s-.05.06-.1.09l-.86.49c-.21.12-.3.23-.3.35,0,.14.09.19.27.21l.63.07c.21,0,.37.06.45.15h-.01ZM263.57,174.95c0,.37-.09.7-.27,1.01-.17.3-.43.55-.75.73l-1.19.69s-.09.04-.1.03l-.03-.09v-.49c0-.1.05-.17.13-.23l1.06-.61c.13-.08.23-.17.28-.26s.08-.22.08-.37v-.55c-.07.17-.15.32-.27.45-.11.13-.24.24-.37.31l-.21.12c-.32.19-.56.22-.72.12-.17-.11-.25-.35-.25-.72v-1.14c0-.38.08-.71.26-1.02.17-.3.43-.55.76-.73l1.43-.83c.09-.05.13-.03.13.07v3.51h.01ZM262.78,173.88v-1.28c0-.05-.03-.07-.08-.04l-.58.33c-.13.08-.23.17-.28.26-.05.09-.08.22-.08.37v1.06c0,.15.03.25.09.27.05.03.15.01.28-.07l.23-.13c.29-.17.43-.43.43-.78h0ZM259.4,173.68l-.2.11c-.31.18-.51.43-.61.73-.02.01-.03-.22-.03-.22,0-.09-.04-.13-.13-.07l-.53.3c-.09.05-.13.13-.13.23v3.33c0,.1.05.13.14.07l.53-.3c.09-.05.13-.12.13-.23v-2.16c0-.36.13-.62.42-.79l.22-.13c.13-.07.23-.1.29-.07.05.03.09.12.09.28v2.27c0,.1.05.13.14.07l.52-.3c.09-.05.13-.13.13-.23v-2.32c0-.77-.33-.97-.98-.61h0ZM256.41,174.94l.54-.31c.08-.05.12-.12.12-.21v-.63c0-.09-.05-.11-.12-.07l-.54.31c-.09.05-.13.12-.13.22v.62c0,.09.05.11.13.07h0ZM256.93,175.11l-.53.31c-.09.05-.13.13-.13.22v3.33c0,.1.05.13.14.07l.53-.31.09-.08s.03-.07.03-.14v-3.33c0-.09-.05-.13-.14-.07ZM252.15,177.39l.54-.31c.09-.05.13-.12.13-.21v-.63c0-.09-.05-.11-.13-.06l-.54.31c-.09.05-.12.12-.12.21v.62c0,.09.04.12.12.07h0ZM252.69,177.55l-.53.31c-.09.05-.12.12-.12.22v3.33c0,.1.05.13.14.07l.53-.31.1-.08s.03-.07.03-.14v-3.33c0-.09-.05-.13-.14-.07h0ZM251.37,181.18l-.25.14c-.13.07-.23.1-.29.07-.06-.03-.09-.12-.09-.27v-1.57c0-.05.02-.09.07-.12l.49-.28c.05-.03.09-.06.1-.09l.03-.13v-.49c0-.09-.05-.13-.13-.07l-.49.28c-.05.03-.07.01-.07-.03v-.68c0-.1-.05-.13-.13-.07l-.52.3c-.09.05-.13.13-.13.23v.68l-.07.11-.25.14c-.09.05-.13.13-.13.23v.49c0,.06.01.09.03.1.02,0,.05,0,.1-.03l.25-.14.07.04v1.61c0,.37.09.61.28.7.18.1.43.05.76-.14l.37-.22c.05-.03.09-.06.1-.09l.03-.12v-.49c0-.1-.05-.13-.13-.07h.01ZM249.29,179.51l-.22.13c-.13.07-.25.18-.36.31-.11.13-.2.28-.24.43-.03.01-.03-.23-.03-.23,0-.09-.04-.13-.13-.07l-.53.3c-.09.05-.13.13-.13.23v3.33c0,.1.05.13.14.07l.53-.3c.09-.05.13-.12.13-.23v-2.14c0-.37.13-.64.42-.8l.43-.25.1-.08s.03-.07.03-.13v-.49c0-.09-.05-.13-.13-.08h0ZM245.31,184.11v.15c0,.15.03.23.09.27.05.03.15.01.28-.07l1.25-.73c.09-.05.13-.02.13.09v.47l-.03.12s-.05.07-.1.09l-1.37.79c-.33.19-.58.24-.76.14-.18-.09-.27-.33-.27-.71v-1.31c0-.38.08-.71.26-1.02.17-.3.43-.55.76-.74l.49-.28c.33-.19.58-.23.76-.14.18.1.27.33.27.71v.9c0,.1-.04.17-.13.23l-1.55.89c-.05.03-.07.07-.07.12h0ZM245.31,183.35l.07.04.84-.49.07-.12v-.34c0-.15-.03-.25-.09-.27-.05-.03-.15,0-.28.07l-.26.15c-.13.07-.22.15-.28.25-.05.09-.08.21-.08.37v.34h.01ZM244.05,182.55l-.55.31c-.09.05-.14.13-.16.24l-.51,2.98s-.59-2.35-.59-2.35c-.01-.09-.07-.11-.15-.07l-.55.31c-.09.05-.11.12-.09.2l.79,2.88c.03.09.08.11.17.06l.79-.45c.09-.05.15-.14.17-.25l.77-3.78c.02-.11,0-.15-.09-.09h0ZM241.01,183.07v4.71c.01.1-.03.17-.11.23l-.53.31c-.09.05-.13.03-.13-.07v-.23c-.07.17-.15.31-.27.44-.11.13-.24.23-.37.31l-.25.15c-.32.19-.56.23-.73.12-.16-.11-.24-.35-.25-.72v-1.31c0-.38.07-.71.23-1.01.16-.29.41-.53.73-.72l.25-.15c.13-.07.25-.11.37-.11s.19.05.24.15c.02-.01.02-1.62.02-1.62,0-.1.05-.17.13-.23l.53-.31c.09-.05.13-.03.13.07h0ZM240.23,187.06v-.98c0-.36-.15-.46-.43-.29l-.28.16c-.13.07-.22.16-.28.26-.05.09-.08.21-.08.37v1.22c0,.15.03.25.09.28.05.03.15.01.28-.07l.28-.16c.29-.17.43-.43.43-.79h0ZM236.96,185.84l.99,3.71c.03.09,0,.15-.07.19l-.59.35-.09.02s-.03-.04-.04-.09l-.18-.68-1.21.7-.17.88c0,.07-.02.11-.04.14l-.09.08-.59.35c-.07.04-.1,0-.07-.11l.97-4.85c.03-.12.09-.2.19-.26l.82-.47c.1-.06.17-.05.19.04h0ZM236.83,188.69l-.45-1.81-.47,2.33.92-.53h0Z"/>
            <path class="st14" d="M245.47,175.63v3.53c-.15.05-.27.05-.37.01v-3.13c.1-.15.23-.29.37-.41h0ZM245.47,184.55h-.08c-.05-.03-.09-.12-.09-.27v-.15c0-.05.02-.09.07-.12l.09-.05v-.61l-.09.05-.07-.04v-.34c0-.15.03-.28.08-.37.02-.04.05-.07.09-.1v-.81c-.13.09-.27.18-.37.29v3.47c.11-.02.23-.07.37-.13v-.81h0Z"/>
            <path class="st74" d="M247.27,175.17c.05.12.09.28.09.48v1.31c0,.21-.03.41-.09.61v-2.4h0Z"/>
            <polygon class="st48" points="250.91 176.09 250.9 171.53 263.54 164.24 263.55 168.79 250.91 176.09"/>
            <polygon class="st48" points="229.57 189.97 229.59 194.52 233.63 192.19 233.63 187.63 229.57 189.97"/>
          </g>
        </g>
        <polygon class="st57" points="133.61 172.47 106.56 188.09 86.49 176.51 113.55 160.89 133.61 172.47"/>
        <polygon class="st10" points="109.79 166.27 122.86 166.27 113.55 160.89 107.01 164.66 109.79 166.27"/>
        <polygon class="st10" points="98.29 169.7 88.99 175.07 88.89 175.3 105.77 175.3 112.29 169.7 98.29 169.7"/>
        <g>
          <polygon class="st35" points="120.67 139.05 173.96 108.23 175.29 107.99 121.99 138.81 120.67 139.05"/>
          <polygon class="st63" points="121.99 138.81 175.29 107.99 179.14 110.21 125.84 141.03 121.99 138.81"/>
          <polygon class="st65" points="127.17 142.8 180.46 111.98 180.45 135.44 127.16 166.27 127.17 142.8"/>
          <polygon class="st66" points="125.84 141.03 179.14 110.21 180.46 111.98 127.17 142.8 125.84 141.03"/>
          <polygon class="st61" points="125.84 141.03 127.17 142.8 127.16 166.27 120.66 162.51 120.67 139.05 121.99 138.81 125.84 141.03"/>
        </g>
        <polygon class="st8" points="155.48 118.91 156.97 118.59 164.67 118.59 166.21 120.47 166.21 143.68 164.19 144.85 164.19 121.65 162.65 119.75 154.95 119.75 153.46 120.08 155.48 118.91"/>
        <g id="_x33_">
          <g id="Axonometric_Cylinder2">
            <path class="st44" d="M103.79,172.47v1.08c.01.99.67,1.97,1.98,2.73,2.64,1.53,6.93,1.53,9.57,0,1.34-.77,2-1.79,1.98-2.8v-1.08l-13.53.07h0Z"/>
            <path id="Cylinder_face2" class="st57" d="M115.34,175.2c-2.64,1.53-6.93,1.53-9.57,0s-2.64-4,0-5.53,6.93-1.53,9.57,0,2.64,4,0,5.53Z"/>
            <path class="st10" d="M110.99,168.55c-1.87-.07-3.79.29-5.23,1.12-2.27,1.31-2.6,3.3-.97,4.81h6.2v-5.93Z"/>
          </g>
          <g id="Axonometric_Cylinder3">
            <path class="st16" d="M106.57,94.67v77.61c0,.58.4,1.16,1.17,1.6,1.55.9,4.07.9,5.63,0,.79-.45,1.17-1.05,1.17-1.65v-77.61l-7.95.04h0Z"/>
            <path id="Cylinder_face3" class="st57" d="M113.37,96.27c-1.55.9-4.07.9-5.63,0s-1.55-2.35,0-3.25c1.55-.9,4.07-.9,5.63,0s1.55,2.35,0,3.25Z"/>
          </g>
          <path class="st28" d="M106.57,113.27c1.03-7.69,6.15-11.23,7.95-11.69v-6.96l-7.95.04v18.61h0Z"/>
          <g>
            <g>
              <g>
                <g>
                  <polygon class="st60" points="143.47 .75 144.69 .05 145.15 0 143.94 .7 143.47 .75"/>
                  <polygon class="st57" points="143.94 .7 145.15 0 145.82 .39 144.61 1.09 143.94 .7"/>
                  <polygon class="st88" points="144.61 1.09 145.82 .39 145.82 .81 144.61 1.51 144.61 1.09"/>
                  <polygon class="st28" points="143.47 .75 143.94 .7 144.61 1.09 144.61 1.51 143.39 1.63 143.3 1.41 143.47 .75"/>
                </g>
                <path class="st28" d="M152.88,5.16l-7.59-4.38s-.06-.01-.1,0c-.07.05-.14.15-.14.24,0,.05.01.07.04.09l7.78,4.49v-.45h0Z"/>
              </g>
              <g>
                <g>
                  <polygon class="st60" points="130.31 8.35 131.52 7.65 131.99 7.6 130.78 8.31 130.31 8.35"/>
                  <polygon class="st57" points="130.78 8.31 131.99 7.6 132.65 7.99 131.45 8.69 130.78 8.31"/>
                  <polygon class="st88" points="131.45 8.69 132.65 7.99 132.65 8.41 131.45 9.11 131.45 8.69"/>
                  <polygon class="st28" points="130.31 8.35 130.78 8.31 131.45 8.69 131.45 9.11 130.22 9.23 130.13 9.01 130.31 8.35"/>
                </g>
                <path class="st28" d="M139.71,12.77l-7.59-4.38s-.06-.01-.1,0c-.07.05-.14.15-.14.24,0,.05.01.07.04.09l7.78,4.49v-.45h0Z"/>
              </g>
              <g>
                <g>
                  <polygon class="st60" points="117.15 15.95 118.35 15.25 118.82 15.2 117.61 15.91 117.15 15.95"/>
                  <polygon class="st57" points="117.61 15.91 118.82 15.2 119.49 15.59 118.28 16.29 117.61 15.91"/>
                  <polygon class="st88" points="118.28 16.29 119.49 15.59 119.49 16.01 118.28 16.72 118.28 16.29"/>
                  <polygon class="st28" points="117.15 15.95 117.61 15.91 118.28 16.29 118.28 16.72 117.05 16.83 116.97 16.61 117.15 15.95"/>
                </g>
                <path class="st28" d="M126.55,20.37l-7.59-4.38s-.06-.01-.1,0c-.07.05-.14.15-.14.24,0,.05.01.07.04.09l7.78,4.49v-.45h0Z"/>
              </g>
              <g>
                <g>
                  <polygon class="st60" points="103.98 23.55 105.19 22.85 105.65 22.81 104.45 23.51 103.98 23.55"/>
                  <polygon class="st57" points="104.45 23.51 105.65 22.81 106.32 23.19 105.11 23.89 104.45 23.51"/>
                  <polygon class="st88" points="105.11 23.89 106.32 23.19 106.32 23.61 105.11 24.32 105.11 23.89"/>
                  <polygon class="st28" points="103.98 23.55 104.45 23.51 105.11 23.89 105.11 24.32 103.89 24.44 103.81 24.21 103.98 23.55"/>
                </g>
                <path class="st28" d="M113.38,27.97l-7.59-4.38s-.06-.01-.1,0c-.07.05-.14.15-.14.24,0,.05.01.07.04.09l7.78,4.49v-.45h0Z"/>
              </g>
              <g>
                <g>
                  <polygon class="st60" points="90.81 31.15 92.02 30.45 92.49 30.41 91.28 31.11 90.81 31.15"/>
                  <polygon class="st57" points="91.28 31.11 92.49 30.41 93.15 30.79 91.95 31.49 91.28 31.11"/>
                  <polygon class="st88" points="91.95 31.49 93.15 30.79 93.15 31.21 91.95 31.92 91.95 31.49"/>
                  <polygon class="st28" points="90.81 31.15 91.28 31.11 91.95 31.49 91.95 31.92 90.73 32.04 90.64 31.82 90.81 31.15"/>
                </g>
                <path class="st28" d="M100.21,35.57l-7.59-4.38s-.06-.01-.1,0c-.07.05-.14.15-.14.24,0,.04.01.07.04.09l7.78,4.49v-.45h0Z"/>
              </g>
              <g>
                <g>
                  <polygon class="st60" points="77.65 38.75 78.86 38.05 79.33 38.01 78.11 38.71 77.65 38.75"/>
                  <polygon class="st57" points="78.11 38.71 79.33 38.01 79.99 38.39 78.78 39.09 78.11 38.71"/>
                  <polygon class="st88" points="78.78 39.09 79.99 38.39 79.99 38.82 78.78 39.52 78.78 39.09"/>
                  <polygon class="st28" points="77.65 38.75 78.11 38.71 78.78 39.09 78.78 39.52 77.56 39.64 77.47 39.42 77.65 38.75"/>
                </g>
                <path class="st28" d="M87.05,43.17l-7.59-4.38s-.06-.01-.1,0c-.07.05-.14.15-.14.24,0,.05.01.07.04.09l7.78,4.49v-.45h0Z"/>
              </g>
              <g>
                <g>
                  <polygon class="st60" points="64.48 46.35 65.69 45.65 66.16 45.61 64.95 46.31 64.48 46.35"/>
                  <polygon class="st57" points="64.95 46.31 66.16 45.61 66.83 45.99 65.61 46.69 64.95 46.31"/>
                  <polygon class="st88" points="65.61 46.69 66.83 45.99 66.83 46.42 65.61 47.12 65.61 46.69"/>
                  <polygon class="st28" points="64.48 46.35 64.95 46.31 65.61 46.69 65.61 47.12 64.39 47.24 64.31 47.02 64.48 46.35"/>
                </g>
                <path class="st28" d="M73.89,50.77l-7.59-4.38s-.06-.01-.1,0c-.07.05-.14.15-.14.24,0,.04.01.07.04.09l7.78,4.49v-.45h0Z"/>
              </g>
              <g>
                <g>
                  <polygon class="st60" points="51.32 53.95 52.53 53.25 52.99 53.21 51.78 53.91 51.32 53.95"/>
                  <polygon class="st57" points="51.78 53.91 52.99 53.21 53.66 53.59 52.45 54.3 51.78 53.91"/>
                  <polygon class="st88" points="52.45 54.3 53.66 53.59 53.66 54.02 52.45 54.72 52.45 54.3"/>
                  <polygon class="st28" points="51.32 53.95 51.78 53.91 52.45 54.3 52.45 54.72 51.23 54.84 51.14 54.62 51.32 53.95"/>
                </g>
                <path class="st28" d="M60.72,58.37l-7.59-4.38s-.06-.01-.1,0c-.07.05-.14.15-.14.24,0,.05.01.07.04.09l7.78,4.49v-.45h0Z"/>
              </g>
            </g>
            <g id="Axonometric_Cube5">
              <polygon id="Cube_face_-_left8" class="st28" points="61.32 121.05 58.89 119.65 58.89 57.87 61.32 59.28 61.32 121.05"/>
              <polygon id="Cube_face_-_right8" class="st88" points="156.68 66 61.32 121.05 61.32 59.28 156.68 4.22 156.68 66"/>
              <polygon class="st7" points="61.32 121.05 153.9 67.6 153.9 8.95 61.32 62.41 61.32 121.05"/>
              <polygon id="Cube_face_-_top16" class="st57" points="61.32 59.28 58.89 57.87 154.25 2.82 156.68 4.22 61.32 59.28"/>
            </g>
            <g id="Axonometric_Cube6">
              <polygon id="Cube_face_-_left9" class="st28" points="68.86 125.41 66.43 124 66.43 62.23 68.86 63.63 68.86 125.41"/>
              <polygon id="Cube_face_-_right9" class="st88" points="164.21 70.35 68.86 125.41 68.86 63.63 164.21 8.57 164.21 70.35"/>
              <polygon class="st24" points="70.32 64.47 162.75 11.1 162.75 69.51 70.32 122.88 70.32 64.47"/>
              <polygon class="st55" points="107.39 43.07 162.75 11.1 162.75 69.51 107.39 101.47 107.39 43.07"/>
              <polygon id="Cube_face_-_top17" class="st57" points="68.86 63.63 66.43 62.23 161.79 7.17 164.21 8.57 68.86 63.63"/>
            </g>
            <g>
              <path class="st55" d="M109.12,61.13s-.03-.03-.05-.05c-.47-.54-.85-1.16-1.13-1.8-.33-.75-.51-1.52-.51-2.23l.04-14.04-18.29,10.55-.04,14.04c0,3.25,2.65,5.95,4.55,5.45.09-.02.17-.05.25-.09l.4-.23,14.78-11.62h0Z"/>
              <path class="st56" d="M109.07,61.08c-.47-.54-.85-1.16-1.13-1.8-.21-.48-.33-.96-.42-1.43l-18.33,10.58c.39,2.87,2.75,5.09,4.49,4.63.09-.02.17-.05.25-.09l.4-.23,14.78-11.62s-.03-.03-.05-.05h0Z"/>
              <path class="st73" d="M113.02,59.06c-.1-.4-.24-.8-.41-1.19-.32-.72-.75-1.4-1.25-1.97-.09-.11-.19-.21-.29-.31l-18.29,10.55c.1.1.19.2.29.31.51.57.93,1.25,1.25,1.97.17.39.31.78.41,1.19.39,1.55.07,2.87-.78,3.36l18.29-10.55c.85-.49,1.17-1.82.78-3.37h0Z"/>
            </g>
            <g class="st3">
              <path class="st39" d="M96.57,48.81l-2.22,5.26.26-.15.33.19.24,1.86-1.79,1.03-.37-.71-.09-.71.22-.81.73-.42,2.34-5.61c.11.03.23.06.35.09h0ZM83.05,56.33l-2.34,5.61-.73.42-.22.81.09.71.37.71,1.79-1.03-.24-1.86-.33-.19-.26.15,2.22-5.26c-.12-.03-.23-.06-.35-.09h0ZM109.39,41.13l-2.34,5.61-.73.42-.22.81.09.71.37.71,1.79-1.03-.24-1.86-.33-.19-.26.15,2.22-5.26c-.12-.03-.23-.06-.35-.09h0ZM69.89,63.93l-1.03,2.47v.89l1.38-3.27c-.12-.03-.23-.06-.35-.09ZM122.55,33.52l-2.34,5.61-.73.42-.22.81.09.71.37.71,1.79-1.03-.24-1.86-.33-.19-.26.15,2.22-5.26c-.12-.03-.23-.06-.35-.09h0ZM162.05,10.72l-2.34,5.61-.73.42-.22.81.09.71.37.71,1.79-1.03-.24-1.86-.33-.19-.26.15,2.22-5.26c-.12-.03-.23-.06-.35-.09h0ZM148.88,18.32l-2.34,5.61-.73.42-.22.81.09.71.37.71,1.79-1.03-.24-1.86-.33-.19-.26.15,2.22-5.26c-.12-.03-.23-.06-.35-.09h0ZM135.71,25.92l-2.34,5.61-.73.42-.22.81.09.71.37.71,1.79-1.03-.24-1.86-.33-.19-.26.15,2.22-5.26c-.12-.03-.23-.06-.35-.09h0Z"/>
            </g>
            <g>
              <g>
                <path class="st28" d="M169.82,14.95l-7.59-4.38s-.06-.01-.1,0c-.07.05-.14.15-.14.24,0,.05.01.07.04.09l7.78,4.49v-.45h0Z"/>
                <g>
                  <polygon class="st76" points="170.46 17.09 171.67 16.39 171.58 16.51 170.37 17.21 170.46 17.09"/>
                  <polygon class="st57" points="169.15 15.26 170.37 14.55 171.03 14.94 169.82 15.65 169.15 15.26"/>
                  <polygon class="st88" points="170.29 16.23 171.49 15.53 171.67 16.39 170.46 17.09 170.29 16.23"/>
                  <polygon class="st37" points="169.82 15.65 171.03 14.94 171.49 15.53 170.29 16.23 169.82 15.65"/>
                  <polygon class="st28" points="170.29 16.23 170.46 17.09 170.37 17.21 169.15 15.69 169.15 15.26 169.82 15.65 170.29 16.23"/>
                </g>
              </g>
              <g>
                <path class="st28" d="M156.65,22.55l-7.59-4.38s-.06-.01-.1,0c-.07.05-.14.15-.14.24,0,.04.01.07.04.09l7.78,4.49v-.45h0Z"/>
                <g>
                  <polygon class="st76" points="157.29 24.69 158.5 23.99 158.41 24.11 157.21 24.81 157.29 24.69"/>
                  <polygon class="st57" points="155.99 22.86 157.2 22.16 157.87 22.54 156.65 23.25 155.99 22.86"/>
                  <polygon class="st88" points="157.12 23.83 158.33 23.13 158.5 23.99 157.29 24.69 157.12 23.83"/>
                  <polygon class="st37" points="156.65 23.25 157.87 22.54 158.33 23.13 157.12 23.83 156.65 23.25"/>
                  <polygon class="st28" points="157.12 23.83 157.29 24.69 157.21 24.81 155.99 23.29 155.99 22.86 156.65 23.25 157.12 23.83"/>
                </g>
              </g>
              <g>
                <path class="st28" d="M143.49,30.15l-7.59-4.38s-.06-.01-.1,0c-.07.05-.14.15-.14.24,0,.05.01.07.04.09l7.78,4.49v-.45h0Z"/>
                <g>
                  <polygon class="st76" points="144.13 32.29 145.33 31.59 145.25 31.71 144.04 32.41 144.13 32.29"/>
                  <polygon class="st57" points="142.83 30.46 144.03 29.76 144.7 30.15 143.49 30.85 142.83 30.46"/>
                  <polygon class="st88" points="143.95 31.43 145.17 30.73 145.33 31.59 144.13 32.29 143.95 31.43"/>
                  <polygon class="st37" points="143.49 30.85 144.7 30.15 145.17 30.73 143.95 31.43 143.49 30.85"/>
                  <polygon class="st28" points="143.95 31.43 144.13 32.29 144.04 32.41 142.82 30.89 142.83 30.46 143.49 30.85 143.95 31.43"/>
                </g>
              </g>
              <g>
                <path class="st28" d="M130.32,37.75l-7.59-4.38s-.06-.01-.1,0c-.07.05-.14.15-.14.24,0,.04.01.07.04.09l7.78,4.49v-.45h0Z"/>
                <g>
                  <polygon class="st76" points="130.96 39.89 132.17 39.19 132.08 39.31 130.87 40.01 130.96 39.89"/>
                  <polygon class="st57" points="129.66 38.06 130.87 37.36 131.53 37.75 130.33 38.45 129.66 38.06"/>
                  <polygon class="st88" points="130.79 39.03 132 38.33 132.17 39.19 130.96 39.89 130.79 39.03"/>
                  <polygon class="st37" points="130.33 38.45 131.53 37.75 132 38.33 130.79 39.03 130.33 38.45"/>
                  <polygon class="st28" points="130.79 39.03 130.96 39.89 130.87 40.01 129.65 38.49 129.66 38.06 130.33 38.45 130.79 39.03"/>
                </g>
              </g>
              <g>
                <path class="st28" d="M117.16,45.35l-7.59-4.38s-.06-.01-.1,0c-.07.05-.14.15-.14.24,0,.05.01.07.04.09l7.78,4.49v-.45h0Z"/>
                <g>
                  <polygon class="st76" points="117.79 47.49 119.01 46.79 118.91 46.91 117.71 47.61 117.79 47.49"/>
                  <polygon class="st57" points="116.49 45.67 117.7 44.96 118.37 45.35 117.16 46.05 116.49 45.67"/>
                  <polygon class="st88" points="117.63 46.63 118.83 45.93 119.01 46.79 117.79 47.49 117.63 46.63"/>
                  <polygon class="st37" points="117.16 46.05 118.37 45.35 118.83 45.93 117.63 46.63 117.16 46.05"/>
                  <polygon class="st28" points="117.63 46.63 117.79 47.49 117.71 47.61 116.49 46.09 116.49 45.67 117.16 46.05 117.63 46.63"/>
                </g>
              </g>
              <g>
                <path class="st28" d="M103.99,52.95l-7.59-4.38s-.06-.01-.1,0c-.07.05-.14.15-.14.24,0,.04.01.07.04.09l7.78,4.49v-.45h0Z"/>
                <g>
                  <polygon class="st76" points="104.63 55.1 105.84 54.39 105.75 54.51 104.54 55.22 104.63 55.1"/>
                  <polygon class="st57" points="103.33 53.27 104.53 52.56 105.2 52.95 103.99 53.65 103.33 53.27"/>
                  <polygon class="st88" points="104.46 54.23 105.67 53.53 105.84 54.39 104.63 55.1 104.46 54.23"/>
                  <polygon class="st37" points="103.99 53.65 105.2 52.95 105.67 53.53 104.46 54.23 103.99 53.65"/>
                  <polygon class="st28" points="104.46 54.23 104.63 55.1 104.54 55.22 103.33 53.69 103.33 53.27 103.99 53.65 104.46 54.23"/>
                </g>
              </g>
              <g>
                <path class="st28" d="M90.83,60.55l-7.59-4.38s-.06-.01-.1,0c-.07.05-.14.15-.14.24,0,.05.01.07.04.09l7.78,4.49v-.45h0Z"/>
                <g>
                  <polygon class="st76" points="91.46 62.7 92.67 61.99 92.59 62.11 91.37 62.82 91.46 62.7"/>
                  <polygon class="st57" points="90.16 60.87 91.37 60.16 92.04 60.55 90.83 61.25 90.16 60.87"/>
                  <polygon class="st88" points="91.29 61.83 92.5 61.13 92.67 61.99 91.46 62.7 91.29 61.83"/>
                  <polygon class="st37" points="90.83 61.25 92.04 60.55 92.5 61.13 91.29 61.83 90.83 61.25"/>
                  <polygon class="st28" points="91.29 61.83 91.46 62.7 91.37 62.82 90.16 61.29 90.16 60.87 90.83 61.25 91.29 61.83"/>
                </g>
              </g>
              <g>
                <path class="st28" d="M77.66,68.15l-7.59-4.38s-.06-.01-.1,0c-.07.05-.14.15-.14.24,0,.04.01.07.04.09l7.78,4.49v-.45h0Z"/>
                <g>
                  <polygon class="st76" points="78.3 70.3 79.51 69.6 79.42 69.72 78.21 70.42 78.3 70.3"/>
                  <polygon class="st57" points="76.99 68.47 78.21 67.77 78.87 68.15 77.66 68.85 76.99 68.47"/>
                  <polygon class="st88" points="78.13 69.43 79.33 68.73 79.51 69.6 78.3 70.3 78.13 69.43"/>
                  <polygon class="st37" points="77.66 68.85 78.87 68.15 79.33 68.73 78.13 69.43 77.66 68.85"/>
                  <polygon class="st28" points="78.13 69.43 78.3 70.3 78.21 70.42 76.99 68.89 76.99 68.47 77.66 68.85 78.13 69.43"/>
                </g>
              </g>
            </g>
          </g>
        </g>
        <g>
          <polygon class="st35" points="35.9 187.98 89.2 157.16 90.53 156.93 37.23 187.75 35.9 187.98"/>
          <polygon class="st63" points="37.23 187.75 90.53 156.93 94.38 159.15 41.08 189.97 37.23 187.75"/>
          <polygon class="st65" points="42.41 191.74 95.7 160.91 95.69 184.38 42.4 215.2 42.41 191.74"/>
          <polygon class="st66" points="41.08 189.97 94.38 159.15 95.7 160.91 42.41 191.74 41.08 189.97"/>
          <polygon class="st61" points="41.08 189.97 42.41 191.74 42.4 216.19 35.9 212.44 35.9 187.98 37.23 187.75 41.08 189.97"/>
        </g>
        <path class="st8" d="M101.86,198.7v-1.23l-25.8-1.71v-23.21s-1.53-1.89-1.53-1.89h-7.69l-1.49.33-2.02,1.17,1.49-.33h1.88l-8.47,4.89h-1.88l-1.49.33-2.02,1.17,1.49-.33h7.69l1.55,1.89v23.21s27.81,1.78,27.81,1.78v-1.23l-10.24-.68,8.51-4.91,12.21.77h0ZM65.58,184.42l8.47-4.89v9.11l-8.47,4.89v-9.11ZM60.96,176.71l8.47-4.89h3.07l1.55,1.89v4.24l-8.47,4.89v-4.24l-1.55-1.89h-3.07ZM65.58,201.81v-6.69l8.47-4.89v6.69s1.44.13,1.44.13l-8.43,4.87-1.49-.1h.01ZM78.67,202.68l-9.17-.61,8.45-4.88,9.22.58-8.5,4.91h0Z"/>
        <g>
          <g>
            <g>
              <polygon class="st88" points="91.31 95.3 92.11 94.83 96.79 148.83 95.98 149.3 91.31 95.3"/>
              <polygon class="st57" points="89.63 94.54 90.44 94.07 92.11 94.83 91.31 95.3 89.63 94.54"/>
              <polygon class="st28" points="91.31 95.3 95.98 149.3 94.31 148.54 89.63 94.54 91.31 95.3"/>
            </g>
            <g>
              <polygon class="st88" points="81.15 104.17 91.21 98.33 91.28 99.19 81.23 105.04 81.15 104.17"/>
              <polygon class="st57" points="79.88 103.6 89.93 97.75 91.21 98.33 81.15 104.17 79.88 103.6"/>
              <polygon class="st28" points="81.15 104.17 81.23 105.04 79.95 104.46 79.88 103.6 81.15 104.17"/>
            </g>
            <g>
              <polygon class="st88" points="82 114.25 92.05 108.41 92.13 109.27 82.07 115.11 82 114.25"/>
              <polygon class="st57" points="80.73 113.67 90.78 107.83 92.05 108.41 82 114.25 80.73 113.67"/>
              <polygon class="st28" points="82 114.25 82.07 115.11 80.8 114.54 80.73 113.67 82 114.25"/>
            </g>
            <g>
              <polygon class="st88" points="82.89 124.3 92.95 118.45 93.02 119.32 82.97 125.17 82.89 124.3"/>
              <polygon class="st57" points="81.62 123.73 91.67 117.88 92.95 118.45 82.89 124.3 81.62 123.73"/>
              <polygon class="st28" points="82.89 124.3 82.97 125.17 81.69 124.59 81.62 123.73 82.89 124.3"/>
            </g>
            <g>
              <polygon class="st88" points="83.75 134.37 93.81 128.53 93.88 129.39 83.83 135.23 83.75 134.37"/>
              <polygon class="st57" points="82.48 133.79 92.53 127.95 93.81 128.53 83.75 134.37 82.48 133.79"/>
              <polygon class="st28" points="83.75 134.37 83.83 135.23 82.55 134.66 82.48 133.79 83.75 134.37"/>
            </g>
            <g>
              <polygon class="st88" points="84.62 144.43 94.68 138.59 94.75 139.45 84.69 145.3 84.62 144.43"/>
              <polygon class="st57" points="83.35 143.86 93.41 138.01 94.68 138.59 84.62 144.43 83.35 143.86"/>
              <polygon class="st28" points="84.62 144.43 84.69 145.3 83.43 144.72 83.35 143.86 84.62 144.43"/>
            </g>
            <g>
              <polygon class="st88" points="80.82 101.35 81.62 100.89 86.29 154.89 85.49 155.35 80.82 101.35"/>
              <polygon class="st57" points="79.15 100.6 79.95 100.13 81.62 100.89 80.82 101.35 79.15 100.6"/>
              <polygon class="st28" points="80.82 101.35 85.49 155.35 83.82 154.6 79.15 100.6 80.82 101.35"/>
            </g>
          </g>
          <g>
            <g>
              <polygon class="st88" points="97.18 144.7 97.99 144.23 102.66 198.23 101.85 198.7 97.18 144.7"/>
              <polygon class="st57" points="95.51 143.94 96.31 143.47 97.99 144.23 97.18 144.7 95.51 143.94"/>
              <polygon class="st28" points="97.18 144.7 101.85 198.7 100.18 197.94 95.51 143.94 97.18 144.7"/>
            </g>
            <g>
              <polygon class="st88" points="87.03 153.57 97.08 147.73 97.15 148.59 87.1 154.44 87.03 153.57"/>
              <polygon class="st57" points="85.75 153 95.81 147.15 97.08 147.73 87.03 153.57 85.75 153"/>
              <polygon class="st28" points="87.03 153.57 87.1 154.44 85.83 153.86 85.75 153 87.03 153.57"/>
            </g>
            <g>
              <polygon class="st88" points="87.87 163.65 97.93 157.81 98 158.67 87.95 164.51 87.87 163.65"/>
              <polygon class="st57" points="86.6 163.07 96.65 157.23 97.93 157.81 87.87 163.65 86.6 163.07"/>
              <polygon class="st28" points="87.87 163.65 87.95 164.51 86.67 163.94 86.6 163.07 87.87 163.65"/>
            </g>
            <g>
              <polygon class="st88" points="88.77 173.7 98.82 167.86 98.89 168.72 88.84 174.57 88.77 173.7"/>
              <polygon class="st57" points="87.49 173.13 97.55 167.28 98.82 167.86 88.77 173.7 87.49 173.13"/>
              <polygon class="st28" points="88.77 173.7 88.84 174.57 87.57 173.99 87.49 173.13 88.77 173.7"/>
            </g>
            <g>
              <polygon class="st88" points="89.63 183.77 99.68 177.93 99.75 178.79 89.7 184.63 89.63 183.77"/>
              <polygon class="st57" points="88.35 183.19 98.41 177.35 99.68 177.93 89.63 183.77 88.35 183.19"/>
              <polygon class="st28" points="89.63 183.77 89.7 184.63 88.43 184.06 88.35 183.19 89.63 183.77"/>
            </g>
            <g>
              <polygon class="st88" points="90.49 193.83 100.55 187.99 100.63 188.85 90.57 194.7 90.49 193.83"/>
              <polygon class="st57" points="89.23 193.26 99.28 187.41 100.55 187.99 90.49 193.83 89.23 193.26"/>
              <polygon class="st28" points="90.49 193.83 90.57 194.7 89.3 194.13 89.23 193.26 90.49 193.83"/>
            </g>
            <g>
              <polygon class="st88" points="86.69 150.75 87.49 150.29 92.17 204.29 91.37 204.75 86.69 150.75"/>
              <polygon class="st57" points="85.02 150 85.82 149.53 87.49 150.29 86.69 150.75 85.02 150"/>
              <polygon class="st28" points="86.69 150.75 91.37 204.75 89.69 204 85.02 150 86.69 150.75"/>
            </g>
          </g>
        </g>
        <g>
          <g>
            <g id="Axonometric_Cylinder4">
              <path class="st15" d="M183.74,143.98v.57c0,.53.36,1.05,1.06,1.46,1.41.82,3.71.82,5.13,0,.71-.41,1.07-.95,1.06-1.5v-.58l-7.25.04h0Z"/>
              <path id="Cylinder_face4" class="st67" d="M189.93,145.44c-1.41.82-3.71.82-5.13,0s-1.41-2.14,0-2.96,3.71-.82,5.13,0,1.41,2.14,0,2.96Z"/>
              <path class="st4" d="M187.17,141.88c-.86.03-1.71.23-2.37.61-1.25.72-1.4,1.83-.45,2.64l3.13-.02c.63-.88.63-3.25-.31-3.23h0Z"/>
            </g>
            <g id="Axonometric_Cylinder5">
              <path class="st18" d="M185.59,129.3l-.61,14.46c0,.35.24.69.7.96.93.54,2.44.54,3.37,0,.47-.27.7-.63.7-.99l-.61-14.46-3.55.03h0Z"/>
              <path id="Cylinder_face5" class="st67" d="M188.62,130.01c-.69.4-1.82.4-2.51,0-.69-.4-.69-1.05,0-1.45.69-.4,1.82-.4,2.51,0,.69.4.69,1.05,0,1.45Z"/>
              <path class="st4" d="M188.33,128.95c.15-.23.03-.53-.23-.6-.65-.17-1.45-.11-1.99.21-.57.33-.67.81-.32,1.2h1.64c.29,0,.55-.16.67-.42.06-.13.14-.26.22-.39h0Z"/>
            </g>
            <g>
              <path class="st23" d="M186.47,71.17l-.31,57.93c0,.17.12.35.35.49.47.27,1.23.27,1.71,0,.24-.14.35-.32.35-.5l-.31-57.93h-1.79Z"/>
              <path id="Cylinder_face6" class="st67" d="M187.99,71.53c-.35.2-.91.2-1.27,0-.35-.2-.35-.53,0-.73.35-.2.91-.2,1.27,0s.35.53,0,.73Z"/>
            </g>
            <g id="Axonometric_Cylinder6">
              <path class="st22" d="M186.16,70.88v.46c0,.17.12.35.35.49.47.27,1.23.27,1.71,0,.24-.14.35-.32.35-.5v-.46h-2.41Z"/>
              <path id="Cylinder_face7" class="st67" d="M188.21,71.36c-.47.27-1.23.27-1.71,0s-.47-.71,0-.99,1.23-.27,1.71,0,.47.71,0,.99Z"/>
            </g>
          </g>
          <g>
            <path class="st40" d="M191.39,67.61c0,2.23-1.81,4.03-4.03,4.03s-4.03-1.81-4.03-4.03,1.81-4.03,4.03-4.03,4.03,1.81,4.03,4.03Z"/>
            <path id="Cylinder_face8" class="st2" d="M188.21,71.36c-.47.27-1.23.27-1.71,0s-.47-.71,0-.99,1.23-.27,1.71,0,.47.71,0,.99Z"/>
          </g>
        </g>
        <g>
          <g>
            <g id="Axonometric_Cylinder7">
              <path class="st19" d="M56.85,217.24v.58c0,.53.36,1.05,1.06,1.46,1.41.82,3.71.82,5.13,0,.71-.41,1.07-.95,1.06-1.5v-.58s-7.25.04-7.25.04Z"/>
              <path id="Cylinder_face9" class="st67" d="M63.03,218.7c-1.41.82-3.71.82-5.13,0-1.41-.82-1.41-2.14,0-2.96s3.71-.82,5.13,0c1.41.82,1.41,2.14,0,2.96Z"/>
              <path class="st4" d="M60.28,215.14c-.86.03-1.71.23-2.37.61-1.25.72-1.4,1.83-.45,2.64l3.13-.02c.63-.88.63-3.25-.31-3.23Z"/>
            </g>
            <g id="Axonometric_Cylinder8">
              <path class="st21" d="M58.7,202.56l-.61,14.46c0,.35.24.69.7.96.93.54,2.44.54,3.37,0,.47-.27.7-.63.7-.99l-.61-14.46-3.55.03h0Z"/>
              <path id="Cylinder_face10" class="st67" d="M61.73,203.27c-.69.4-1.82.4-2.51,0s-.69-1.05,0-1.45,1.82-.4,2.51,0c.69.4.69,1.05,0,1.45Z"/>
              <path class="st4" d="M61.43,202.21c.15-.23.03-.53-.23-.6-.65-.17-1.45-.11-1.99.21-.57.33-.67.81-.32,1.2h1.64c.29,0,.55-.16.67-.42.06-.13.14-.26.22-.39h0Z"/>
            </g>
            <g>
              <path class="st20" d="M59.58,144.43l-.31,57.93c0,.17.12.35.35.49.47.27,1.23.27,1.71,0,.24-.14.35-.32.35-.5l-.31-57.93h-1.79s0,.01,0,.01Z"/>
              <path id="Cylinder_face11" class="st67" d="M61.11,144.79c-.35.2-.91.2-1.27,0-.35-.2-.35-.53,0-.73s.91-.2,1.27,0,.35.53,0,.73Z"/>
            </g>
            <g id="Axonometric_Cylinder9">
              <path class="st17" d="M59.27,144.13v.46c0,.17.12.35.35.49.47.27,1.23.27,1.71,0,.24-.14.35-.32.35-.5v-.46s-2.41.01-2.41.01Z"/>
              <path id="Cylinder_face12" class="st67" d="M61.33,144.62c-.47.27-1.23.27-1.71,0s-.47-.71,0-.99c.47-.27,1.23-.27,1.71,0s.47.71,0,.99Z"/>
            </g>
          </g>
          <g>
            <circle class="st71" cx="60.47" cy="140.87" r="4.03"/>
            <path id="Cylinder_face13" class="st2" d="M61.33,144.62c-.47.27-1.23.27-1.71,0s-.47-.71,0-.99c.47-.27,1.23-.27,1.71,0s.47.71,0,.99Z"/>
          </g>
        </g>
        <path class="st1" d="M122.65,190.91l.81.65,10.64.17s.98-.14,1.11-1.82c.09-1.16,0-2.1-.99-2.71,0,0-1.11-.12-2.69-.29l-.71-.73-2.8-.54-.79.46-7.69,4.44,3.09.37h0Z"/>
        <g id="_x31_5">
          <path class="st30" d="M115.91,161.18c.21-.03.41.11.44.33l3.2,22.25c.03.21-.11.41-.33.44h-.05c-.19,0-.35-.14-.38-.33l-3.2-22.25c-.03-.21.11-.41.33-.44h0Z"/>
          <g>
            <g>
              <path class="st42" d="M119.25,186.14c.4-.35,1.15-.95,1.93-1.35.47.05.95.06,1.44.03,1.01-.05,2.2-.18,3.07-.76.02.19.02.4,0,.6-.03.4-.06.57-.53.85-2.34,1.43-2.66,1.63-3.09,1.83-.48.24-1.07.54-2.33.18-.64-.29-.68-.55-.65-.78.01-.13-.01-.46.15-.6h0Z"/>
              <path class="st30" d="M119.38,185.92c.57-.47,1.99-1.41,2.68-2.03.19-.17.3-.51.41-.75.27-.63,2.05-.76,2.85-.34.37.19.45.84.41,1.44-.03.4-.06.57-.53.85-2.34,1.43-2.86,1.69-3.29,1.88-.42.18-.86.35-1.77.15-.31-.07-.61-.22-.83-.45-.19-.21-.29-.47.07-.75h0Z"/>
            </g>
            <g>
              <path class="st42" d="M135.57,191.39c-.77.61-2.61.79-3.04-.25-.21-.49.6-3.66.68-4.58.02-.26.06-.73.06-.73.07-.09.35-.14.45-.19.45-.19,1.24.05,1.73.05.25,0,.37,1.67.38,1.83.07,1.01.34,3.39-.26,3.87Z"/>
              <path class="st30" d="M135.62,190.85c-.77.61-2.61.79-3.04-.25-.21-.49.53-3.65.61-4.57.02-.26.06-.73.06-.73.07-.09.42-.15.53-.19.45-.19,1.24.05,1.73.05.25,0,.37,1.67.38,1.83.07,1.01.34,3.39-.26,3.87h0Z"/>
            </g>
            <g>
              <path class="st30" d="M121.73,158.14c.15-.27.87-4.95,1.39-6.53.26-.78,1.1-1.31,2.07-1.49l.09,5.32s-.82,3.55-1.47,4.51c-.39.59-5.51,1.9-5.51,1.9-.61.21-1.27-1.51-.86-1.83,0,0,4.1-1.58,4.27-1.89h0Z"/>
              <path class="st30" d="M132.66,160.72c-2.81.75-5.41-.18-8.13-.87.03-.97-.09-1.93-.34-2.87-.51-1.88-1.51-5.24.16-6.52.77-.59,2.34-.49,3.47-.42,2.44.15,4.87,1.26,5.84,2.17.19.17.11,2.39-.3,3.29-.79,1.71-.87,3.23-.71,5.23h0Z"/>
              <path class="st24" d="M122.87,175.6c.11-.65.23-1.3.27-1.96.13-2.03-.68-2.63.66-9.39.2-1.02.39-2.05.54-3.08.1-.69.18-1.87.17-2.22.27-.55.16-2.69.17-3.66,0,0,2.43,1.57,6.4,1.26-.11,2.05-.11,4.25,1.56,4.06.06.93.09,1.76.23,2.97.28,3.33,1.01,6.2,1.01,9.57,0,.72-.03,1.45.14,2.15.13.53.37,1.01.59,1.51.76,1.76.93,2.97,1.11,4.88.09.95.18,2.61.15,3.56.01.93-2.57,1.2-2.84.29-1-4.99-2.47-6.41-3.42-11.11-.21-1.02-1.31-5.44-1.31-5.44-.33,1.81-1.34,5.9-1.42,6.87-.08.97-.07,1.55-.27,2.5-.27,1.3-.75,2.14-1.07,4.81-.05.79-3.02.85-2.94-.19.35-4.55.05-6.11.28-7.37h0Z"/>
            </g>
            <path class="st24" d="M125.37,148.73l.63.45c-.63.89-.66,2.07-.64,3.41l.16,5.23h-.74l-.19-5.22c-.02-1.13-.04-2.69.78-3.86h0Z"/>
            <path class="st62" d="M132.77,169.25c.03-.34.16-.67.37-.93.13-.17.3-.3.41-.48.13-.2.17-.45.14-.69,0-.05,1.89-.3,1.89-.3-.15.87.17,1.63.29,2.13.03.13.06.26.05.39-.03.26-.21.48-.41.64-.39.31-.89.47-1.36.63-.1.03-.21.07-.31.05-.19-.02-.33-.19-.43-.35s-.18-.35-.33-.47c-.05-.05-.12-.08-.17-.13-.13-.13-.15-.32-.14-.5h0Z"/>
            <path class="st30" d="M133.4,151.92c1.47,1.01,2.67,8.57,2.66,9.03-.03,1.57-.24,5.74-.38,6.57-.13.79-2.09.46-2.05-.21.1-1.95.04-6.5.04-6.5-.43-2.05-1.27-3.71-2.14-5.61-.35-.84-.3-1.82.21-2.57.52-.76,1.17-1.06,1.66-.72h0Z"/>
            <g>
              <path class="st86" d="M127,152.67l.19.71.21-.59c.79.19,2.49-.67,2.33-2.24-.01-.1-.06-.2-.13-.27-.34-.35-.75-.93-.99-2.11-.07-.37-.5-.53-.79-.29-.99.78-1.77,2.31-1.77,2.97,0,.37.15,1.73.94,1.83h0Z"/>
              <path class="st59" d="M129.6,150.27s.09.15.03.53c-.11.73-.6,1.49-2.23,1.99,0,0,.92.99.95,1.02,0,0,1.21-.77,1.61-2.02.42-1.32-.36-1.51-.36-1.51h0Z"/>
              <path class="st59" d="M127,152.67l-1.17.55s.23-.89.65-2.22c-.39,1.35.52,1.68.52,1.68h0Z"/>
              <g>
                <path class="st62" d="M124.52,147.52c-.01-.41.05-.85.39-1.08.53-.35,1.77-.98,3.9.18.31.17.51.49.71.77.24.32.25.51.21.88-.07.69.03.99-.95,2.12-.83.95-2.01,1.71-2.28,1.85-.34.18-.68.22-1.01.13-.31-.09-.63-.4-.71-1.14-.07-.57-.21-2.19-.25-3.7h0Z"/>
                <path class="st83" d="M128.34,148.78c-.11.21-.53.28-.65-.2-.14-.59-.69-.71-1.11-.73-.69-.03-1.29-.16-1.79-.43-.1-.06-.18-.13-.25-.21,0,0-.24-.27-.03-.91.11-.34.63-1.67,2.05-2.02.67-.17,1.4-.12,2.05.1,2.51.83,1.72,3.99,1.38,4.57-.24.41-.71.99-.99,1.2.15-.47.71-1.42.22-1.75-.19-.12-.42-.13-.6,0-.14.11-.2.23-.28.39h0Z"/>
              </g>
            </g>
            <path class="st24" d="M130.89,151.63c.11-.3.29-.55.53-.74.16-.12,1.04.29.99.46-.07,0-.15,0-.26.03-.23.06-.43.25-.53.51-.37,1.03-.42,2.21-.47,3.25l-.14,3.35-.77-.03.14-3.35c.05-1.1.1-2.35.51-3.49h0Z"/>
            <path class="st68" d="M125.79,158.74l1.81,1.03,1.81-.32v-2.2c-1.31-.03-2.51-.27-3.61-.71v2.2h0Z"/>
            <path class="st62" d="M115.04,160.73c.14-.15.3-.3.39-.49.03-.07.05-.14.09-.21.1-.17.27-.27.44-.31.32-.1.59-.05.86.07.17.07.67.37.67.37.8-.27,1.17,1.13.77,1.52-.94.94-2.37,1.5-2.92,1.06-.21-.17-.32-.43-.47-.88-.03-.09-.09-.47-.1-.58,0-.19.12-.39.26-.55h0Z"/>
            <g>
              <path class="st30" d="M127.77,148.36c-.81.13-3.25-.47-3.45-1.59,0,0,.51-3.47,3.65-3.05,2.48.47,2.45,3.21,2.45,3.21-.05.43-1.95,1.31-2.65,1.41h0Z"/>
              <path class="st68" d="M123,147.89c2.58.33,1.69,2.28,5.65.19-1.29.31-4.28-.36-4.32-1.45,0,0-1.89,1.19-1.33,1.27Z"/>
              <path class="st68" d="M127.43,144.4c.54,0,.55-.31,0-.31-.54,0-.55.31,0,.31Z"/>
            </g>
          </g>
          <path class="st30" d="M107.91,145.18s.09-.08.16-.08l5.16-.34c.12-.01.23.09.23.21,0,.12-.09.23-.21.23l-4.92.32.12.83c.02.17.16.29.33.27l5.14-.34c.15.04.27.16.29.32l1.97,13.67c.03.21-.11.41-.33.44h-.05c-.19,0-.35-.14-.38-.33l-1.96-13.64-4.63.33h-.05c-.38,0-.71-.29-.75-.66l-.15-1.05c0-.06,0-.13.05-.17h0Z"/>
          <g>
            <g class="st5">
              <path class="st51" d="M108.04,144.59c.03-.16.09-.3.17-.4.08-.12.18-.18.28-.19l9.99-.69c-.1,0-.19.07-.28.19-.07.11-.13.25-.17.4-.05.2-.06.43-.04.67.01.2.05.4.12.58.13.37.34.57.53.55l-9.99.69c-.19.01-.4-.18-.53-.55-.07-.18-.11-.38-.12-.58-.02-.23,0-.47.04-.67h0Z"/>
              <path class="st38" d="M118.2,143.49c.25-.35.61-.19.81.37s.16,1.29-.09,1.65c-.25.35-.61.19-.81-.36s-.17-1.29.09-1.65h0Z"/>
              <path class="st87" d="M118.41,144.07c.11-.15.27-.08.35.16s.07.56-.04.71c-.11.15-.27.09-.35-.16-.09-.24-.07-.56.04-.71Z"/>
            </g>
            <path class="st12" d="M108.04,144.59l9.99-.69c-.05.2-.06.43-.04.67l-9.99.69c-.02-.23,0-.47.04-.67Z"/>
          </g>
        </g>
        <g>
          <g class="st26">
            <path class="st61" d="M78.67,207.61h-10.77c-.62,0-4.73,2.85-2.74,2.85h2.6c-2.32,1.65-4.51,3.81-2.07,3.81h9.15l1.46-3.81h2.58l-.21-2.85h0Z"/>
            <path class="st61" d="M68.32,206.97h13.73l-.21-2.85h-10.77c-.62,0-4.73,2.85-2.74,2.85h0Z"/>
          </g>
          <g id="Axonometric_Cylinder10">
            <path class="st32" d="M79.65,189.92v15.83c0,.32.21.65.63.89.84.49,2.2.49,3.04,0,.41-.24.63-.55.63-.87v-15.83l-4.3-.02h0Z"/>
            <path id="Cylinder_face14" class="st55" d="M83.33,190.81c.84-.49.84-1.27,0-1.75-.84-.49-2.2-.49-3.04,0-.84.49-.84,1.27,0,1.75.84.49,2.2.49,3.04,0Z"/>
            <path id="Cylinder_face15" class="st43" d="M82.48,190.32c.37-.21.37-.57,0-.78s-.98-.21-1.35,0-.37.57,0,.78.98.21,1.35,0Z"/>
          </g>
          <g id="Axonometric_Cylinder11">
            <path class="st31" d="M76.73,193.43v15.83c0,.32.21.65.63.89.84.49,2.2.49,3.04,0,.41-.24.63-.55.63-.87v-15.83l-4.3-.02h0Z"/>
            <path id="Cylinder_face16" class="st55" d="M80.4,194.32c.84-.49.84-1.27,0-1.75-.84-.49-2.2-.49-3.04,0-.84.49-.84,1.27,0,1.75.84.49,2.2.49,3.04,0Z"/>
            <path id="Cylinder_face17" class="st43" d="M79.56,193.83c.37-.21.37-.57,0-.78s-.98-.21-1.35,0-.37.57,0,.78.98.21,1.35,0Z"/>
          </g>
          <g>
            <g>
              <path class="st46" d="M70.25,205.25c0,.29,2.29.48,4.59.52,2.3-.04,4.6-.22,4.59-.52l-.02.2s-.6,6.58-.6,6.58c0,.57-.39,1.15-1.15,1.59-.78.45-1.8.67-2.82.67s-2.04-.21-2.82-.67c-.76-.44-1.15-1.01-1.15-1.59l-.61-6.61s0-.16,0-.16h0Z"/>
              <path id="Cylinder_body" class="st46" d="M69.95,204.53v.56c-.01.73.47,1.47,1.44,2.03,1.92,1.11,5.03,1.11,6.95,0,.95-.55,1.43-1.26,1.44-1.98v-.56c-.01.72-.49,1.43-1.44,1.98-1.92,1.11-5.03,1.11-6.95,0-.97-.56-1.45-1.3-1.44-2.03Z"/>
              <path id="Cylinder_face18" class="st53" d="M71.39,206.57c1.92,1.11,5.03,1.11,6.95,0s1.92-2.9,0-4.01-5.03-1.11-6.95,0-1.92,2.9,0,4.01Z"/>
              <path id="Cylinder_face19" class="st46" d="M71.69,206.39c1.75,1.01,4.57,1.01,6.32,0s1.75-2.64,0-3.65-4.57-1.01-6.32,0c-1.75,1.01-1.75,2.64,0,3.65Z"/>
              <path class="st84" d="M71.69,203.26c1.75-1.01,4.57-1.01,6.32,0,.76.44,1.19.99,1.29,1.56-.1.57-.53,1.13-1.29,1.56-1.75,1.01-4.57,1.01-6.32,0-.76-.44-1.19-.99-1.29-1.56.1-.57.53-1.13,1.29-1.56Z"/>
            </g>
            <path class="st82" d="M74.53,198.87c.91-.53,1.81-.59,2.53-.18.89.51,1.39,1.69,1.39,3.23,0,.21-.02.44-.05.69-.03-.01-.04-.03-.07-.05-.11-.07-.25-.11-.38-.17.01-.16.03-.31.03-.47,0-1.37-.43-2.4-1.16-2.83-.58-.33-1.29-.27-2.07.18-1.91,1.1-3.46,4.14-3.46,6.78,0,.22.02.42.05.62.02.17-.07.26-.2.27-.14,0-.24-.1-.25-.22-.03-.21-.05-.43-.05-.67,0-2.78,1.65-6,3.69-7.17h0Z"/>
          </g>
        </g>
        <g>
          <path class="st1" d="M109.97,201.13s-.13-.03-.36-.08c0,0-1.13-.01-2.59.03l-1.21-.62c-2.31-.26-15.53,7.15-14.95,8.82l.27.99c.34.12.81.21,1.4.25,1.61.13,10.06.71,10.06.71l.83-5.95h7.75c.46-.83-1.2-4.14-1.2-4.14h0Z"/>
          <g>
            <g>
              <g>
                <path class="st78" d="M98.07,169.97c.17.27.49.53.78.67.27.13.59.14.87.23.61.21.93.77,1.42,1.15.05.03,1.66-.64,1.95-.81-.49-.37-2-1.37-2.07-1.49-.07-.13-.11-.27-.15-.42-.22-.89-.44-1.87-1.14-2.47-.27-.23-1.89-1.31-2.15-1.25-.26.06-.02.63.12.92.37.75.99,2.22.8,2.28-.15.05-.36-.43-.59-.8-.24-.38-.58-.48-.57-.17.01.43.4,1.67.72,2.15h0Z"/>
                <g>
                  <g>
                    <path class="st42" d="M105,208.09c-.02-.05-.04-.11-.06-.16l-2.12.11c-.23.53-.62.39-2.9.27-.6-.03-1.71-.19-2.21.54-.45.65.13,1.38.69,1.61.46.19,4.45,1.03,5.25,1.11,1.15.13,2.11-.21,1.99-1.37-.08-.85-.41-1.41-.65-2.11h0Z"/>
                    <path class="st30" d="M104.97,207.49c-.02-.05-.04-.11-.06-.16l-2.12.11c-.23.53-.62.39-2.9.27-.6-.03-1.62.1-2.11.82-.45.65.03,1.1.59,1.33.46.19,4.45,1.03,5.25,1.11,1.15.13,2.15-.2,1.93-1.35-.15-.72-.33-1.43-.57-2.13h0Z"/>
                  </g>
                  <g>
                    <path class="st42" d="M108.67,201.78c.56,1.27.85,1.95,1.4,2.95.31.57.68.63,1.39.57,1.61-.14.93-2.13.4-3.75-.17-.5-.44-1.37-.9-1.65-.5-.31-2.21-.66-2.55-.02-.09.18-.08.71-.07.86.03.37.21.78.33,1.03h0Z"/>
                    <path class="st30" d="M108.69,201.18c.56,1.27.85,1.95,1.4,2.95.31.57.68.63,1.39.57,1.61-.14.79-2.28.25-3.9-.17-.5-.3-1.22-.76-1.5-.5-.31-2.25-.23-2.56.42-.19.4.11,1.09.27,1.46h0Z"/>
                  </g>
                  <path class="st24" d="M111.35,194.79c-.84-1.43-.99-2.03-.93-3.99.19-6.47-.43-9.55-.57-11.37-2.46,6.09-7.83,3.95-9.23,3.13-.37,2.17-.23,6.43-.01,8.63.21,2.21,1.21,5.59,1.11,7.89-.06,1.3-.37,2.61-.15,3.89.49,2.79.63,4.41.71,5.42.02.75,2.69,1.07,2.9.08.23-2.73.4-4,.61-5.99.07-.67.13-1.34.01-2-.07-.37-.19-.72-.25-1.09-.15-.83-.09-2.05.05-2.89.19-1.17.31-5.21.5-6.47l.82,3.05c.4,1.5.98,3.02,1.11,3.67.43,2.19,1.21,3.3,1.93,5.46.29.85,2.33.74,2.25-.15,0,0,.27-5.36-.84-7.25h0Z"/>
                </g>
                <path class="st55" d="M100.7,182.87c-.15,2.13,9.18,2.07,9.1-1.13-.08-3.09.46-5.71,1.38-8.66.32-1.02.68-2.15.23-3.13-.34-.74-1.09-1.19-1.9-1.21-1.8-.03-6.31,1.61-8.3,2.72-.63.35-1.01,1.02-.98,1.73.04,1.28.33,2.78.36,3.9.04,1.97.25,3.81.11,5.77h0Z"/>
                <g>
                  <path class="st78" d="M98.62,177.76c-.69,2.39-.75,2.77-1.09,3.27-1.38,1.29-2.17,3.81-2.99,4.4-.29.21-.56.44-.82.7-.57.57-1.09,1.2-1.52,1.89-.21.32-.91,1.1-.95,1.22-.05.16.08.33.24.29-.09.13-.18.27-.2.43-.03.21.34.39.61.17-.03.31.32.35.53.19.21-.15.4-.29.63-.43-.04.08-.02.21.07.25.07.03.14.02.21,0,.27-.09.49-.3.69-.51.55-.57,1.13-1.17,1.35-1.93.05-.15.07-.3.13-.44.1-.23.27-.43.44-.63,2.05-2.33,1.52-1.59,2.31-2.34.79-.74,1.51-2.09,1.51-2.09,0,0,1.39-2.65,1.62-3.7l-2.77-.75h0Z"/>
                  <path class="st55" d="M98.27,177.66c-.25,1.06,3.09,2.1,3.46,1.37.58-1.07,1.75-4.11,1.85-4.55.23-.99-.18-2.47-1.14-3.03-.99-.59-2.02.54-2.53,1.33-.61.95-1.53,4.31-1.64,4.89h0Z"/>
                </g>
              </g>
              <path class="st78" d="M105.76,170.93c1.25-.27,2.16-.93,2.05-1.46-.03-.17-.18-.3-.39-.39-1.29.33-2.81.86-4.13,1.4.13.52,1.23.73,2.46.45h0Z"/>
              <path class="st78" d="M102.82,163.71c-.27,1.28-.03,2.66.11,3.96.03.23.05.47.17.66.11.19.31.32.43.5.33.47.19,1.11.2,1.55.02.88,3.73.28,3.7-.69-.02-.21-.04-.6-.08-1.05-.04-.44.05-.69.17-1.12.23-.74.31-1.51.41-2.27.07-.56.13-1.15-.08-1.67-.43-1.09-1.67-1.59-2.81-1.56-1.19.03-1.99.62-2.23,1.71h0Z"/>
              <path class="st24" d="M103.11,165.82c-.03.3.37.5.59.1.24-.45.99-.23.51,1.19-.87,2.51,2.75,1.53,3.15.87.47-.77,2.9-5.01-.75-6.57-1.3-.56-3.79-.38-4.29,1.35-.13.45,0,1.46.37,1.65.4.22.46,1.02.43,1.41h0Z"/>
            </g>
            <path class="st24" d="M109.05,178.78c.04-1.99.69-4.68,1.11-7.41.15-.97-.16-2.31-1.45-2.57-.47,0-1.03.19-1.03.19,3.02.51,1.01,2.99.5,9.16-.62.51-2.25.87-2.25.87-.33-1.77-.89-3.73-1.45-5.74-.31-1.12-.93-2.11-2.06-2.43-.45.07-1.07.52-1.07.52.25-.03.73.13,1.13.33.55.28.97.88,1.21,1.78.51,1.84,1.01,4.27,1.31,5.89.29,1.51-.85,2.98-2.39,2.95-1.03-.03-1.89-.63-1.89-.63l-.25,1.91c-.35,3.55,8.25,3.36,9.61-.65,0,0-.38-2.09-.25-3.54-.62,1.26-.81-.06-.8-.64h0Z"/>
          </g>
        </g>
      </g>
    </g>
  </g>
</svg>