<?xml version="1.0" encoding="UTF-8"?>
<svg id="Layer_1" xmlns="http://www.w3.org/2000/svg" xmlns:xlink="http://www.w3.org/1999/xlink" version="1.1" viewBox="0 0 300 300">
  <!-- Generator: Adobe Illustrator 29.1.0, SVG Export Plug-In . SVG Version: 2.1.0 Build 142)  -->
  <defs>
    <style>
      .st0 {
        fill: #e0e0e0;
      }

      .st1, .st2, .st3, .st4, .st5, .st6, .st7, .st8, .st9, .st10, .st11, .st12, .st13, .st14, .st15, .st16, .st17 {
        isolation: isolate;
      }

      .st1, .st7, .st16 {
        opacity: .1;
      }

      .st2, .st10, .st11, .st17 {
        opacity: .4;
      }

      .st3, .st5 {
        opacity: .6;
      }

      .st18 {
        fill: url(#linear-gradient2);
      }

      .st19 {
        fill: url(#linear-gradient7);
      }

      .st20 {
        fill: url(#linear-gradient4);
      }

      .st21 {
        fill: #27debf;
      }

      .st22 {
        fill: url(#linear-gradient);
      }

      .st23 {
        fill: #37474f;
      }

      .st4, .st5, .st24 {
        fill: #f47a20;
      }

      .st4, .st8, .st14, .st15 {
        opacity: .2;
      }

      .st25 {
        fill: #263238;
      }

      .st26 {
        fill: #f28f8f;
      }

      .st27, .st16, .st17 {
        fill: #fff;
      }

      .st28 {
        fill: #f0f0f0;
      }

      .st29, .st7, .st8, .st9 {
        fill: #ffca06;
      }

      .st30 {
        fill: #f5f5f5;
      }

      .st31 {
        fill: #ffa8a7;
      }

      .st6, .st32 {
        fill: #ffca00;
      }

      .st6, .st9 {
        opacity: .8;
      }

      .st10 {
        fill: url(#linear-gradient3);
      }

      .st11 {
        fill: url(#linear-gradient1);
      }

      .st12 {
        fill: url(#linear-gradient9);
      }

      .st12, .st13 {
        opacity: .3;
      }

      .st13 {
        fill: url(#linear-gradient6);
      }

      .st14 {
        fill: url(#linear-gradient5);
      }

      .st15 {
        fill: url(#linear-gradient8);
      }

      .st33 {
        fill: #455a64;
      }

      .st34 {
        fill: #9a4a4d;
      }
    </style>
    <linearGradient id="linear-gradient" x1="106.04" y1="32.1" x2="133.12" y2="32.1" gradientTransform="translate(0 302) scale(1 -1)" gradientUnits="userSpaceOnUse">
      <stop offset=".14" stop-color="#ffca06"/>
      <stop offset=".87" stop-color="#f47a20"/>
    </linearGradient>
    <linearGradient id="linear-gradient1" x1="106.04" y1="32.1" x2="133.12" y2="32.1" gradientTransform="translate(0 302) scale(1 -1)" gradientUnits="userSpaceOnUse">
      <stop offset=".14" stop-color="#ffca06"/>
      <stop offset=".87" stop-color="#f47a20"/>
    </linearGradient>
    <linearGradient id="linear-gradient2" x1="92.22" y1="65.62" x2="123.49" y2="65.62" gradientTransform="translate(0 302) scale(1 -1)" gradientUnits="userSpaceOnUse">
      <stop offset=".14" stop-color="#ffca06"/>
      <stop offset=".87" stop-color="#f47a20"/>
    </linearGradient>
    <linearGradient id="linear-gradient3" x1="92.22" y1="65.62" x2="123.49" y2="65.62" gradientTransform="translate(0 302) scale(1 -1)" gradientUnits="userSpaceOnUse">
      <stop offset=".14" stop-color="#ffca06"/>
      <stop offset=".87" stop-color="#f47a20"/>
    </linearGradient>
    <linearGradient id="linear-gradient4" x1="0" y1="114.94" x2="23.31" y2="114.94" gradientTransform="translate(0 302) scale(1 -1)" gradientUnits="userSpaceOnUse">
      <stop offset=".14" stop-color="#ffca06"/>
      <stop offset=".87" stop-color="#f47a20"/>
    </linearGradient>
    <linearGradient id="linear-gradient5" x1=".61" y1="124.5" x2="23.27" y2="124.5" gradientTransform="translate(0 302) scale(1 -1)" gradientUnits="userSpaceOnUse">
      <stop offset=".14" stop-color="#ffca06"/>
      <stop offset=".87" stop-color="#f47a20"/>
    </linearGradient>
    <linearGradient id="linear-gradient6" x1="0" y1="110.06" x2="7.52" y2="110.06" gradientTransform="translate(0 302) scale(1 -1)" gradientUnits="userSpaceOnUse">
      <stop offset=".14" stop-color="#ffca06"/>
      <stop offset=".87" stop-color="#f47a20"/>
    </linearGradient>
    <linearGradient id="linear-gradient7" x1="173.84" y1="215.25" x2="197.15" y2="215.25" gradientTransform="translate(0 302) scale(1 -1)" gradientUnits="userSpaceOnUse">
      <stop offset=".14" stop-color="#ffca06"/>
      <stop offset=".87" stop-color="#f47a20"/>
    </linearGradient>
    <linearGradient id="linear-gradient8" x1="174.45" y1="224.81" x2="197.11" y2="224.81" gradientTransform="translate(0 302) scale(1 -1)" gradientUnits="userSpaceOnUse">
      <stop offset=".14" stop-color="#ffca06"/>
      <stop offset=".87" stop-color="#f47a20"/>
    </linearGradient>
    <linearGradient id="linear-gradient9" x1="173.83" y1="210.37" x2="181.36" y2="210.37" gradientTransform="translate(0 302) scale(1 -1)" gradientUnits="userSpaceOnUse">
      <stop offset=".14" stop-color="#ffca06"/>
      <stop offset=".87" stop-color="#f47a20"/>
    </linearGradient>
  </defs>
  <g id="Color_Palette">
    <path class="st23" d="M225.65,264.74h0c0-.07-.02-.14-.05-.2l-9.57-20.62c-.2-.44-.98-.69-1.73-.58l-172.41,26.68c-.64.1-1.05.43-1.05.8h0v3.61h0c0,.08.02.14.05.21l9.57,20.62c.2.44.98.69,1.73.58l172.41-26.68c.65-.1,1.06-.44,1.05-.81h0v-3.6h0Z"/>
    <path class="st33" d="M41.89,270.02l172.41-26.68c.75-.12,1.53.14,1.73.58l9.57,20.62c.2.44-.25.89-1,1l-172.41,26.68c-.75.12-1.53-.14-1.73-.58l-9.57-20.62c-.2-.44.25-.89,1-1h0Z"/>
    <polygon class="st34" points="51.35 273.84 57.08 286.17 78.44 282.87 72.72 270.53 51.35 273.84"/>
    <g>
      <polygon class="st22" points="106.04 265.38 111.76 277.71 133.12 274.41 127.39 262.08 106.04 265.38"/>
      <polygon class="st11" points="106.04 265.38 111.76 277.71 133.12 274.41 127.39 262.08 106.04 265.38"/>
    </g>
    <g>
      <polygon class="st24" points="133.37 261.15 139.1 273.48 160.46 270.18 154.74 257.85 133.37 261.15"/>
      <polygon class="st5" points="133.37 261.15 139.1 273.48 160.46 270.18 154.74 257.85 133.37 261.15"/>
    </g>
    <g>
      <polygon class="st29" points="160.71 256.92 166.44 269.26 187.8 265.95 182.08 253.62 160.71 256.92"/>
      <polygon class="st9" points="160.71 256.92 166.44 269.26 187.8 265.95 182.08 253.62 160.71 256.92"/>
    </g>
    <g>
      <polygon class="st34" points="188.06 252.7 193.78 265.02 215.14 261.72 209.42 249.39 188.06 252.7"/>
      <polygon class="st27" points="188.06 252.7 193.78 265.02 215.14 261.72 209.42 249.39 188.06 252.7"/>
    </g>
    <g>
      <polygon class="st34" points="78.7 269.61 84.42 281.94 105.78 278.63 100.05 266.31 78.7 269.61"/>
      <polygon class="st24" points="78.7 269.61 84.42 281.94 105.78 278.63 100.05 266.31 78.7 269.61"/>
    </g>
    <path class="st25" d="M50.89,292.04v3.6c-.2-.1-.35-.24-.43-.4l-9.57-20.62c-.03-.06-.04-.13-.05-.19v-3.62c0,.07.02.14.05.2l9.57,20.62c.08.16.23.3.43.41Z"/>
    <path class="st23" d="M216.31,231.59h0c0-.14-.05-.28-.18-.4l-18.48-18.48c-.39-.39-1.25-.52-1.93-.3l-154.58,51.53c-.45.15-.69.42-.7.69h0v3.6h0c0,.15.05.28.18.42l18.48,18.48c.39.39,1.25.52,1.93.3l154.58-51.53c.45-.15.7-.42.7-.71h0v-3.61h0Z"/>
    <path class="st33" d="M41.12,263.94l154.58-51.53c.68-.22,1.54-.09,1.93.3l18.48,18.48c.39.39.16.89-.52,1.12l-154.58,51.53c-.68.22-1.54.09-1.93-.3l-18.48-18.48c-.39-.39-.16-.89.52-1.12Z"/>
    <polygon class="st21" points="51.97 266.22 63.04 277.27 82.18 270.89 71.13 259.83 51.97 266.22"/>
    <polygon class="st3" points="51.97 266.22 63.04 277.27 82.18 270.89 71.13 259.83 51.97 266.22"/>
    <polygon class="st21" points="101 249.88 112.06 260.93 131.21 254.54 120.16 243.49 101 249.88"/>
    <polygon class="st24" points="101 249.88 112.06 260.93 131.21 254.54 120.16 243.49 101 249.88"/>
    <polygon class="st21" points="125.51 241.7 136.58 252.76 155.72 246.38 144.67 235.32 125.51 241.7"/>
    <polygon class="st29" points="125.51 241.7 136.58 252.76 155.72 246.38 144.67 235.32 125.51 241.7"/>
    <g>
      <polygon class="st24" points="150.03 233.53 161.09 244.59 180.24 238.2 169.18 227.15 150.03 233.53"/>
      <polygon class="st24" points="150.03 233.53 161.09 244.59 180.24 238.2 169.18 227.15 150.03 233.53"/>
      <polygon class="st4" points="150.03 233.53 161.09 244.59 180.24 238.2 169.18 227.15 150.03 233.53"/>
    </g>
    <g>
      <polygon class="st29" points="174.54 225.37 185.6 236.41 204.75 230.03 193.69 218.98 174.54 225.37"/>
      <polygon class="st29" points="174.54 225.37 185.6 236.41 204.75 230.03 193.69 218.98 174.54 225.37"/>
      <polygon class="st7" points="174.54 225.37 185.6 236.41 204.75 230.03 193.69 218.98 174.54 225.37"/>
    </g>
    <polygon class="st21" points="76.49 258.05 87.55 269.1 106.7 262.71 95.64 251.66 76.49 258.05"/>
    <polygon class="st27" points="76.49 258.05 87.55 269.1 106.7 262.71 95.64 251.66 76.49 258.05"/>
    <path class="st25" d="M59.89,283.91v3.6c-.32-.06-.62-.18-.8-.37l-18.48-18.48c-.13-.13-.18-.27-.18-.41v-3.55c0,.12.07.24.18.35l18.48,18.48c.18.18.48.31.8.37Z"/>
    <path class="st23" d="M39.68,260.65v1.3c0,.64.45,1.42,1,1.73l26.15,15.09c.55.32,1.45.32,2,0l126.22-72.87c.55-.32,1-1.09,1-1.73v-1.3c0-.64-.45-1.42-1-1.73l-26.15-15.09c-.55-.32-1.45-.32-2,0l-126.22,72.87c-.55.32-1,1.09-1,1.73Z"/>
    <path class="st33" d="M40.68,258.92l126.22-72.87c.55-.32,1.45-.32,2,0l26.15,15.09c.55.32.55.84,0,1.15l-126.22,72.87c-.55.32-1.45.32-2,0l-26.15-15.09c-.55-.32-.55-.84,0-1.15Z"/>
    <path class="st25" d="M67.83,275.41v3.6c-.36,0-.72-.08-1-.24l-26.14-15.09c-.55-.32-1-1.1-1-1.73v-1.3c0-.56.34-1.22.8-1.59-.35.32-.28.74.2,1.02l26.14,15.09c.28.16.64.25,1,.25Z"/>
    <path class="st33" d="M40.68,258.92l126.22-72.87c.55-.32,1.45-.32,2,0l26.15,15.09c.55.32.55.84,0,1.15l-126.22,72.87c-.55.32-1.45.32-2,0l-26.15-15.09c-.55-.32-.55-.84,0-1.15Z"/>
    <polygon class="st24" points="52.19 259.49 67.83 268.52 83.46 259.49 67.83 250.46 52.19 259.49"/>
    <g>
      <polygon class="st18" points="92.22 236.38 107.85 245.41 123.49 236.37 107.86 227.35 92.22 236.38"/>
      <polygon class="st10" points="92.22 236.38 107.85 245.41 123.49 236.37 107.86 227.35 92.22 236.38"/>
    </g>
    <g>
      <polygon class="st24" points="112.23 224.83 127.87 233.85 143.51 224.82 127.88 215.8 112.23 224.83"/>
      <polygon class="st5" points="112.23 224.83 127.87 233.85 143.51 224.82 127.88 215.8 112.23 224.83"/>
    </g>
    <g>
      <polygon class="st32" points="132.25 213.27 147.89 222.29 163.52 213.26 147.89 204.24 132.25 213.27"/>
      <polygon class="st6" points="132.25 213.27 147.89 222.29 163.52 213.26 147.89 204.24 132.25 213.27"/>
    </g>
    <g>
      <polygon class="st21" points="152.27 201.71 167.9 210.74 183.54 201.71 167.9 192.68 152.27 201.71"/>
      <polygon class="st27" points="152.27 201.71 167.9 210.74 183.54 201.71 167.9 192.68 152.27 201.71"/>
    </g>
    <g>
      <polygon class="st29" points="72.21 247.94 87.84 256.96 103.48 247.93 87.84 238.91 72.21 247.94"/>
      <polygon class="st8" points="72.21 247.94 87.84 256.96 103.48 247.93 87.84 238.91 72.21 247.94"/>
    </g>
    <g>
      <path class="st25" d="M48.51,258.58c.88.51.88,1.32,0,1.83s-2.29.51-3.17,0-.88-1.32,0-1.83,2.29-.51,3.17,0Z"/>
      <path class="st0" d="M47.32,258.22c-2.26-5.24-7.47-8.91-13.51-8.91-8.11,0-14.7,6.59-14.7,14.7s6.59,14.7,14.7,14.7c2.9,0,5.61-.85,7.89-2.31l-.82-1.76c-.03-.06-.04-.13-.05-.19v-.24c-1.99,1.39-4.42,2.19-7.03,2.19-6.83,0-12.39-5.56-12.39-12.39s5.56-12.39,12.39-12.39c4.97,0,9.25,2.94,11.23,7.17.27.58.49,1.17.66,1.79.72.27,1.67.28,2.4,0-.19-.82-.46-1.61-.79-2.37Z"/>
    </g>
  </g>
  <g id="Colors">
    <g>
      <path class="st29" d="M23.3,114.43c0-1.32-.92-2.93-2.07-3.59l-1.69-.97c-1.14-.66-2.99-.66-4.14,0l-13.33,7.7c-.57.33-1.09.9-1.46,1.55-.37.65-.6,1.38-.6,2.03v15.4c0,1.32.92,2.93,2.07,3.59l1.69.97c.14.08.28.15.44.21.05.02.12.04.18.05.1.03.2.07.3.09.08.02.16.03.25.05s.17.03.26.05c.1.02.2.02.3.03.07,0,.14,0,.22.02h.34c.05,0,.11,0,.16,0,.13,0,.25-.02.38-.04.04,0,.07-.02.11-.02.14-.02.27-.05.4-.09.02,0,.04,0,.05-.02.28-.08.54-.18.77-.31l13.33-7.7c1.14-.66,2.07-2.26,2.07-3.59v-15.4h-.02Z"/>
      <path class="st17" d="M23.27,114.09c-.15-1.06-1.01-1.45-2.04-.85l-13.34,7.7c-.58.33-1.09.9-1.46,1.55l-5.83-3.36c.38-.65.89-1.22,1.46-1.55l13.33-7.7c1.15-.66,3-.66,4.14,0l1.69.97c1.04.6,1.9,1.99,2.04,3.23h0Z"/>
      <path class="st1" d="M7.52,141.29s-.08.03-.13.05c-.1.03-.2.07-.3.09-.25.08-.53.14-.81.16h-.04c-.14.02-.27.02-.42.02-.75,0-1.5-.16-2.07-.49l-1.68-.97c-1.14-.66-2.07-2.27-2.07-3.59v-15.4c0-.42.09-.85.25-1.29.07-.18.14-.35.22-.51.05-.08.08-.17.14-.25l5.83,3.36c-.38.65-.61,1.38-.61,2.04v15.4c0,1,.53,1.55,1.29,1.46.05,0,.08-.02.13-.02.09-.02.18-.05.28-.08h-.02Z"/>
    </g>
    <g>
      <path class="st24" d="M23.3,145.22c0-1.32-.92-2.93-2.07-3.59l-1.69-.97c-1.14-.66-2.99-.66-4.14,0l-13.33,7.7c-.57.33-1.09.9-1.46,1.55-.37.65-.6,1.38-.6,2.03v15.4c0,1.32.92,2.93,2.07,3.59l1.69.97c.14.08.28.15.44.21.05.02.12.04.18.05.1.03.2.07.3.09.08.02.16.03.25.05s.17.03.26.05c.1.02.2.02.3.03.07,0,.14,0,.22.02h.34c.05,0,.11,0,.16,0,.13,0,.25-.02.38-.04.04,0,.07-.02.11-.02.14-.02.27-.05.4-.09.02,0,.04,0,.05-.02.28-.08.54-.18.77-.31l13.33-7.7c1.14-.66,2.07-2.26,2.07-3.59v-15.4h-.02Z"/>
      <path class="st17" d="M23.27,144.87c-.15-1.06-1.01-1.45-2.04-.85l-13.34,7.7c-.58.33-1.09.9-1.46,1.55l-5.83-3.36c.38-.65.89-1.22,1.46-1.55l13.33-7.7c1.15-.66,3-.66,4.14,0l1.69.97c1.04.6,1.9,1.99,2.04,3.23h0Z"/>
      <path class="st1" d="M7.52,172.07s-.08.03-.13.05c-.1.03-.2.07-.3.09-.25.08-.53.14-.81.16h-.04c-.14.02-.27.02-.42.02-.75,0-1.5-.16-2.07-.49l-1.68-.97c-1.14-.66-2.07-2.27-2.07-3.59v-15.4c0-.42.09-.85.25-1.29.07-.18.14-.35.22-.51.05-.08.08-.17.14-.25l5.83,3.36c-.38.65-.61,1.38-.61,2.04v15.4c0,1,.53,1.55,1.29,1.46.05,0,.08-.02.13-.02.09-.02.18-.05.28-.08h-.02Z"/>
    </g>
    <g>
      <path class="st20" d="M23.3,176c0-1.32-.92-2.93-2.07-3.59l-1.69-.97c-1.14-.66-2.99-.66-4.14,0l-13.33,7.7c-.57.33-1.09.9-1.46,1.55-.37.65-.6,1.38-.6,2.03v15.4c0,1.32.92,2.93,2.07,3.59l1.69.97c.14.08.28.15.44.21.05.02.12.04.18.05.1.03.2.07.3.09.08.02.16.03.25.05s.17.03.26.05c.1.02.2.02.3.03.07,0,.14,0,.22.02h.34c.05,0,.11,0,.16,0,.13,0,.25-.02.38-.04.04,0,.07-.02.11-.02.14-.02.27-.05.4-.09.02,0,.04,0,.05-.02.28-.08.54-.18.77-.31l13.33-7.7c1.14-.66,2.07-2.26,2.07-3.59v-15.4h-.02Z"/>
      <path class="st14" d="M23.27,175.65c-.15-1.06-1.01-1.45-2.04-.85l-13.34,7.7c-.58.33-1.09.9-1.46,1.55l-5.83-3.36c.38-.65.89-1.22,1.46-1.55l13.33-7.7c1.15-.66,3-.66,4.14,0l1.69.97c1.04.6,1.9,1.99,2.04,3.23h0Z"/>
      <path class="st13" d="M7.52,202.86s-.08.03-.13.05c-.1.03-.2.07-.3.09-.25.08-.53.14-.81.16h-.04c-.14.02-.27.02-.42.02-.75,0-1.5-.16-2.07-.49l-1.68-.97c-1.14-.66-2.07-2.27-2.07-3.59v-15.4c0-.42.09-.85.25-1.29.07-.18.14-.35.22-.51.05-.08.08-.17.14-.25l5.83,3.36c-.38.65-.61,1.38-.61,2.04v15.4c0,1,.53,1.55,1.29,1.46.05,0,.08-.02.13-.02.09-.02.18-.05.28-.08h-.02Z"/>
    </g>
    <g>
      <path class="st30" d="M197.14,14.13c0-1.32-.92-2.93-2.07-3.59l-1.69-.97c-1.14-.66-2.99-.66-4.14,0l-13.33,7.7c-.57.33-1.09.9-1.46,1.55-.37.65-.6,1.38-.6,2.03v15.4c0,1.32.92,2.93,2.07,3.59l1.69.97c.14.08.28.15.44.21.05.02.12.04.18.05.1.03.2.07.3.09.08.02.16.03.25.05.08.02.17.03.26.05.1.02.2.02.3.03.07,0,.14,0,.22.02h.34c.05,0,.11,0,.16,0,.13,0,.25-.02.38-.04.04,0,.07-.02.11-.02.14-.02.27-.05.4-.09.02,0,.04,0,.05-.02.28-.08.54-.18.77-.31l13.33-7.7c1.14-.66,2.07-2.26,2.07-3.59v-15.4h-.02Z"/>
      <path class="st17" d="M197.11,13.77c-.15-1.06-1.01-1.45-2.04-.85l-13.34,7.7c-.58.33-1.09.9-1.46,1.55l-5.83-3.36c.38-.65.89-1.22,1.46-1.55l13.33-7.7c1.15-.66,3-.66,4.14,0l1.69.97c1.04.6,1.9,1.99,2.04,3.23h0Z"/>
      <path class="st1" d="M181.36,40.98s-.08.03-.13.05c-.1.03-.2.07-.3.09-.25.08-.53.14-.81.16h-.04c-.14.02-.27.02-.42.02-.75,0-1.5-.16-2.07-.49l-1.68-.97c-1.14-.66-2.07-2.27-2.07-3.59v-15.4c0-.42.09-.85.25-1.29.07-.18.14-.35.22-.51.05-.08.08-.17.14-.25l5.83,3.36c-.38.65-.61,1.38-.61,2.04v15.4c0,1,.53,1.55,1.29,1.46.05,0,.08-.02.13-.02.09-.02.18-.05.28-.08h-.02Z"/>
    </g>
    <g>
      <path class="st0" d="M197.14,44.91c0-1.32-.92-2.93-2.07-3.59l-1.69-.97c-1.14-.66-2.99-.66-4.14,0l-13.33,7.7c-.57.33-1.09.9-1.46,1.55-.37.65-.6,1.38-.6,2.03v15.4c0,1.32.92,2.93,2.07,3.59l1.69.97c.14.08.28.15.44.21.05.02.12.04.18.05.1.03.2.07.3.09.08.02.16.03.25.05.08.02.17.03.26.05.1.02.2.02.3.03.07,0,.14,0,.22.02h.34c.05,0,.11,0,.16,0,.13,0,.25-.02.38-.04.04,0,.07-.02.11-.02.14-.02.27-.05.4-.09.02,0,.04,0,.05-.02.28-.08.54-.18.77-.31l13.33-7.7c1.14-.66,2.07-2.26,2.07-3.59v-15.4h-.02Z"/>
      <path class="st17" d="M197.11,44.56c-.15-1.06-1.01-1.45-2.04-.85l-13.34,7.7c-.58.33-1.09.9-1.46,1.55l-5.83-3.36c.38-.65.89-1.22,1.46-1.55l13.33-7.7c1.15-.66,3-.66,4.14,0l1.69.97c1.04.6,1.9,1.99,2.04,3.23h0Z"/>
      <path class="st1" d="M181.36,71.77s-.08.03-.13.05c-.1.03-.2.07-.3.09-.25.08-.53.14-.81.16h-.04c-.14.02-.27.02-.42.02-.75,0-1.5-.16-2.07-.49l-1.68-.97c-1.14-.66-2.07-2.27-2.07-3.59v-15.4c0-.42.09-.85.25-1.29.07-.18.14-.35.22-.51.05-.08.08-.17.14-.25l5.83,3.36c-.38.65-.61,1.38-.61,2.04v15.4c0,1,.53,1.55,1.29,1.46.05,0,.08-.02.13-.02.09-.02.18-.05.28-.08h-.02Z"/>
    </g>
    <g>
      <path class="st19" d="M197.14,75.69c0-1.32-.92-2.93-2.07-3.59l-1.69-.97c-1.14-.66-2.99-.66-4.14,0l-13.33,7.7c-.57.33-1.09.9-1.46,1.55-.37.65-.6,1.38-.6,2.03v15.4c0,1.32.92,2.93,2.07,3.59l1.69.97c.14.08.28.15.44.21.05.02.12.04.18.05.1.03.2.07.3.09.08.02.16.03.25.05.08.02.17.03.26.05.1.02.2.02.3.03.07,0,.14,0,.22.02h.34c.05,0,.11,0,.16,0,.13,0,.25-.02.38-.04.04,0,.07-.02.11-.02.14-.02.27-.05.4-.09.02,0,.04,0,.05-.02.28-.08.54-.18.77-.31l13.33-7.7c1.14-.66,2.07-2.26,2.07-3.59v-15.4h-.02Z"/>
      <path class="st15" d="M197.11,75.35c-.15-1.06-1.01-1.45-2.04-.85l-13.34,7.7c-.58.33-1.09.9-1.46,1.55l-5.83-3.36c.38-.65.89-1.22,1.46-1.55l13.33-7.7c1.15-.66,3-.66,4.14,0l1.69.97c1.04.6,1.9,1.99,2.04,3.23h0Z"/>
      <path class="st12" d="M181.36,102.55s-.08.03-.13.05c-.1.03-.2.07-.3.09-.25.08-.53.14-.81.16h-.04c-.14.02-.27.02-.42.02-.75,0-1.5-.16-2.07-.49l-1.68-.97c-1.14-.66-2.07-2.27-2.07-3.59v-15.4c0-.42.09-.85.25-1.29.07-.18.14-.35.22-.51.05-.08.08-.17.14-.25l5.83,3.36c-.38.65-.61,1.38-.61,2.04v15.4c0,1,.53,1.55,1.29,1.46.05,0,.08-.02.13-.02.09-.02.18-.05.28-.08h-.02Z"/>
    </g>
    <g>
      <path class="st25" d="M197.14,106.48c0-1.32-.92-2.93-2.07-3.59l-1.69-.97c-1.14-.66-2.99-.66-4.14,0l-13.33,7.7c-.57.33-1.09.9-1.46,1.55-.37.65-.6,1.38-.6,2.03v15.4c0,1.32.92,2.93,2.07,3.59l1.69.97c.14.08.28.15.44.21.05.02.12.04.18.05.1.03.2.07.3.09.08.02.16.03.25.05.08.02.17.03.26.05.1.02.2.02.3.03.07,0,.14,0,.22.02h.34c.05,0,.11,0,.16,0,.13,0,.25-.02.38-.04.04,0,.07-.02.11-.02.14-.02.27-.05.4-.09.02,0,.04,0,.05-.02.28-.08.54-.18.77-.31l13.33-7.7c1.14-.66,2.07-2.26,2.07-3.59v-15.4h-.02Z"/>
      <path class="st16" d="M197.11,106.13c-.15-1.06-1.01-1.45-2.04-.85l-13.34,7.7c-.58.33-1.09.9-1.46,1.55l-5.83-3.36c.38-.65.89-1.22,1.46-1.55l13.33-7.7c1.15-.66,3-.66,4.14,0l1.69.97c1.04.6,1.9,1.99,2.04,3.23h0Z"/>
      <path class="st2" d="M181.36,133.33s-.08.03-.13.05c-.1.03-.2.07-.3.09-.25.08-.53.14-.81.16h-.04c-.14.02-.27.02-.42.02-.75,0-1.5-.16-2.07-.49l-1.68-.97c-1.14-.66-2.07-2.27-2.07-3.59v-15.4c0-.42.09-.85.25-1.29.07-.18.14-.35.22-.51.05-.08.08-.17.14-.25l5.83,3.36c-.38.65-.61,1.38-.61,2.04v15.4c0,1,.53,1.55,1.29,1.46.05,0,.08-.02.13-.02.09-.02.18-.05.28-.08h-.02Z"/>
    </g>
    <g>
      <path class="st25" d="M24.68,208.1c0-1.32-.92-2.93-2.07-3.59l-1.69-.97c-1.14-.66-2.99-.66-4.14,0l-13.33,7.7c-.57.33-1.09.9-1.46,1.55-.37.65-.6,1.38-.6,2.03v15.4c0,1.32.92,2.93,2.07,3.59l1.69.97c.14.08.28.15.44.21.05.02.12.04.18.05.1.03.2.07.3.09.08.02.16.03.25.05s.17.03.26.05c.1.02.2.02.3.03.07,0,.14,0,.22.02h.34c.05,0,.11,0,.16,0,.13,0,.25-.02.38-.04.04,0,.07-.02.11-.02.14-.02.27-.05.4-.09.02,0,.04,0,.05-.02.28-.08.54-.18.77-.31l13.33-7.7c1.14-.66,2.07-2.26,2.07-3.59v-15.4h-.02Z"/>
      <path class="st16" d="M24.66,207.75c-.15-1.06-1.01-1.45-2.04-.85l-13.34,7.7c-.58.33-1.09.9-1.46,1.55l-5.83-3.36c.38-.65.89-1.22,1.46-1.55l13.33-7.7c1.15-.66,3-.66,4.14,0l1.69.97c1.04.6,1.9,1.99,2.04,3.23h0Z"/>
      <path class="st2" d="M8.91,234.96s-.08.03-.13.05c-.1.03-.2.07-.3.09-.25.08-.53.14-.81.16h-.04c-.14.02-.27.02-.42.02-.75,0-1.5-.16-2.07-.49l-1.68-.97c-1.14-.66-2.07-2.27-2.07-3.59v-15.4c0-.42.09-.85.25-1.29.07-.18.14-.35.22-.51.05-.08.08-.17.14-.25l5.83,3.36c-.38.65-.61,1.38-.61,2.04v15.4c0,1,.53,1.55,1.29,1.46.05,0,.08-.02.13-.02.09-.02.18-.05.28-.08h-.02Z"/>
    </g>
  </g>
  <g id="Types">
    <g id="Type_slab">
      <g>
        <path class="st30" d="M109.72,175.81l-6.18-3.57c-1.27-.73-2.3-2.52-2.3-3.98v-51.95c0-1.46,1.03-3.25,2.3-3.98l44.99-25.98c1.27-.73,3.33-.73,4.6,0l6.18,3.57c1.27.73,2.3,2.52,2.3,3.98v51.95c0,1.46-1.03,3.25-2.3,3.98l-44.99,25.98c-1.27.73-3.33.73-4.6,0Z"/>
        <path class="st28" d="M114.32,118.55l44.99-25.98c1.27-.73,2.3-.14,2.3,1.32v51.95c0,1.46-1.03,3.25-2.3,3.98l-44.99,25.98c-1.27.73-2.3.14-2.3-1.32v-51.95c0-1.46,1.03-3.25,2.29-3.98h0Z"/>
        <path class="st0" d="M114.03,175.96c-1.27.58-3.13.53-4.3-.15l-6.18-3.57c-1.27-.73-2.3-2.51-2.3-3.98v-51.95c0-.73.26-1.55.68-2.26l10.78,6.22c-.42.72-.68,1.53-.68,2.26v51.95c0,1.35.88,1.96,2.01,1.48Z"/>
      </g>
      <g>
        <path class="st23" d="M125.83,129.25l-1.95,1.12v-3.84l6.23-3.6,6.97,20.38,1.71-.99v3.93l-6.83,3.94v-3.93l2.21-1.28c-.47-1.19-.82-2.48-1.19-3.49l-9.09,5.25c-.32,1.35-.79,3.13-1.21,4.87l2.12-1.23v3.93l-6.81,3.93v-3.93l1.71-.99,6.12-24.09h0ZM131.88,138.34c-.92-2.83-1.84-5.86-3.33-10.33-1.58,6.41-2.66,10.52-3.57,14.32l6.91-3.99h0Z"/>
        <path class="st23" d="M155.63,132.96v3.56l-4.33,2.5c0,.52-.32-3.09-.32-2.53-1.02,3.1-2.84,4.87-4.5,5.87-3.83,2.22-6.73-.04-6.73-6.67s2.99-12.13,6.78-14.31c1.84-1.06,3.55-.88,4.52.83l.02-3.09,4.47-2.58v3.64l-1.95,1.12v12.83l2.02-1.17h0ZM142.34,134.37c0,4.05,1.86,5.68,4.28,4.28,2.79-1.61,4.41-5.58,4.52-9.08.11-3.86-1.47-6.11-4.52-4.35-2.39,1.38-4.28,5.14-4.28,9.15h0Z"/>
      </g>
    </g>
    <g id="Type_script">
      <g>
        <path class="st30" d="M109.72,110.48l-6.18-3.57c-1.27-.73-2.3-2.52-2.3-3.98v-51.95c0-1.46,1.03-3.25,2.3-3.98l44.99-25.98c1.27-.73,3.33-.73,4.6,0l6.18,3.57c1.27.73,2.3,2.52,2.3,3.98v51.95c0,1.46-1.03,3.25-2.3,3.98l-44.99,25.98c-1.27.73-3.33.73-4.6,0h0Z"/>
        <path class="st28" d="M114.32,53.22l44.99-25.98c1.27-.73,2.3-.14,2.3,1.32v51.95c0,1.46-1.03,3.25-2.3,3.98l-44.99,25.98c-1.27.73-2.3.14-2.3-1.32v-51.95c0-1.46,1.03-3.25,2.29-3.98h0Z"/>
        <path class="st0" d="M114.03,110.62c-1.27.58-3.13.53-4.3-.15l-6.18-3.57c-1.27-.73-2.3-2.51-2.3-3.98v-51.95c0-.73.26-1.55.68-2.26l10.78,6.22c-.42.72-.68,1.53-.68,2.26v51.95c0,1.35.88,1.96,2.01,1.48Z"/>
      </g>
      <g>
        <path class="st24" d="M135.88,73.4l3.27-1.92c.6-.35.9.02.9.63s-.22.98-.22.98l-3.55,2.05,1.42,6.48c.25,1.16-.58,2.68-1.1,2.98-.7.4-1.02.05-1.02.05l-1.77-8.09-6.37,3.68-1.25,5.95c-.68,3.2-2.15,7.74-5.04,9.41-1.95,1.12-3.15.2-3.15-2.72,0-6.65,4.3-11.63,7.84-13.68l3.65-17.95c.15-.78.32-1.46.52-1.96l-.72-3.31c-.25-1.12.62-2.47,1.15-2.78.7-.4,1.02-.05,1.02-.05l4.42,20.25h0ZM124.4,86.29l.97-4.83c-3.7,2.13-5.97,6.37-5.97,10.71,0,1.89.75,2.37,1.75,1.8,1.77-1.02,2.77-5.4,3.25-7.68h0ZM127.92,77.99l5.5-3.17-2.45-13.12-3.05,16.29Z"/>
        <path class="st24" d="M155.19,61.91c.2-.12.45.12.45,1.78,0,4.27-1.25,7.91-3.47,9.19-1.72.99-2.83.4-3.35-1.49-.6,2.35-1.72,4.42-3.17,5.25-2.75,1.59-4.37-.02-4.37-6.28s2.19-9.95,4.97-11.56c1.27-.73,2.02-.71,2.45-.3.22-.9.68-1.5,1.15-1.78.7-.4.95,0,.95,0v11.03c0,3,.68,4.03,1.67,3.46,1.37-.79,2.35-3.32,2.35-8.85,0,0,.02-.25.38-.45h.02ZM148.52,68.29v-5.27c0-2.54-1.02-3.45-2.05-2.86-1.65.95-2.83,2.4-2.83,8.82s1.07,6.68,2.29,5.97c.85-.49,2.57-3.26,2.57-6.67h0Z"/>
      </g>
    </g>
    <g id="Type_sans">
      <g>
        <path class="st30" d="M44.04,213.72l-6.18-3.57c-1.27-.73-2.3-2.52-2.3-3.98v-51.95c0-1.46,1.03-3.25,2.3-3.98l44.99-25.98c1.27-.73,3.33-.73,4.6,0l6.18,3.57c1.27.73,2.3,2.52,2.3,3.98v51.95c0,1.46-1.03,3.25-2.3,3.98l-44.99,25.98c-1.27.73-3.33.73-4.6,0h0Z"/>
        <path class="st28" d="M48.64,156.47l44.99-25.98c1.27-.73,2.3-.14,2.3,1.32v51.95c0,1.46-1.03,3.25-2.3,3.98l-44.99,25.98c-1.27.73-2.3.14-2.3-1.32v-51.95c0-1.46,1.03-3.25,2.29-3.98h0Z"/>
        <path class="st0" d="M48.35,213.87c-1.27.58-3.13.53-4.3-.15l-6.18-3.57c-1.27-.73-2.3-2.51-2.3-3.98v-51.95c0-.73.26-1.55.68-2.26l10.78,6.22c-.42.72-.68,1.53-.68,2.26v51.95c0,1.35.88,1.96,2.01,1.48h0Z"/>
      </g>
      <g>
        <path class="st23" d="M68.5,182.06l-10.92,6.31-1.83,7.64-3.42,1.97,9-37.48,3.42-1.97,9,27.08-3.42,1.97-1.83-5.52h0ZM67.31,178.47l-4.27-12.85-4.27,17.78,8.55-4.93Z"/>
        <path class="st23" d="M89.95,161.55v14.7l-2.96,1.71v-3.33c-1.16,3.21-3.33,5.82-5.25,6.93-3.36,1.94-5.83.36-5.83-4.39s2.84-9.72,6.32-11.73c1.56-.9,3.23-1.35,4.76-1.43v-.75c0-3.06-.92-5.77-4.06-3.95-1.56.9-3.08,2.72-4.46,4.6l-1.1-2.79c2.26-3.04,4.24-4.9,5.98-5.9,4.24-2.45,6.59.33,6.59,6.34h0ZM87,170.35v-3.24c-1.29.13-2.75.65-4.3,1.55-2.11,1.22-3.87,4.07-3.87,6.71s1.52,3.35,3.51,2.2c1.96-1.12,4.15-3.9,4.67-7.21h0Z"/>
      </g>
    </g>
    <g id="Type_serif">
      <g>
        <path class="st30" d="M44.04,148.38l-6.18-3.57c-1.27-.73-2.3-2.52-2.3-3.98v-51.95c0-1.46,1.03-3.25,2.3-3.98l44.99-25.98c1.27-.73,3.33-.73,4.6,0l6.18,3.57c1.27.73,2.3,2.52,2.3,3.98v51.95c0,1.46-1.03,3.25-2.3,3.98l-44.99,25.98c-1.27.73-3.33.73-4.6,0Z"/>
        <path class="st28" d="M48.64,91.13l44.99-25.98c1.27-.73,2.3-.14,2.3,1.32v51.95c0,1.46-1.03,3.25-2.3,3.98l-44.99,25.98c-1.27.73-2.3.14-2.3-1.32v-51.95c0-1.46,1.03-3.25,2.29-3.98h0Z"/>
        <path class="st0" d="M48.35,148.54c-1.27.58-3.13.53-4.3-.15l-6.18-3.57c-1.27-.73-2.3-2.51-2.3-3.98v-51.95c0-.73.26-1.55.68-2.26l10.78,6.22c-.42.72-.68,1.53-.68,2.26v51.95c0,1.35.88,1.96,2.01,1.48Z"/>
      </g>
      <g>
        <path class="st23" d="M66.96,111.98l-8.35,4.82-1.46,6.08c-.36,1.49-.54,2.56-.54,3.2,0,.51.15.86.47,1.06.32.2.99.06,2.02-.42v.91l-6.78,3.92v-.91c.9-.76,1.49-1.42,1.75-1.96.54-1.09,1.14-3.03,1.79-5.8l7.58-31.68.55-.32,7.5,23.27c.6,1.87,1.15,2.99,1.65,3.37s1.18.35,2.06-.08v.91l-8.5,4.91v-.91c.85-.56,1.44-1.12,1.74-1.66s.45-1.09.45-1.63c0-.72-.22-1.73-.64-3.03l-1.3-4.02v-.02ZM66.52,110.42l-3.66-11.29-3.75,15.57,7.41-4.27h0Z"/>
        <path class="st23" d="M84.83,109.54c-1.49,2.64-2.43,4.21-2.81,4.7-.57.74-1.18,1.29-1.82,1.67-1.01.58-1.83.53-2.49-.15-.65-.69-.98-1.89-.98-3.62,0-1.09.16-2.13.48-3.11.43-1.36,1.19-2.84,2.26-4.44,1.08-1.6,2.86-3.82,5.37-6.67v-.88c0-2.23-.23-3.63-.69-4.2-.46-.57-1.13-.59-2.01-.08-.67.38-1.2.97-1.59,1.75-.4.79-.6,1.54-.6,2.26l.03,1.4c0,.75-.12,1.4-.38,1.96-.25.55-.58.95-.98,1.18-.39.22-.72.2-.96-.08-.25-.28-.38-.79-.38-1.52,0-1.4.47-2.96,1.4-4.67.93-1.71,2.24-3.06,3.93-4.03,1.29-.75,2.35-1.02,3.18-.83.62.15,1.09.67,1.39,1.58.19.59.28,1.97.28,4.14v7.61c0,2.14.02,3.43.08,3.88.05.45.14.72.26.82s.26.09.42,0c.17-.1.32-.24.45-.43.22-.34.65-1.19,1.29-2.53v1.37c-1.19,3.13-2.32,5.01-3.4,5.64-.52.3-.93.26-1.24-.12-.31-.38-.47-1.23-.48-2.56h0ZM84.83,107.94v-8.54c-1.6,1.9-2.63,3.2-3.09,3.86-.84,1.2-1.43,2.29-1.79,3.29-.36.99-.54,1.95-.54,2.88,0,1.18.23,2.02.69,2.53s.98.6,1.57.25c.81-.46,1.86-1.89,3.18-4.28h0Z"/>
      </g>
    </g>
  </g>
  <g id="Light_Bulb">
    <g>
      <g>
        <path class="st23" d="M273.8,43.79c0,1.32-1.07,2.38-2.38,2.38s-2.38-1.07-2.38-2.38,1.07-2.38,2.38-2.38,2.38,1.07,2.38,2.38Z"/>
        <path class="st33" d="M268.56,43.94c-1.58-.91-1.58-2.39,0-3.3,1.58-.91,4.13-.91,5.71,0s1.58,2.39,0,3.3-4.13.91-5.71,0Z"/>
        <path class="st23" d="M268.47,43.08c-1.62-.94-1.62-2.46,0-3.4,1.62-.94,4.27-.94,5.89,0s1.62,2.46,0,3.4c-1.62.94-4.27.94-5.89,0Z"/>
        <path class="st33" d="M268.38,42.19c-1.68-.97-1.68-2.53,0-3.5s4.4-.97,6.07,0,1.68,2.53,0,3.5-4.4.97-6.07,0Z"/>
        <path class="st23" d="M268.29,41.28c-1.72-1-1.72-2.62,0-3.61,1.72-1,4.53-1,6.25,0s1.72,2.62,0,3.61c-1.72,1-4.53,1-6.25,0Z"/>
        <path class="st33" d="M268.23,40.32c-1.76-1.02-1.76-2.66,0-3.69,1.76-1.02,4.62-1.02,6.38,0s1.76,2.66,0,3.69c-1.76,1.02-4.62,1.02-6.38,0Z"/>
        <path class="st29" d="M271.41,12.59c-6.27,0-11.35,5.08-11.35,11.35,0,9.01,7.43,10.5,7.43,14.14,0,.58.38,1.15,1.15,1.6,1.53.89,4,.89,5.54,0,.76-.44,1.15-1.02,1.15-1.6h0c0-3.63,7.43-5.13,7.43-14.14,0-6.27-5.08-11.35-11.35-11.35h0Z"/>
        <path class="st1" d="M269.34,39.17c-1.15-.66-1.15-1.74,0-2.4s3.01-.66,4.17,0c1.15.66,1.15,1.74,0,2.4s-3.01.66-4.17,0Z"/>
      </g>
      <path class="st27" d="M272.93,37.68c-.21,0-.38-.17-.38-.38,0-.12-.05-3.03.79-6.48.16-.67.35-1.27.56-1.8-.32-.12-.65-.27-.99-.48-.61-.38-1.11-.81-1.5-1.26-.4.45-.9.89-1.5,1.26-.34.21-.67.37-.99.48.21.53.4,1.13.56,1.8.85,3.45.8,6.36.79,6.48,0,.22-.17.36-.39.38-.22,0-.38-.18-.38-.39,0-.03.05-2.94-.77-6.28-.18-.71-.37-1.31-.58-1.79-.94.13-1.7-.15-2.15-.63-.45-.48-.51-1.12-.16-1.59.26-.35.64-.52,1.05-.44.61.12,1.2.75,1.71,1.76.28-.09.59-.23.89-.43.61-.38,1.09-.81,1.44-1.24-.52-.81-.72-1.61-.56-2.16.14-.48.52-.76,1.03-.76s.9.28,1.03.76c.15.55-.04,1.35-.56,2.16.35.43.83.86,1.44,1.24.32.19.61.33.89.43.51-1.02,1.1-1.64,1.71-1.76.41-.08.79.08,1.05.44.35.47.28,1.11-.16,1.59-.45.48-1.21.76-2.15.63-.2.49-.4,1.09-.58,1.79-.82,3.35-.77,6.25-.77,6.28,0,.22-.16.38-.38.39h0,0ZM266.7,27.31c-.07,0-.14.03-.22.15-.18.25.04.53.11.61.25.27.69.44,1.23.41-.41-.75-.81-1.11-1.06-1.16h-.05ZM275.01,28.47c.55.03.99-.15,1.23-.41.07-.08.29-.35.11-.61-.11-.15-.2-.15-.28-.14-.25.05-.65.41-1.06,1.16h0ZM271.41,24.5c-.19,0-.26.08-.29.21-.08.28.02.75.29,1.26.28-.52.38-.98.29-1.26-.04-.12-.1-.21-.29-.21Z"/>
      <path class="st29" d="M271.41,10.11c-.42,0-.77-.35-.77-.77v-4.43c0-.42.35-.77.77-.77s.77.35.77.77v4.43c0,.42-.35.77-.77.77Z"/>
      <path class="st29" d="M264.42,11.98c-.37.22-.84.08-1.05-.28l-2.22-3.84c-.22-.37-.08-.84.28-1.05.37-.22.84-.08,1.05.28l2.22,3.84c.22.37.08.84-.28,1.05Z"/>
      <path class="st29" d="M259.3,17.1c-.22.37-.69.49-1.05.28l-3.84-2.22c-.37-.22-.49-.69-.28-1.05.22-.37.69-.49,1.05-.28l3.84,2.22c.37.22.49.69.28,1.05Z"/>
      <path class="st29" d="M257.42,24.11c0,.42-.35.77-.77.77h-4.43c-.42,0-.77-.35-.77-.77s.35-.77.77-.77h4.43c.42,0,.77.35.77.77Z"/>
      <path class="st29" d="M259.3,31.11c.22.37.08.84-.28,1.05l-3.84,2.22c-.37.22-.84.08-1.05-.28s-.08-.84.28-1.05l3.84-2.22c.37-.22.84-.08,1.05.28Z"/>
      <path class="st29" d="M283.54,31.11c.22-.37.69-.49,1.05-.28l3.84,2.22c.37.22.49.69.28,1.05-.22.37-.69.49-1.05.28l-3.84-2.22c-.37-.22-.49-.69-.28-1.05Z"/>
      <path class="st29" d="M285.41,24.11c0-.42.35-.77.77-.77h4.43c.42,0,.77.35.77.77s-.35.77-.77.77h-4.43c-.42,0-.77-.35-.77-.77Z"/>
      <path class="st29" d="M283.54,17.1c-.22-.37-.08-.84.28-1.05l3.84-2.22c.37-.22.84-.08,1.05.28s.08.84-.28,1.05l-3.84,2.22c-.37.22-.84.08-1.05-.28Z"/>
      <path class="st29" d="M278.41,11.98c-.37-.22-.49-.69-.28-1.05l2.22-3.84c.22-.37.69-.49,1.05-.28s.49.69.28,1.05l-2.22,3.84c-.22.37-.69.49-1.05.28Z"/>
    </g>
  </g>
  <g id="Character">
    <g id="Character1">
      <path class="st25" d="M286.16,95.96h-27.25v-26.58c0-6.91,5.6-12.51,12.51-12.51h2.22c6.91,0,12.51,5.6,12.51,12.51v26.58h0Z"/>
      <g>
        <path class="st25" d="M280.68,218.11v-.88c-.35,1.03-1.95,5.45-4.38,7.67-1.93,1.76-4.57,3.8-5.24,5.77-.7,2.04,3.66,2.73,5.47,2.41,2.09-.37,4.81-1.56,6.29-3.38,1.04-1.28,1.7-2.79,2.44-3.8.74-1,2.45-2.12,2.85-3.29.22-.64-.04-2.03-.35-3.22-.28-1.09-.59-2.27-.96-2.17v.67c-.45.49-1.68.99-3.06,1.03-.89.03-3.07-.15-3.06-.82h0Z"/>
        <path class="st31" d="M274.56,226.46c.6-.53,1.2-1.05,1.75-1.56,1.7-1.55,2.99-4.17,3.73-5.97.42-1.02.64-2.12.64-3.23v-3.5h6.13v5.68h0v.15l-.03.02c-.29,1.27-3.1,4.66-4.7,6.87-1.07,1.48-3.1,3.36-5.54,3.69-2.3.31-3.48-.42-1.99-2.16h0Z"/>
        <path class="st25" d="M256.79,212.08v-.88c-.35,1.03-1.95,5.45-4.38,7.67-1.93,1.76-4.57,3.8-5.24,5.77-.7,2.04,3.66,2.73,5.47,2.41,2.09-.37,4.81-1.56,6.29-3.38,1.04-1.28,1.7-2.79,2.44-3.8.74-1,2.45-2.12,2.85-3.29.22-.64-.04-2.03-.35-3.22-.28-1.09-.59-2.27-.96-2.17v.67c-.45.49-1.68.99-3.06,1.03-.89.03-3.07-.15-3.06-.82h0Z"/>
        <path class="st31" d="M250.66,220.41c.6-.53,1.2-1.05,1.75-1.56,1.7-1.55,2.99-4.17,3.73-5.97.42-1.02.64-2.12.64-3.23v-3.5h6.13v5.68h0v.15l-.03.02c-.29,1.27-3.1,4.66-4.7,6.87-1.07,1.48-3.1,3.36-5.54,3.69-2.3.31-3.48-.42-1.99-2.16h0Z"/>
        <path class="st23" d="M285.59,122.91c4.75,10.37-.17,46.92-.17,46.92.15,1.69,2.07,5,2.79,12.4.85,8.75-1.33,30.73-1.33,30.73,0,0-2.83,1.86-6.19.25,0,0-5.84-33.1-6.94-41.8-.95-7.6-2.79-24.3-2.79-24.3l-5.23,24.26s1.34,4.26,1.66,7.5c.49,5.12-4.47,28.96-4.47,28.96,0,0-2.12.78-6.13.18,0,0-1.76-31.63-2.22-37.8-.78-10.35,1.97-42.67,3.87-48.8l27.15,1.52h0Z"/>
        <path class="st25" d="M270.94,147.1l-1.54-9.63s-6.52-1.35-9.48-4.13c0,0,3.1,3.86,7.71,5.13l1.73,7.41-3.03,22.46,4.6-21.23h0Z"/>
      </g>
      <g>
        <path class="st31" d="M267.07,86.59s-4.6-.68-7.79,3.5c-2.46,3.2-11.83,15.42-11.83,15.42,0,0-13.83-6.92-14.51-7.75-.68-.82-.3-2.48-.11-3.4.18-.92.5-2.94.7-3.51.35-.99-1.12-.72-1.99.2-.89.95-1.25,2.75-1.69,3.06-.43.32-3.73-3.47-5.32-5.3-1.59-1.82-2.35-3.1-3.42-2.35-.77.55-.28,1.62.87,3.2,1.15,1.56,1.31,1.73,1.48,2.07.14.28-.28.5-.45.65-.31.28-.86.73-.9,1.16-.02.24.02.48-.05.71-.15.52-.79.76-.98,1.28-.13.37.02.79-.06,1.17-.05.25-.18.47-.23.72-.08.49.19.96.51,1.35,1.12,1.33,2.66,1.85,4.13,2.66,1.22.68,2.49.97,3.9,1.6s17.75,11.95,20.33,10.52c2.59-1.42,15.94-16.96,15.94-16.96,3.85-6.38,1.47-10,1.47-10h0Z"/>
        <path class="st24" d="M277.21,86.87h0c6.09.42,6.51,3.36,8.04,6.57,1.16,2.45,1.17,5.29.28,7.85l-4.24,12.27s1.99,4.8,4.3,9.34c-10.65,5.94-23.94,2.82-27.15-1.52-.14-.92.69-8.11,1.19-12.81-1.88-4.7-2.37-7.68-1.58-10.79,1.47-5.77,7.17-11.39,9.69-11.19l9.46.28h0Z"/>
        <g>
          <path class="st25" d="M286.45,61.24l-1.84,2.96c.82.55,1.89.32,2.4-.49s.26-1.92-.55-2.47h0Z"/>
          <path class="st25" d="M288.47,64.61l-3.46-.49c-.17.97.47,1.86,1.42,1.99.95.13,1.86-.54,2.03-1.51h0Z"/>
          <path class="st31" d="M263.39,62.37c-1.44.85-3.22,4.47-3.04,12.06.15,6.43,2.23,8.02,3.28,8.48s3.06.18,5.03-.15v3.86s-2.71,3.15-2.54,4.92,3.92,2.19,6.46.46c2.54-1.73,4.17-4.36,4.17-4.36v-9.33s1.32,1.77,3.5.33c2.17-1.44,2.25-5,.99-6.28-1.26-1.28-3.97-.88-4.48.89,0,0-3.13.12-7.3-2.18-4.17-2.29-5.77-6.21-6.04-8.71h-.02Z"/>
          <path class="st25" d="M268.25,72.82c-.02.46.32.85.76.88.45.02.82-.34.85-.8s-.32-.85-.76-.88c-.45-.02-.82.34-.85.8Z"/>
          <path class="st26" d="M267.31,78.27l-1.88.6c.15.54.7.84,1.22.68.52-.17.82-.74.65-1.27h0Z"/>
          <path class="st25" d="M261.61,70.33l1.64-1.13c-.3-.47-.91-.59-1.36-.28-.45.32-.58.95-.28,1.42h0Z"/>
          <path class="st25" d="M261.99,72.24c-.02.46.32.85.76.88.45.02.82-.34.85-.8s-.32-.85-.76-.88c-.45-.02-.82.34-.85.8Z"/>
          <polygon class="st26" points="265.94 71.77 265.82 76.64 263.25 75.85 265.94 71.77"/>
          <path class="st26" d="M268.66,82.77c2.07-.27,6.32-1.49,6.99-3.18,0,0-.22,1.05-1.49,2.15s-5.5,2.32-5.5,2.32v-1.29h0Z"/>
        </g>
        <path class="st1" d="M274.49,124.06c3.5-.83,5.72-4.37,4.8-7.84-.04-.13-.07-.25-.11-.33-.69-1.65-2.16-1.43-2.16-1.43h0c1.38-.92,2.34-2.34,2.66-3.96l1.29-7.69s.28-1.7-.33-3.73l4.28-4.95s.31.22.79.55c.67,2.14.57,4.48-.18,6.63l-4.24,12.27s1.99,4.8,4.3,9.34c-7.85,4.38-17.13,3.83-22.75,1.51,4.44.69,8.56.38,11.65-.35h0Z"/>
        <path class="st31" d="M296.49,117.43c-5.53-22.6-9.62-30.13-16.33-30.05-1.96,2.34-1.42,9.42,1.68,13.72,0,0,6.91,14.57,8.01,19.76.97,4.55,2.06,10.28,1.99,14.19-.02.69-.3,1.35-.77,1.86-1.26,1.37-1.26,2.47-2.09,3.98-.64,1.19-1.34,1.62-1.14,1.89.25.34,1.07.79,2.07.15.51-.32.84-.69,1.57-1.51,0,0-.2,1.83-1.25,4.2-1.42,3.2-1.07,4.83,3.24,3.69,2.7-.72,4.4-2.96,4.8-9.47.12-1.87.29-4.83.07-7.19-.58-6.17-.99-11.59-1.89-15.22h.02Z"/>
      </g>
    </g>
  </g>
</svg>