<svg id="Navbar" xmlns="http://www.w3.org/2000/svg" xmlns:xlink="http://www.w3.org/1999/xlink" viewBox="0 0 1080 300"><defs><style>.cls-1{font-size:74.76px;font-family:EthnocentricRg-Regular, Ethnocentric;}.cls-1,.cls-7{fill:#231f20;}.cls-2{letter-spacing:-0.16em;}.cls-3{letter-spacing:-0.1em;}.cls-4{letter-spacing:-0.21em;}.cls-5{fill:url(#New_Gradient_Swatch_1);}.cls-6{fill:#fff;}</style><linearGradient id="New_Gradient_Swatch_1" x1="4.35" y1="4.43" x2="293.48" y2="294.55" gradientUnits="userSpaceOnUse"><stop offset="0.14" stop-color="#ffca06"/><stop offset="0.87" stop-color="#f47a20"/></linearGradient></defs><text class="cls-1" transform="translate(322.3 130.56)">Cyber S<tspan class="cls-2" x="458.42" y="0">p</tspan><tspan class="cls-3" x="520.47" y="0">a</tspan><tspan x="597.62" y="0">ce</tspan><tspan x="0" y="89.71">Digi</tspan><tspan class="cls-4" x="193.92" y="89.71">t</tspan><tspan x="244.98" y="89.71">al</tspan></text><circle id="background" class="cls-5" cx="149.37" cy="149.95" r="149.64"/><path class="cls-6" d="M227.39,134.2v64.21c0,16.06-12.72,28.38-30,28.38-17.7,0-29.5-11.89-29.5-28.38V164H213V134.2H136.13v64.21c0,1.43.06,2.83.16,4.23L83,202.58A154,154,0,0,0,80.94,160c-3.5-18.31-7.72-40.45-25.82-52.7a48,48,0,0,0-16.41-7q.18,43.27.35,86.56a73,73,0,0,0,12.51,37.84c4,5.86,8.79,12.63,19.22,18.59,7.88,4.48,22.8,6,26.21,6,16.56.13,40.69.87,71.82.24A69.88,69.88,0,0,0,199,256.17c35.58,0,60.47-24.22,60.47-57.76V153.12Z"/><path class="cls-6" d="M157.34,79.27a40.23,40.23,0,0,0,5.21-22.11l-64.61,1.3a49.77,49.77,0,0,0-30.34,16,49.09,49.09,0,0,0-11.71,25.82l65-.68C122.94,99.62,146.25,98.26,157.34,79.27Z"/><path class="cls-7" d="M120,192a18.64,18.64,0,0,0-1.3,10.57c0,.07,0,.14,0,.21l2.3-.14c0-.12-.07-.29-.11-.49a15.76,15.76,0,0,1,1.45-9.79,17,17,0,0,1,9.08-8,18.45,18.45,0,0,1,4.72-1.2V181a19.77,19.77,0,0,0-5.56,1.26A19.51,19.51,0,0,0,120,192Z"/><path class="cls-7" d="M194.23,180.42a1.09,1.09,0,0,0-.68-.55,1.13,1.13,0,0,0-.85.06,1.08,1.08,0,0,0-.55.65q-3.24,8.86-11.62,8.78a39.1,39.1,0,0,0,.85-5.46c0-.25,0-.49.05-.72.09-.93.13-1.88.13-2.84v-1.77a5.79,5.79,0,0,0,0-.61c0-.41-.06-.81-.07-1.2a28,28,0,0,0-.38-2.86c-.05-.22-.09-.44-.13-.67a5.58,5.58,0,0,0-.29-1.19,5.11,5.11,0,0,1-.13-.53c-.07-.2-.14-.38-.19-.56a7.56,7.56,0,0,0-.34-1.11c-.15-.32-.28-.63-.4-.93a13.65,13.65,0,0,0-1.09-2.2c-.28-.5-.57-1-.85-1.46-.21-.3-.43-.6-.66-.88a4.41,4.41,0,0,1-.29-.4,31.65,31.65,0,0,0-7.91-6.92,64.07,64.07,0,0,0-8.84-4.43c-1.73-.73-3.56-1.44-5.49-2.15l-5.92-2.1a36.22,36.22,0,0,1-11-5.81,13.14,13.14,0,0,1-3.56-4.51,12,12,0,0,1-1.11-5.6,19.71,19.71,0,0,1,1-5.78,21.94,21.94,0,0,1,2.63-5,21.32,21.32,0,0,1,7.37-6.39,20.31,20.31,0,0,1,6.42-2.18,6.78,6.78,0,0,1,1.36-.16l.5,0,.66-.06q6.21,0,9.45,3.83c2.93,3.64,3.64,10.21,2.4,17.53h2.23c1.38-8,.51-14.81-2.91-19q-3.9-4.64-11.17-4.64h-.71a5.12,5.12,0,0,1-.56,0,8.66,8.66,0,0,0-1.54.08,23,23,0,0,0-7.43,1.91,25,25,0,0,0-9,6.81,26.35,26.35,0,0,0-3.51,5.76,23.46,23.46,0,0,0-1.72,7,16.88,16.88,0,0,0,1.06,7.75,18.36,18.36,0,0,0,4.51,6.55A41,41,0,0,0,146.33,154l2.28.93,3.55,1.43q2.76,1.16,5.15,2.26a72.39,72.39,0,0,1,7.91,4.17,27.19,27.19,0,0,1,6.34,5.28l.29.34c.16.18.31.35.45.53l.64,1a6.09,6.09,0,0,1,.74,1.38c.12.26.26.53.4.79a21.21,21.21,0,0,1,1.33,5.26c.07.49.13,1,.18,1.48s0,1,.08,1.52c0,.79,0,1.61,0,2.44,0,.25,0,.48,0,.71a33.67,33.67,0,0,1-.61,5.5c-1.17-.21-2.38-.44-3.61-.69s-2.45-.54-3.61-.83v2.32c1.07.26,2.18.51,3.31.74s2.28.46,3.38.66a33.14,33.14,0,0,1-2.05,5.43,30.9,30.9,0,0,1-2.78,4.7c-.56.79-1.08,1.44-1.49,1.92A23.88,23.88,0,0,0,169,207c.13.44.27.86.41,1.26a36.35,36.35,0,0,0,3.88-4.12,38.1,38.1,0,0,0,6.64-12.47q10.26.58,14.38-10.38A1.14,1.14,0,0,0,194.23,180.42Z"/></svg>