<?xml version="1.0" encoding="utf-8"?>
<!-- Generator: Adobe Illustrator 26.3.1, SVG Export Plug-In . SVG Version: 6.00 Build 0)  -->
<svg version="1.1" id="Layer_2" xmlns="http://www.w3.org/2000/svg" xmlns:xlink="http://www.w3.org/1999/xlink" x="0px" y="0px"
	 viewBox="0 0 879.1 631.5" style="enable-background:new 0 0 879.1 631.5;" xml:space="preserve">
<style type="text/css">
	.st0{fill:#2F2E41;}
	.st1{fill:#FFB8B8;}
	.st2{fill:#F2F2F2;}
	.st3{fill:#FFFFFF;}
	.st4{fill:#F9A826;}
	.st5{fill:#CCCCCC;}
	.st6{opacity:0.1;enable-background:new    ;}
	.st7{fill:#3F3D56;}
	.st8{fill:#FF6584;}
	.st9{fill:#A0616A;}
</style>
<path class="st0" d="M502.5,33.4c7.1,15.2-8,19.5-25.3,27.6c-17.3,8.1-30.3,17-37.4,1.8s-12.9-45.3,11.6-56.8
	C476.7-5.9,495.3,18.2,502.5,33.4z"/>
<circle class="st1" cx="467.1" cy="40" r="23.3"/>
<path class="st0" d="M582.6,143.4c-0.8-1.1-1.6-2.1-2.4-3.1c-1.1-1.3-2.1-2.6-3.2-3.8c-12.1-13.9-24.9-22.7-39.1-23.7h0l-0.2,0
	l-28.2,27.5l-9.6,9.3l0.2,0.5l5.2,12.9h90.7C591.9,156.2,587.4,149.7,582.6,143.4z"/>
<path class="st0" d="M441.8,49.4L441.8,49.4l8.3-3.9l-1.2-12l5.6,10l4-1.9l-0.7-7l3.3,5.8l29.6-13.9l0,0
	c-5.8-12.3-20.5-17.6-32.8-11.8l-4.3,2C441.3,22.3,436,37,441.8,49.4z"/>
<path class="st2" d="M634.9,472.6H148.1c-8.6,0-15.7-7-15.7-15.7V164.4c0-6.3,5.1-11.5,11.5-11.5h495.1c6.4,0,11.7,5.2,11.7,11.7
	V457C650.6,465.6,643.6,472.6,634.9,472.6z"/>
<path class="st3" d="M163.2,457h456.5c8.4,0,15.2-6.8,15.2-15.2V193.4c0-8.4-6.8-15.2-15.2-15.2H163.2c-8.4,0-15.2,6.8-15.2,15.2
	v248.3C148.1,450.2,154.9,457,163.2,457z"/>
<path class="st4" d="M650.4,163.5H132.2v-8c0-8.7,7-15.7,15.7-15.7h486.8c8.7,0,15.7,7,15.7,15.7V163.5z"/>
<circle class="st3" cx="160.7" cy="151.7" r="4.1"/>
<circle class="st3" cx="176.2" cy="151.7" r="4.1"/>
<circle class="st3" cx="191.6" cy="151.7" r="4.1"/>
<path class="st5" d="M405.7,403.1h-40.8c-5,0-9-4-9-9v-40.8c0-5,4-9,9-9h40.8c5,0,9,4,9,9v40.8C414.8,399.1,410.7,403.1,405.7,403.1
	z M364.9,346.1c-3.9,0-7.1,3.2-7.1,7.1v40.8c0,3.9,3.2,7.1,7.1,7.1h40.8c3.9,0,7.1-3.2,7.1-7.1v-40.8c0-3.9-3.2-7.1-7.1-7.1H364.9z"
	/>
<path class="st5" d="M397.7,391.7H373c-1.6,0-2.8-1.3-2.8-2.8v-30.4c0-1.6,1.3-2.8,2.8-2.8h17.9c0.6,0,1.3,0.2,1.8,0.6l6.8,5.5
	c0.7,0.5,1.1,1.4,1.1,2.2v24.9C400.5,390.4,399.2,391.7,397.7,391.7z M373,357.5c-0.5,0-0.9,0.4-0.9,0.9v30.4c0,0.5,0.4,0.9,0.9,0.9
	h24.7c0.5,0,0.9-0.4,0.9-0.9v-24.9c0-0.3-0.1-0.6-0.4-0.7l-6.8-5.5c-0.2-0.1-0.4-0.2-0.6-0.2H373z"/>
<path class="st5" d="M392.9,368.9h-15.2c-0.5,0-0.9-0.4-0.9-0.9c0-0.5,0.4-0.9,0.9-0.9h15.2c0.5,0,0.9,0.4,0.9,0.9
	C393.9,368.5,393.5,368.9,392.9,368.9z"/>
<path class="st5" d="M392.9,374.6h-15.2c-0.5,0-0.9-0.4-0.9-0.9c0-0.5,0.4-0.9,0.9-0.9h15.2c0.5,0,0.9,0.4,0.9,0.9
	C393.9,374.2,393.5,374.6,392.9,374.6z"/>
<path class="st5" d="M392.9,380.3h-15.2c-0.5,0-0.9-0.4-0.9-0.9c0-0.5,0.4-0.9,0.9-0.9h15.2c0.5,0,0.9,0.4,0.9,0.9
	C393.9,379.9,393.5,380.3,392.9,380.3z"/>
<path class="st5" d="M502.6,403.1h-40.8c-5,0-9-4-9-9v-40.8c0-5,4-9,9-9h40.8c5,0,9,4,9,9v40.8C511.6,399.1,507.6,403.1,502.6,403.1
	z M461.8,346.1c-3.9,0-7.1,3.2-7.1,7.1v40.8c0,3.9,3.2,7.1,7.1,7.1h40.8c3.9,0,7.1-3.2,7.1-7.1v-40.8c0-3.9-3.2-7.1-7.1-7.1H461.8z"
	/>
<path class="st5" d="M495.5,384.1h-26.6c-1.6,0-2.8-1.3-2.8-2.8v-15.2c0-1.6,1.3-2.8,2.8-2.8h26.6c1.6,0,2.8,1.3,2.8,2.8v15.2
	C498.3,382.8,497,384.1,495.5,384.1z M468.9,365.1c-0.5,0-0.9,0.4-0.9,0.9v15.2c0,0.5,0.4,0.9,0.9,0.9h26.6c0.5,0,0.9-0.4,0.9-0.9
	v-15.2c0-0.5-0.4-0.9-0.9-0.9H468.9z"/>
<path class="st5" d="M482.2,376.2c-0.5,0-1.1-0.1-1.5-0.4l-14.2-8.9c-0.4-0.3-0.6-0.9-0.3-1.3c0.3-0.4,0.9-0.6,1.3-0.3l14.2,8.9
	c0.3,0.2,0.7,0.2,1,0l14.2-8.9c0.4-0.3,1-0.1,1.3,0.3c0.3,0.4,0.1,1-0.3,1.3l-14.2,8.9C483.2,376,482.7,376.2,482.2,376.2z"/>
<path class="st5" d="M308.9,403.1h-40.8c-5,0-9-4-9-9v-40.8c0-5,4-9,9-9h40.8c5,0,9,4,9,9v40.8C317.9,399.1,313.9,403.1,308.9,403.1
	z M268.1,346.1c-3.9,0-7.1,3.2-7.1,7.1v40.8c0,3.9,3.2,7.1,7.1,7.1h40.8c3.9,0,7.1-3.2,7.1-7.1v-40.8c0-3.9-3.2-7.1-7.1-7.1H268.1z"
	/>
<path class="st5" d="M301.8,384.1h-26.6c-1.6,0-2.8-1.3-2.8-2.8v-15.2c0-1.6,1.3-2.8,2.8-2.8h26.6c1.6,0,2.8,1.3,2.8,2.8v15.2
	C304.6,382.8,303.4,384.1,301.8,384.1z M275.2,365.1c-0.5,0-0.9,0.4-0.9,0.9v15.2c0,0.5,0.4,0.9,0.9,0.9h26.6c0.5,0,0.9-0.4,0.9-0.9
	v-15.2c0-0.5-0.4-0.9-0.9-0.9H275.2z"/>
<path class="st5" d="M297.6,384.1h-19.1c-1,0-1.9-0.8-1.9-1.9c0-0.3,0.1-0.7,0.3-1l5.8-10c0.5-0.9,1.7-1.2,2.6-0.7
	c0.3,0.2,0.5,0.4,0.7,0.7l3.7,6.4l2.2-3.7c0.5-0.9,1.7-1.2,2.6-0.7c0.3,0.2,0.5,0.4,0.7,0.7l4.2,7.3c0.5,0.9,0.2,2.1-0.7,2.6
	C298.2,384,297.9,384.1,297.6,384.1L297.6,384.1z M297.6,382.2L297.6,382.2l-4.2-7.3l-3,5.2c-0.2,0.3-0.5,0.5-0.8,0.5l0,0
	c-0.3,0-0.7-0.2-0.8-0.5l-4.5-7.9l-5.8,10H297.6z"/>
<circle class="st5" cx="298.9" cy="368.9" r="1.9"/>
<polygon class="st1" points="753,618.2 741.3,618.2 735.8,573.3 753,573.3 "/>
<path class="st0" d="M755.9,629.5l-37.5,0V629c0-8.1,6.5-14.6,14.6-14.6c0,0,0,0,0,0h0l22.9,0L755.9,629.5z"/>
<polygon class="st1" points="800.4,618.2 788.8,618.2 783.2,573.3 800.4,573.3 "/>
<path class="st0" d="M803.4,629.5l-37.5,0V629c0-8.1,6.5-14.6,14.6-14.6c0,0,0,0,0,0h0l22.9,0L803.4,629.5z"/>
<path class="st0" d="M796.9,598.7l-10.8-3.3c-1.6-0.5-2.8-1.9-3-3.6l-10.1-95.2c0-0.2-0.2-0.4-0.5-0.4c-0.2,0-0.5,0.1-0.5,0.4
	l-16.8,92.3c-0.4,2.3-2.6,3.9-5,3.4c0,0-0.1,0-0.1,0l-13.8-2.8c-2.1-0.4-3.5-2.3-3.4-4.5l10.2-151.3l69.4-7.5l-10.3,168.7
	c-0.1,2.3-2,4-4.3,4C797.8,598.9,797.3,598.9,796.9,598.7z"/>
<circle class="st1" cx="796.9" cy="278.6" r="23.3"/>
<path class="st4" d="M743.2,434.6l15.1-94.8c3.1-19.6,21.5-33,41.1-29.9c1.5,0.2,3,0.6,4.4,1l0,0c17.7,5.1,28.7,22.9,25.3,41.1
	l-15.8,84.7L743.2,434.6z"/>
<path class="st1" d="M803.3,451.5c4.4-2.9,5.6-8.8,2.7-13.2c-0.3-0.5-0.7-0.9-1-1.3l15.6-30.1l-17.5,1.9L790.9,437
	c-3.6,3.9-3.3,10,0.6,13.6C794.7,453.6,799.6,454,803.3,451.5L803.3,451.5z"/>
<path class="st4" d="M806.6,431.7c-0.9-0.1-1.7-0.5-2.3-1.1l-6-5.5c-1.3-1.2-1.7-3.1-1-4.8l11.9-28.2l-1.7-55.7
	c1-7.5,7.9-12.8,15.5-11.8c7.5,1,12.8,7.9,11.8,15.5c0,0,0,0,0,0l2.9,35c0.9,10.6-2.1,21.2-8.5,29.8L810.7,430c-0.7,1-1.8,1.6-3,1.7
	C807.3,431.7,807,431.7,806.6,431.7z"/>
<path class="st1" d="M662.6,265.9c1,5.2,5.9,8.6,11.1,7.6c0.6-0.1,1.1-0.3,1.6-0.5l21.7,26.1l5.1-16.9l-21.4-22.2
	c-2.2-4.8-7.9-7-12.7-4.8C664,257.2,661.8,261.6,662.6,265.9z"/>
<path class="st4" d="M679.6,276.8c0.4-0.7,1.1-1.3,1.9-1.7l7.4-3.3c1.6-0.7,3.6-0.4,4.8,0.9l21.3,22l52,20.2
	c6.5,3.9,8.7,12.3,4.8,18.9c-3.9,6.5-12.3,8.7-18.9,4.8c0,0,0,0,0,0l-33.4-11c-10.1-3.3-18.7-10.2-24.1-19.4l-15.9-26.9
	c-0.6-1-0.8-2.3-0.4-3.5C679.3,277.3,679.4,277,679.6,276.8z"/>
<polygon class="st6" points="815.8,359.5 814.8,389.9 797.3,420.3 811.9,386.4 "/>
<path class="st0" d="M794.2,283c-3,0.4-5.9-1.5-6.7-4.5c-0.8-3.3-3.3-6-6.6-6.9c-4.3-1-9.5,1-12.6-2.2c-1.4-1.5-1.9-3.6-1.5-5.5
	c0.6-3.1,2.8-5.5,5.3-7.4c5.2-4,11.4-6.3,17.9-6.7c3.4-0.1,6.7,0.1,10.1,0.5c3.5,0.2,7,0.9,10.3,1.9c7.8,2.9,13.5,9.6,15.2,17.7
	c1.6,8.1-0.6,16.5-5.8,22.9c-3.1,3.8-7,6.8-11.5,8.8c-1.1,0.5-2.3,0.6-3.4,0.2c-2.8-1.1-2.3-4.6-1.1-6.9c1.4-2.5,3.5-4.9,2.4-7.9
	c-0.6-1.4-1.6-2.5-3-3.2C800.4,282.3,797.3,282.7,794.2,283L794.2,283z"/>
<path class="st3" d="M654.8,296.2H366.2c-8.6,0-15.7-7-15.7-15.7v-61.7c0-8.6,7-15.7,15.7-15.7h288.6c8.6,0,15.7,7,15.7,15.7v61.7
	C670.5,289.2,663.4,296.2,654.8,296.2z"/>
<path class="st7" d="M654.8,296.7H366.2c-8.9,0-16.1-7.2-16.1-16.1v-61.7c0-8.9,7.2-16.1,16.1-16.1h288.6c8.9,0,16.1,7.2,16.1,16.1
	v61.7C670.9,289.4,663.7,296.7,654.8,296.7z M366.2,204.6c-7.9,0-14.2,6.4-14.2,14.2v61.7c0,7.9,6.4,14.2,14.2,14.2h288.6
	c7.9,0,14.2-6.4,14.2-14.2v-61.7c0-7.9-6.4-14.2-14.2-14.2H366.2z"/>
<path class="st2" d="M619.7,281H401.3c-8.6,0-15.7-7-15.7-15.7v-32.3c0-8.6,7-15.7,15.7-15.7h218.4c8.6,0,15.7,7,15.7,15.7v32.3
	C635.3,274,628.3,281,619.7,281z"/>
<circle class="st8" cx="448.3" cy="244.9" r="18.7"/>
<path class="st7" d="M606.1,279.1l-26.4-22.2l-26-21.8c-1.4-1.2-3.5-1.2-4.9,0L522.9,257l-6.3,5.3l-9.5-8l-29-24.3
	c-1.4-1.2-3.5-1.2-4.9,0l-28.9,24.4l-29.4,24.8c-0.4,0.3-0.5,0.9-0.1,1.3c0.2,0.2,0.4,0.3,0.7,0.3l60.2-0.1l19,0l-0.2,0.2l56.8-0.1
	l54.2-0.1c0.5,0,0.9-0.4,0.9-1C606.4,279.6,606.3,279.3,606.1,279.1z"/>
<path class="st5" d="M854,630.9H671.7c-0.5,0-0.9-0.4-0.9-0.9s0.4-0.9,0.9-0.9H854c0.5,0,0.9,0.4,0.9,0.9S854.5,630.9,854,630.9z"/>
<path class="st1" d="M596.5,128.1c-1.5-2.5-4-4.2-6.9-4.8c-0.5-0.1-1-0.2-1.6-0.2l-72.3-64.7c-1.4-1.5-3.3-2.4-5.3-2.6
	c-0.4,0-0.8-0.1-1.2,0c-4.7,0.2-8.4,4.2-8.2,9c0.1,2.2,1,4.2,2.5,5.7l27.7,24.1l45.5,39.6c0,0.7,0.1,1.5,0.3,2.2
	c1.1,4.3,4.8,7.5,9.2,7.9c2,0.2,4-0.1,5.7-0.9c1.4-0.7,2.7-1.6,3.7-2.8c0.1-0.1,0.2-0.2,0.3-0.4
	C598.6,136.7,598.9,131.9,596.5,128.1L596.5,128.1z"/>
<path class="st1" d="M472.8,190.4l-0.7-27.4l-0.6-22.7l-0.4-15.9l-0.8-31c-0.4-4.7-4.6-8.2-9.3-7.8c-2.1,0.2-4.1,1.2-5.6,2.8
	c-0.3,0.3-0.5,0.6-0.7,0.9c-1.2,1.7-1.7,3.7-1.5,5.7l1.7,45.3l0.8,22.7l1.1,29c-0.3,0.4-0.6,0.9-0.8,1.3c-1.4,2.6-1.6,5.6-0.7,8.4
	c1.9,5.6,8,8.7,13.6,6.8c0.4-0.1,0.8-0.3,1.2-0.5c5.4-2.5,7.6-8.9,5.1-14.3C474.7,192.5,473.8,191.4,472.8,190.4L472.8,190.4z"/>
<path class="st5" d="M537.9,112.8l-6.7-18.2l-10.9-29.5c-1.6-4.3-5.1-7.7-9.4-9.2c-0.2-0.1-0.4-0.1-0.5-0.2
	c-4.2-1.3-8.8-0.7-12.6,1.7l-36.6,23.2c-7,4.4-9.2,13.5-5,20.6c4.6,7.9,9.6,15.6,14.9,23c4.3,5.8,12.2,6.4,13.6,15.9h27l27.3-24.5
	L537.9,112.8z"/>
<circle class="st9" cx="119.1" cy="313" r="22"/>
<path class="st9" d="M173.1,297.9c0.2,0.2,0.4,0.4,0.6,0.5c4,3.7,4.1,10,0.4,13.9c-0.3,0.3-0.5,0.5-0.8,0.8
	c-0.2,0.2-0.5,0.4-0.8,0.6L174,364c0.1,3.4-2.1,6.4-5.3,7.5l-0.1,0l-40.8,4.3c-4.6,0.5-8.8-2.9-9.3-7.5c-0.5-4.6,2.9-8.8,7.5-9.3
	c0.1,0,0.1,0,0.2,0l29.1-2.6l5-43.5c-0.3-0.3-0.6-0.6-0.9-0.9c-3.5-4.2-3-10.4,1.2-13.9C164.2,295,169.4,294.9,173.1,297.9
	L173.1,297.9z"/>
<polygon class="st9" points="155.3,619.2 166.3,619.2 171.5,576.8 155.3,576.8 "/>
<path class="st0" d="M152.5,615.6l21.6,0h0c7.6,0,13.8,6.2,13.8,13.8c0,0,0,0,0,0v0.4l-35.4,0L152.5,615.6z"/>
<polygon class="st9" points="46.2,604 55.6,609.6 81.8,575.9 67.8,567.6 "/>
<path class="st0" d="M45.6,599.5l18.6,11.1l0,0c6.5,3.9,8.7,12.4,4.8,18.9c0,0,0,0,0,0l-0.2,0.4l-30.4-18.1L45.6,599.5z"/>
<path class="st0" d="M168.9,604.2h-12.3c-2.1,0-3.8-1.6-4-3.6l-12.4-116.5c-0.1-0.7-0.7-1.3-1.5-1.2c-0.5,0.1-0.9,0.3-1.1,0.8
	l-22.4,49.5l-39.6,64.6c-1.1,1.7-3.2,2.4-5.1,1.6l-15.8-7c-2-0.9-3-3.3-2.1-5.3c0.1-0.2,0.1-0.3,0.2-0.4l36.4-60.9l11.2-51.3
	c-3.5-22.3,11.5-55.4,11.7-55.7l0.1-0.2l41.5-16.2l0.2,0.3c16.3,53.7,26.3,111.4,19,198C172.7,602.6,171,604.2,168.9,604.2z"/>
<path class="st7" d="M110.6,423.9l-0.2-0.4c-0.1-0.2-9.3-19.6-16.4-40.4c-2.8-8.1-2-17,2.1-24.6c4.2-7.6,11.3-13.1,19.8-15.2l0,0
	c14.9-3.6,30.3,4.3,36,18.6c5.6,14.1,3.8,29.1,2.1,41l0,0.2l-0.2,0.1L110.6,423.9z"/>
<path class="st0" d="M145.8,300.6h-34.9v-15.2c7.7-3,15.2-5.6,19.7,0C138.9,285.4,145.8,292.2,145.8,300.6L145.8,300.6z"/>
<path class="st0" d="M108.9,282.7c-20.9,0-26.7,26.2-26.7,40.9c0,8.2,3.7,11.2,9.6,12.2l2.1-11l4.8,11.5c1.6,0,3.4,0,5.2-0.1
	l1.6-3.4l3.7,3.3c14.7,0,26.5,2.2,26.5-12.5C135.6,308.8,130.5,282.7,108.9,282.7z"/>
<path class="st5" d="M206.3,630.9H24c-0.5,0-0.9-0.4-0.9-0.9s0.4-0.9,0.9-0.9h182.3c0.5,0,0.9,0.4,0.9,0.9S206.8,630.9,206.3,630.9z
	"/>
<path class="st3" d="M209.7,318.5h-40.8c-5,0-9-4-9-9v-40.8c0-5,4-9,9-9h40.8c5,0,9,4,9,9v40.8C218.7,314.5,214.7,318.5,209.7,318.5
	z"/>
<path class="st7" d="M209.7,318.5h-40.8c-5,0-9-4-9-9v-40.8c0-5,4-9,9-9h40.8c5,0,9,4,9,9v40.8C218.7,314.5,214.7,318.5,209.7,318.5
	z M168.9,261.5c-3.9,0-7.1,3.2-7.1,7.1v40.8c0,3.9,3.2,7.1,7.1,7.1h40.8c3.9,0,7.1-3.2,7.1-7.1v-40.8c0-3.9-3.2-7.1-7.1-7.1H168.9z"
	/>
<path class="st4" d="M202.6,301.9H176c-1.6,0-2.8-1.3-2.8-2.8v-19.9c0-1.6,1.3-2.8,2.8-2.8h7.5c1,0,1.9,0.5,2.4,1.4l2.1,3.4h14.6
	c1.6,0,2.8,1.3,2.8,2.8V299C205.4,300.6,204.1,301.9,202.6,301.9z"/>
<path class="st9" d="M201.7,312c0.1,0.2,0.3,0.5,0.4,0.8c2.2,5,0,10.8-5,13c-0.3,0.2-0.7,0.3-1,0.4c-0.3,0.1-0.6,0.2-0.9,0.2
	l-18.1,46.9c-1.2,3.1-4.4,5.1-7.8,4.8l-0.1,0l-39.3-11.8c-4.5-1.3-7-6.1-5.7-10.5c1.3-4.5,6.1-7,10.5-5.7c0,0,0.1,0,0.1,0l27.8,8.9
	l21.5-38.2c-0.2-0.4-0.4-0.8-0.5-1.2c-1.6-5.2,1.3-10.7,6.5-12.3C194.6,305.9,199.5,307.8,201.7,312L201.7,312z"/>
</svg>
