<?xml version="1.0" encoding="utf-8"?>
<!-- Generator: Adobe Illustrator 26.3.1, SVG Export Plug-In . SVG Version: 6.00 Build 0)  -->
<svg version="1.1" id="Layer_4" xmlns="http://www.w3.org/2000/svg" xmlns:xlink="http://www.w3.org/1999/xlink" x="0px" y="0px"
	 viewBox="0 0 879.1 631.5" style="enable-background:new 0 0 879.1 631.5;" xml:space="preserve">
<style type="text/css">
	.st0{fill:#F1F1F1;}
	.st1{fill:#E6E6E6;}
	.st2{fill:#CCCCCC;}
	.st3{fill:#3F3D56;}
	.st4{fill:#FFFFFF;}
	.st5{fill:#E5E5E5;}
	.st6{fill:#F9A826;}
	.st7{fill:#FFB7B7;}
	.st8{fill:#2F2E41;}
</style>
<path class="st0" d="M43,547.6l0.2-1c0-0.2,4.2-21.2,19.7-33.4C78.3,501.1,99.7,502,99.9,502l1,0.1l-0.2,1c0,0.2-4.2,21.2-19.7,33.4
	c-15.5,12.2-36.9,11.2-37.1,11.2L43,547.6z M63.9,514.6c-13.1,10.3-17.8,27.1-18.8,31.4c4.4,0,21.8-0.6,34.9-10.9
	c13.1-10.3,17.8-27.1,18.8-31.4C94.5,503.7,77,504.3,63.9,514.6z"/>
<path class="st0" d="M70,519.3c-7.1,18.3-25.8,28.1-25.8,28.1s-7.2-19.9-0.1-38.1c7.1-18.3,25.8-28.1,25.8-28.1S77.2,501,70,519.3z"
	/>
<path class="st0" d="M852.3,547.6c-0.2,0-21.6,1-37.1-11.2c-15.5-12.2-19.6-33.2-19.7-33.4l-0.2-1l1-0.1c0.2,0,21.6-1,37.1,11.2
	c15.5,12.2,19.6,33.2,19.7,33.4l0.2,1L852.3,547.6z M797.4,503.7c1,4.2,5.7,21.1,18.8,31.4c13.1,10.3,30.6,10.9,34.9,10.9
	c-1-4.2-5.7-21.1-18.8-31.4C819.3,504.3,801.8,503.7,797.4,503.7L797.4,503.7z"/>
<path class="st0" d="M826.2,519.3c7.1,18.3,25.8,28.1,25.8,28.1s7.2-19.9,0.1-38.1c-7.1-18.3-25.8-28.1-25.8-28.1
	S819.1,501,826.2,519.3z"/>
<path class="st1" d="M504.1,543.2l-12.4-5.2l-8.5-62.2H369.7l-9.2,62l-11.1,5.6c-1.3,0.7-1.8,2.2-1.2,3.5c0.4,0.9,1.4,1.5,2.4,1.5
	h152.5c1.5,0,2.6-1.2,2.6-2.6C505.7,544.6,505.1,543.6,504.1,543.2z"/>
<path class="st2" d="M705.6,484H148.5c-6.1,0-11-5-11-11v-78.6h579.2V473C716.7,479.1,711.7,484,705.6,484z"/>
<path class="st3" d="M717.2,431.5H137V95.4c0-7.3,6-13.3,13.3-13.3h553.7c7.3,0,13.3,6,13.3,13.3V431.5z"/>
<path class="st4" d="M682.6,407.1h-511c-5.7,0-10.3-4.6-10.3-10.3V116.7c0-5.7,4.6-10.3,10.3-10.3h511c5.7,0,10.3,4.6,10.3,10.3
	v280.2C692.8,402.5,688.2,407.1,682.6,407.1z"/>
<path class="st2" d="M876.7,548.9H3.4c-0.6,0-1.1-0.4-1.3-1c-0.2-0.7,0.2-1.4,0.9-1.6c0.1,0,0.2,0,0.3,0h873.3c0.6,0,1.2,0.4,1.4,1
	c0.2,0.7-0.3,1.4-1,1.6C876.9,548.9,876.8,548.9,876.7,548.9z"/>
<rect x="188.8" y="212.4" class="st5" width="84.1" height="7.9"/>
<rect x="188.8" y="231.6" class="st5" width="84.1" height="7.9"/>
<rect x="188.8" y="251.1" class="st5" width="84.1" height="7.9"/>
<rect x="188.8" y="270.7" class="st5" width="84.1" height="7.9"/>
<rect x="208.7" y="295.6" class="st6" width="44.2" height="6.9"/>
<rect x="402.9" y="261.4" class="st5" width="0.8" height="2.4"/>
<path class="st5" d="M403.7,315.2h-0.8V310h0.8V315.2z M403.7,304.9h-0.8v-5.1h0.8V304.9z M403.7,294.6h-0.8v-5.1h0.8V294.6z
	 M403.7,284.3h-0.8v-5.1h0.8V284.3z M403.7,274.1h-0.8v-5.1h0.8V274.1z"/>
<rect x="402.9" y="320.3" class="st5" width="0.8" height="2.4"/>
<rect x="490.9" y="261.4" class="st5" width="0.8" height="2.4"/>
<path class="st5" d="M491.7,315.2h-0.8V310h0.8V315.2z M491.7,304.9h-0.8v-5.1h0.8V304.9z M491.7,294.6h-0.8v-5.1h0.8V294.6z
	 M491.7,284.3h-0.8v-5.1h0.8V284.3z M491.7,274.1h-0.8v-5.1h0.8V274.1z"/>
<rect x="490.9" y="320.3" class="st5" width="0.8" height="2.4"/>
<rect x="535.3" y="214.2" class="st5" width="0.8" height="2.4"/>
<path class="st5" d="M536.1,315.4h-0.8v-4.9h0.8V315.4z M536.1,305.5h-0.8v-4.9h0.8V305.5z M536.1,295.6h-0.8v-4.9h0.8V295.6z
	 M536.1,285.8h-0.8v-4.9h0.8V285.8z M536.1,275.9h-0.8v-4.9h0.8V275.9z M536.1,266h-0.8v-4.9h0.8V266z M536.1,256.1h-0.8v-4.9h0.8
	V256.1z M536.1,246.2h-0.8v-4.9h0.8V246.2z M536.1,236.4h-0.8v-4.9h0.8V236.4z M536.1,226.5h-0.8v-4.9h0.8V226.5z"/>
<rect x="535.3" y="320.3" class="st5" width="0.8" height="2.4"/>
<rect x="579.3" y="194.9" class="st5" width="0.8" height="2.4"/>
<path class="st5" d="M580.1,315.4h-0.8v-4.9h0.8V315.4z M580.1,305.6h-0.8v-4.9h0.8V305.6z M580.1,295.7h-0.8v-4.9h0.8V295.7z
	 M580.1,285.9h-0.8V281h0.8V285.9z M580.1,276h-0.8v-4.9h0.8V276z M580.1,266.2h-0.8v-4.9h0.8V266.2z M580.1,256.4h-0.8v-4.9h0.8
	V256.4z M580.1,246.5h-0.8v-4.9h0.8V246.5z M580.1,236.7h-0.8v-4.9h0.8V236.7z M580.1,226.8h-0.8v-4.9h0.8V226.8z M580.1,217h-0.8
	v-4.9h0.8V217z M580.1,207.2h-0.8v-4.9h0.8V207.2z"/>
<rect x="579.3" y="320.3" class="st5" width="0.8" height="2.4"/>
<rect x="447.1" y="229.1" class="st5" width="0.8" height="2.4"/>
<path class="st5" d="M447.9,315.6h-0.8V311h0.8V315.6z M447.9,306.3h-0.8v-4.7h0.8V306.3z M447.9,296.9h-0.8v-4.7h0.8V296.9z
	 M447.9,287.6h-0.8v-4.7h0.8V287.6z M447.9,278.2h-0.8v-4.7h0.8V278.2z M447.9,268.9h-0.8v-4.7h0.8V268.9z M447.9,259.5h-0.8v-4.7
	h0.8V259.5z M447.9,250.2h-0.8v-4.7h0.8V250.2z M447.9,240.8h-0.8v-4.7h0.8V240.8z"/>
<rect x="447.1" y="320.3" class="st5" width="0.8" height="2.4"/>
<path class="st3" d="M624.7,323.8H358.6c-0.5,0-0.8-0.4-0.8-0.8V195.5c0-0.5,0.4-0.8,0.8-0.8c0.5,0,0.8,0.4,0.8,0.8v126.7h265.3
	c0.5,0,0.8,0.4,0.8,0.8C625.5,323.5,625.1,323.8,624.7,323.8z"/>
<polygon class="st3" points="491.7,262.5 447.5,229.4 403.8,262.1 402.8,260.7 447.5,227.3 491.5,260.3 535.3,212.4 535.4,212.3 
	579.6,194.5 580.2,196.1 536.2,213.8 "/>
<circle class="st6" cx="403.3" cy="261.4" r="5"/>
<circle class="st6" cx="447.5" cy="228.9" r="5"/>
<circle class="st6" cx="491.6" cy="261.4" r="5"/>
<circle class="st6" cx="535.7" cy="213.1" r="5"/>
<circle class="st6" cx="579.9" cy="194.8" r="5"/>
<rect x="297.5" y="106.5" class="st5" width="1.7" height="300.7"/>
<path class="st7" d="M700.3,404.1c2.2-2.6,1.9-6.6-0.8-8.8c-0.3-0.2-0.6-0.4-0.9-0.6l4.2-21.8l-10.7,4.4l-2.3,20
	c-1.5,3.1-0.2,6.9,2.9,8.4C695.4,407,698.5,406.3,700.3,404.1z"/>
<polygon class="st7" points="753.5,537.9 744.4,537.9 740.2,503.2 753.5,503.2 "/>
<path class="st8" d="M755.8,546.7l-29.1,0v-0.4c0-6.3,5.1-11.3,11.3-11.3h0l17.8,0L755.8,546.7z"/>
<polygon class="st7" points="704.2,537.9 695.1,537.9 690.9,503.2 704.2,503.2 "/>
<path class="st8" d="M704.3,546.7l-29.1,0v-0.4c0-6.3,5.1-11.3,11.3-11.3h0l17.8,0L704.3,546.7z"/>
<polygon class="st8" points="703.4,391 694.6,411.3 687.3,528.3 705.7,527.5 710.7,471.8 726.2,422.1 735.1,477.5 738.8,526 
	754,526.7 760.1,391 "/>
<path class="st6" d="M747.6,290.6l-25.6,0.6l-15,7.7l-0.8,56.9l-9.4,39.3c0,0,58.5,4,66.6-1.9l-9.6-44.9l12.8-48.5L747.6,290.6z"/>
<path class="st6" d="M709.7,299.9L707,299c0,0-8.7,5.6-7.8,19c0,0-0.3,7,0,11.6c0.4,5.3-10.3,58.1-10.3,58.1h15.5l6.6-47.8
	L709.7,299.9z"/>
<path class="st7" d="M766.3,404.8c-2.2-2.6-1.9-6.6,0.8-8.8c0.3-0.2,0.6-0.4,0.9-0.6l-4.2-21.8l10.7,4.4l2.3,20
	c1.5,3.1,0.2,6.9-2.9,8.4C771.3,407.7,768.1,407,766.3,404.8z"/>
<path class="st6" d="M762.8,300.6l2.7-0.9c0,0,8.7,5.6,7.8,19c0,0,0.3,7,0,11.6c-0.4,5.3,4.4,58.1,4.4,58.1h-15.5l-6.6-47.8
	L762.8,300.6z"/>
<path class="st7" d="M753.8,266.7c0,9.8-7.9,17.7-17.7,17.7c-9.8,0-17.7-7.9-17.7-17.7c0-9.8,7.9-17.7,17.7-17.7l0,0
	C745.9,249,753.8,256.9,753.8,266.7C753.8,266.7,753.8,266.7,753.8,266.7z"/>
<path class="st8" d="M718.4,242.9c2.1-4.5,6.1-3.6,9.6-2.1c4.5-1,8.7-3.9,13.5-2.2c4.7,6.9,20.6,4.9,17.2,16c0,2.7,5,1.1,4.2,5.5
	c2.7,8.5-9.7,24.5-16.7,21.1c1.8-3.2,5.8-10.5-0.3-11.2c-13.1,12.1-1.3-23.1-17.7-12.9C722.7,262.2,715.3,247.9,718.4,242.9z"/>
</svg>
