<svg
  id="Color_Logo"
  data-name="Color Logo"
  xmlns="http://www.w3.org/2000/svg"
  xmlns:xlink="http://www.w3.org/1999/xlink"
  viewBox="0 0 1080 1080"
><defs>
<style>
#background{
  animation: blink 1s infinite;
}
@keyframes blink {
  0% {
    opacity: 1;
  }
  50% {
    opacity: 0;
  }
  100% {
    opacity: 1;
  }
}
</style>

<style
    >.cls-1{fill:url(#New_Gradient_Swatch_1);}.cls-2{fill:#fff;}.cls-3{fill:#231f20;}</style><linearGradient
      id="New_Gradient_Swatch_1"
      x1="16.64"
      y1="14.85"
      x2="1060.05"
      y2="1061.83"
      gradientUnits="userSpaceOnUse"
    ><stop offset="0.14" stop-color="#ffca06" /><stop
        offset="0.87"
        stop-color="#f47a20"
      /></linearGradient></defs>
      
      <g id="background"><circle
      id="background-2"
      data-name="background"
      class="cls-1"
      cx="540"
      cy="540"
      r="540"
    /></g>


    <g id="Title"><path
      class="cls-2"
      d="M243.16,900.29l-3.47,6.88h-8.75c-6.05,0-10.51-5.88-10.51-13.64s4.46-13.11,10.51-13.11h12.22l-3.47,7h-8.75c-2.92,0-5.11,2.67-5.11,6.51s2.16,6.4,5.11,6.4Z"
    /><path
      class="cls-2"
      d="M270,880.42l-10.35,17.91v8.84h-5.42v-8.88L243.6,880.42h6.93l4.17,7.44c.55,1,2,3.39,2.37,4.19.34-.76.94-1.92,2.19-4.23l4-7.4Z"
    /><path
      class="cls-2"
      d="M291.89,899.37c0,4.44-1.59,7.8-7.09,7.8H269.47V890.89H284.9c.78,0,1.51-.43,1.51-1.8s-.75-1.71-1.51-1.71H269.47l3.65-7h11.55c4.17,0,6.85,2.48,6.85,7.4,0,3.15-1.17,4.91-2.37,5.59C290.66,894.09,291.89,896.17,291.89,899.37Zm-17-2.76v3.68h9.93c1.18,0,1.67-.64,1.67-1.88s-.49-1.8-1.67-1.8Z"
    /><path
      class="cls-2"
      d="M314.84,900.29l-3.46,6.88H294.59V880.42h20.2l-3.49,7H300v3.19h13.82l-3.1,6.08H300v3.64Z"
    /><path
      class="cls-2"
      d="M341.42,907.17H334.2l-3.88-7.08H322v7.08h-5.39V893.49h15.17a2.86,2.86,0,0,0,3-3c0-2.08-1.12-3.12-3-3.12H316.64l3.52-7h11.2c4,0,9,1.92,9,9.55,0,4.16-1.7,7.6-4.56,8.48a30.08,30.08,0,0,1,2.45,3.52Z"
    /><path
      class="cls-2"
      d="M369.49,891.09c4.24,0,6.54,2.44,6.54,7.32,0,5.48-2.17,8.76-7.48,8.76H352.31l3.47-6.88H369c1.28,0,1.85-.56,1.85-2s-.57-1.92-1.85-1.92h-9.48c-4.48,0-6.54-3.08-6.54-7.67,0-5,2.19-8.32,7.48-8.32h15.14l-3.47,7H360c-1.25,0-1.85.48-1.85,1.83s.6,1.88,1.85,1.88Z"
    /><path
      class="cls-2"
      d="M392.86,900.33h-9.12v6.84h-5.37V893.49h15c1.67,0,2.63-1.24,2.63-3.07s-1-3-2.63-3h-15l3.57-7h10.95c5.39,0,8.54,4.08,8.54,10S398.28,900.33,392.86,900.33Z"
    /><path
      class="cls-2"
      d="M407.42,907.17l3.26-6.88h4.38c1,0,2.27,0,3.1.08-.47-1-1.2-2.6-1.77-3.88l-3.13-7.07-8.18,17.75h-6.39L409.87,883c.73-1.56,1.8-3,3.5-3s2.68,1.32,3.44,3l10.89,24.19Z"
    /><path
      class="cls-2"
      d="M449.12,900.29l-3.47,6.88H436.9c-6,0-10.51-5.88-10.51-13.64s4.46-13.11,10.51-13.11h12.22l-3.47,7H436.9c-2.92,0-5.11,2.67-5.11,6.51s2.16,6.4,5.11,6.4Z"
    /><path
      class="cls-2"
      d="M471.24,900.29l-3.46,6.88H451V880.42h20.2l-3.49,7H456.41v3.19h13.82l-3.11,6.08H456.41v3.64Z"
    /><path
      class="cls-2"
      d="M494.75,907.17H483.07V890.5h5.42v9.79h6.26c3,0,5.16-2.56,5.16-6.4s-2.25-6.51-5.16-6.51H483.07l3.44-7h8.24c6.09,0,10.5,5.4,10.5,13.11S500.79,907.17,494.75,907.17Z"
    /><path class="cls-2" d="M513.45,907.17h-5.39V880.42h5.39Z" /><path
      class="cls-2"
      d="M527.58,890.46h11.15v16.71h-12c-6,0-10.5-5.88-10.5-13.64s4.45-13.11,10.5-13.11h12.48l-3.49,7h-9c-2.92,0-5.13,2.71-5.13,6.51s2.13,6.4,5.13,6.4h6.59v-3.88h-9Z"
    /><path class="cls-2" d="M547.3,907.17h-5.39V880.42h5.39Z" /><path
      class="cls-2"
      d="M572.32,880.42l-3.49,7H562.6v19.79h-5.39V887.38H549l3.49-7Z"
    /><path
      class="cls-2"
      d="M575.84,907.17l3.25-6.88h4.38c1,0,2.27,0,3.1.08-.47-1-1.19-2.6-1.77-3.88l-3.13-7.07-8.18,17.75h-6.38L578.29,883c.73-1.56,1.79-3,3.49-3s2.68,1.32,3.44,3l10.89,24.19Z"
    /><path
      class="cls-2"
      d="M616.93,900.29l-3.49,6.88H598V880.42h5.39v19.87Z"
    /></g>
    
    <g id="csd"><g id="d"><path
        class="cls-2"
        d="M821.53,440.59V672.31c0,57.94-45.9,102.42-108.44,102.42-63.87,0-106.44-42.93-106.44-102.42V548.18h163V440.59H492.22V672.31c0,5.15.19,10.22.54,15.25l-192.26-.2A556,556,0,0,0,293,533.7c-12.62-66.09-27.88-146-93.2-190.18a172.42,172.42,0,0,0-59.2-25.19l1.26,312.35c1.36,28.14,8.2,83,45.13,136.56,14.61,21.17,31.72,45.61,69.39,67.08,28.42,16.2,82.27,21.71,94.56,21.81,59.78.46,146.85,3.13,259.19.88,32,15.27,69,23.75,108.91,23.75,128.4,0,218.21-87.41,218.21-208.45V508.86Z"
      /><path
        class="cls-2"
        d="M568.73,242.35c18.6-31.83,19.57-63.55,18.8-79.79l-233.13,4.7c-14.46,1.92-68,10.82-109.51,57.88-32.45,36.76-40.07,77-42.25,93.19l234.68-2.45C444.59,315.81,528.71,310.88,568.73,242.35Z"
      /><path
        class="cls-3"
        d="M433.82,649.11q-7.68,16.6-4.69,38.14c0,.25.1.5.15.75l8.28-.5c-.1-.42-.24-1-.39-1.78-3.45-17.26,3.61-32.12,5.22-35.33,9.55-19,27-26.38,32.8-28.73a65.82,65.82,0,0,1,17-4.33v-7.77a70.63,70.63,0,0,0-20.1,4.54C466.77,616.17,444.82,625.3,433.82,649.11Z"
      /><path
        class="cls-3"
        d="M701.87,607.39a4.16,4.16,0,0,0-5.5-1.77,4,4,0,0,0-2,2.35q-11.68,32-41.94,31.69a134.53,134.53,0,0,0,3.06-19.72c.06-.9.13-1.76.19-2.59.32-3.38.48-6.8.48-10.24v-6.42c0-.76,0-1.5-.09-2.2-.13-1.47-.23-2.9-.29-4.31a96.23,96.23,0,0,0-1.34-10.34c-.19-.77-.35-1.56-.48-2.39a20.09,20.09,0,0,0-1.05-4.31,19.24,19.24,0,0,1-.48-1.92c-.26-.7-.48-1.37-.67-2a27.25,27.25,0,0,0-1.25-4c-.51-1.15-1-2.27-1.43-3.35a49,49,0,0,0-3.93-8q-1.53-2.67-3.06-5.27-1.16-1.62-2.4-3.15-.57-.76-1-1.44-15.14-17.43-28.53-25a234.31,234.31,0,0,0-31.89-16q-9.37-3.93-19.82-7.76-10.33-3.63-21.35-7.56a130.92,130.92,0,0,1-39.64-21,47.37,47.37,0,0,1-12.83-16.28,43.13,43.13,0,0,1-4-20.2,71.39,71.39,0,0,1,3.64-20.87,80.52,80.52,0,0,1,9.48-18q12.25-16,26.61-23.07,14.09-6.9,23.18-7.85a25,25,0,0,1,4.88-.58c.7-.06,1.31-.12,1.82-.19l2.39-.19q22.41,0,34.09,13.79c10.59,13.15,13.14,36.85,8.68,63.27h8c5-28.91,1.84-53.44-10.48-68.44q-14.07-16.75-40.31-16.76H550a18.53,18.53,0,0,1-2,.1,35.67,35.67,0,0,0-5.56.28q-10.24.3-26.81,6.9-16.75,6.88-32.46,24.61A94.62,94.62,0,0,0,470.49,408a84.51,84.51,0,0,0-6.22,25.38,61,61,0,0,0,3.83,28A66.37,66.37,0,0,0,484.38,485q21.54,18.48,44.62,27.09,4.21,1.73,8.23,3.35,6.62,2.68,12.83,5.18,10,4.11,18.58,8.13a266.5,266.5,0,0,1,28.53,15q11.49,6.6,22.88,19l1.06,1.25c.57.63,1.11,1.27,1.63,1.91l2.29,3.64a22.93,22.93,0,0,1,2.68,5c.45,1,.93,1.91,1.44,2.87a76.52,76.52,0,0,1,4.79,19c.25,1.79.48,3.57.67,5.36s.16,3.61.29,5.46q.18,4.31.09,8.81-.09,1.33-.09,2.58a121.22,121.22,0,0,1-2.21,19.82q-6.33-1.1-13-2.49t-13-3v8.35q5.79,1.4,11.93,2.69t12.2,2.36a118.36,118.36,0,0,1-7.4,19.6,115.43,115.43,0,0,1-10,17c-2,2.84-3.91,5.17-5.38,6.91a87.68,87.68,0,0,0,2.82,13.3c.46,1.58,1,3.09,1.47,4.54a134.37,134.37,0,0,0,14-14.89,137.19,137.19,0,0,0,23.94-45q37,2.1,51.89-37.44A4.06,4.06,0,0,0,701.87,607.39Z"
      /></g></g></svg>

     