<svg id="Navbar" xmlns="http://www.w3.org/2000/svg" xmlns:xlink="http://www.w3.org/1999/xlink" viewBox="0 0 1080 300"><defs><style>.cls-1{fill:#fff;}.cls-2{fill:url(#New_Gradient_Swatch_1);}.cls-3{fill:#231f20;}</style><linearGradient id="New_Gradient_Swatch_1" x1="4.35" y1="4.43" x2="293.48" y2="294.55" gradientUnits="userSpaceOnUse"><stop offset="0.14" stop-color="#ffca06"/><stop offset="0.87" stop-color="#f47a20"/></linearGradient></defs><path class="cls-1" d="M390.62,117.7l-9.94,12.86H355.57c-17.35,0-30.13-11-30.13-25.49s12.78-24.52,30.13-24.52h35.05l-9.94,13H355.57c-8.38,0-14.66,5-14.66,12.18s6.21,12,14.66,12Z"/><path class="cls-1" d="M467.62,80.55,438,114v16.52H422.4V114L391.9,80.55h19.88l12,13.91c1.56,1.79,5.75,6.35,6.8,7.85,1-1.42,2.69-3.59,6.28-7.93l11.36-13.83Z"/><path class="cls-1" d="M537.15,116c0,8.29-4.56,14.57-20.33,14.57h-44V100.14h44.26c2.24,0,4.33-.82,4.33-3.37s-2.16-3.21-4.33-3.21H472.86l10.47-13h33.11c12,0,19.66,4.64,19.66,13.83,0,5.91-3.36,9.2-6.8,10.47C533.64,106.12,537.15,110,537.15,116Zm-48.74-5.16v6.87h28.48c3.37,0,4.79-1.19,4.79-3.51,0-2.17-1.42-3.36-4.79-3.36Z"/><path class="cls-1" d="M603,117.7l-9.94,12.86H544.93v-50h57.93l-10,13H560.48v6H600.1l-8.9,11.36H560.48v6.8Z"/><path class="cls-1" d="M679.26,130.56h-20.7l-11.14-13.23H623.65v13.23H608.17V105h43.51c4.79,0,8.52-2.17,8.52-5.61,0-3.89-3.21-5.83-8.52-5.83H608.17l10.1-13h32.14c11.36,0,25.71,3.59,25.71,17.87A15.66,15.66,0,0,1,663,114.27a63.73,63.73,0,0,1,7,6.57Z"/><path class="cls-1" d="M759.78,100.51c12.19,0,18.76,4.56,18.76,13.68,0,10.24-6.2,16.37-21.45,16.37H710.52l9.94-12.86h37.83c3.66,0,5.3-1,5.3-3.66s-1.64-3.59-5.3-3.59H731.08c-12.86,0-18.77-5.75-18.77-14.35,0-9.42,6.28-15.55,21.46-15.55H777.2l-9.94,13H732.57c-3.59,0-5.31.9-5.31,3.44s1.72,3.51,5.31,3.51Z"/><path class="cls-1" d="M826.84,117.78H800.68v12.78h-15.4V105h43.05c4.79,0,7.55-2.32,7.55-5.76s-2.76-5.68-7.55-5.68H785.28l10.24-13h31.39c15.48,0,24.52,7.63,24.52,18.77S842.39,117.78,826.84,117.78Z"/><path class="cls-1" d="M868.63,130.56,878,117.7h12.55c3,0,6.51,0,8.9.15-1.35-1.79-3.44-4.85-5.08-7.25l-9-13.23L861.9,130.56H843.59l32.07-45.22c2.09-2.92,5.16-5.61,10-5.61,4.64,0,7.7,2.47,9.87,5.61l31.25,45.22Z"/><path class="cls-1" d="M988.24,117.7l-9.94,12.86H953.18c-17.34,0-30.12-11-30.12-25.49s12.78-24.52,30.12-24.52h35.06l-9.94,13H953.18c-8.37,0-14.65,5-14.65,12.18s6.21,12,14.65,12Z"/><path class="cls-1" d="M1051.71,117.7l-9.94,12.86H993.63v-50h57.93l-10,13h-32.37v6h39.62l-8.9,11.36h-30.72v6.8Z"/><path class="cls-1" d="M360.5,220.27H327V189.1h15.55v18.32H360.5c8.6,0,14.8-4.79,14.8-12,0-7-6.43-12.18-14.8-12.18H327l9.87-13H360.5c17.49,0,30.12,10.09,30.12,24.52S377.84,220.27,360.5,220.27Z"/><path class="cls-1" d="M414.18,220.27H398.7v-50h15.48Z"/><path class="cls-1" d="M454.69,189h32v31.24H452.38c-17.35,0-30.13-11-30.13-25.49,0-14.65,12.78-24.52,30.13-24.52h35.8l-10,13H452.38c-8.38,0-14.73,5.08-14.73,12.18,0,7.26,6.13,12,14.73,12h18.91v-7.26H445.42Z"/><path class="cls-1" d="M511.29,220.27H495.81v-50h15.48Z"/><path class="cls-1" d="M583.05,170.26l-10,13H555.17v37H539.69v-37H516.22l10-13Z"/><path class="cls-1" d="M593.15,220.27l9.34-12.85h12.56c3,0,6.5,0,8.9.14-1.35-1.79-3.44-4.85-5.09-7.25l-9-13.23-23.47,33.19H568.1l32.07-45.22c2.1-2.92,5.16-5.61,10-5.61,4.64,0,7.7,2.47,9.87,5.61l31.24,45.22Z"/><path class="cls-1" d="M711,207.42l-10,12.85H656.84v-50h15.48v37.16Z"/><circle id="background" class="cls-2" cx="149.37" cy="149.95" r="149.64"/><path class="cls-1" d="M227.39,134.2v64.21c0,16.06-12.72,28.38-30,28.38-17.7,0-29.5-11.89-29.5-28.38V164H213V134.2H136.13v64.21c0,1.43.06,2.83.16,4.23L83,202.58A154,154,0,0,0,80.94,160c-3.5-18.31-7.72-40.45-25.82-52.7a48,48,0,0,0-16.41-7q.18,43.27.35,86.56a73,73,0,0,0,12.51,37.84c4,5.86,8.79,12.63,19.22,18.59,7.88,4.48,22.8,6,26.21,6,16.56.13,40.69.87,71.82.24A69.88,69.88,0,0,0,199,256.17c35.58,0,60.47-24.22,60.47-57.76V153.12Z"/><path class="cls-1" d="M157.34,79.27a40.23,40.23,0,0,0,5.21-22.11l-64.61,1.3a49.77,49.77,0,0,0-30.34,16,49.09,49.09,0,0,0-11.71,25.82l65-.68C122.94,99.62,146.25,98.26,157.34,79.27Z"/><path class="cls-3" d="M120,192a18.64,18.64,0,0,0-1.3,10.57c0,.07,0,.14,0,.21l2.3-.14c0-.12-.07-.29-.11-.49a15.76,15.76,0,0,1,1.45-9.79,17,17,0,0,1,9.08-8,18.45,18.45,0,0,1,4.72-1.2V181a19.77,19.77,0,0,0-5.56,1.26A19.51,19.51,0,0,0,120,192Z"/><path class="cls-3" d="M194.23,180.42a1.09,1.09,0,0,0-.68-.55,1.13,1.13,0,0,0-.85.06,1.08,1.08,0,0,0-.55.65q-3.24,8.86-11.62,8.78a39.1,39.1,0,0,0,.85-5.46c0-.25,0-.49.05-.72.09-.93.13-1.88.13-2.84v-1.77a5.79,5.79,0,0,0,0-.61c0-.41-.06-.81-.07-1.2a28,28,0,0,0-.38-2.86c-.05-.22-.09-.44-.13-.67a5.58,5.58,0,0,0-.29-1.19,5.11,5.11,0,0,1-.13-.53c-.07-.2-.14-.38-.19-.56a7.56,7.56,0,0,0-.34-1.11c-.15-.32-.28-.63-.4-.93a13.65,13.65,0,0,0-1.09-2.2c-.28-.5-.57-1-.85-1.46-.21-.3-.43-.6-.66-.88a4.41,4.41,0,0,1-.29-.4,31.65,31.65,0,0,0-7.91-6.92,64.07,64.07,0,0,0-8.84-4.43c-1.73-.73-3.56-1.44-5.49-2.15l-5.92-2.1a36.22,36.22,0,0,1-11-5.81,13.14,13.14,0,0,1-3.56-4.51,12,12,0,0,1-1.11-5.6,19.71,19.71,0,0,1,1-5.78,21.94,21.94,0,0,1,2.63-5,21.32,21.32,0,0,1,7.37-6.39,20.31,20.31,0,0,1,6.42-2.18,6.78,6.78,0,0,1,1.36-.16l.5,0,.66-.06q6.21,0,9.45,3.83c2.93,3.64,3.64,10.21,2.4,17.53h2.23c1.38-8,.51-14.81-2.91-19q-3.9-4.64-11.17-4.64h-.71a5.12,5.12,0,0,1-.56,0,8.66,8.66,0,0,0-1.54.08,23,23,0,0,0-7.43,1.91,25,25,0,0,0-9,6.81,26.35,26.35,0,0,0-3.51,5.76,23.46,23.46,0,0,0-1.72,7,16.88,16.88,0,0,0,1.06,7.75,18.36,18.36,0,0,0,4.51,6.55A41,41,0,0,0,146.33,154l2.28.93,3.55,1.43q2.76,1.16,5.15,2.26a72.39,72.39,0,0,1,7.91,4.17,27.19,27.19,0,0,1,6.34,5.28l.29.34c.16.18.31.35.45.53l.64,1a6.09,6.09,0,0,1,.74,1.38c.12.26.26.53.4.79a21.21,21.21,0,0,1,1.33,5.26c.07.49.13,1,.18,1.48s0,1,.08,1.52c0,.79,0,1.61,0,2.44,0,.25,0,.48,0,.71a33.67,33.67,0,0,1-.61,5.5c-1.17-.21-2.38-.44-3.61-.69s-2.45-.54-3.61-.83v2.32c1.07.26,2.18.51,3.31.74s2.28.46,3.38.66a33.14,33.14,0,0,1-2.05,5.43,30.9,30.9,0,0,1-2.78,4.7c-.56.79-1.08,1.44-1.49,1.92A23.88,23.88,0,0,0,169,207c.13.44.27.86.41,1.26a36.35,36.35,0,0,0,3.88-4.12,38.1,38.1,0,0,0,6.64-12.47q10.26.58,14.38-10.38A1.14,1.14,0,0,0,194.23,180.42Z"/></svg>