<?xml version="1.0" encoding="utf-8"?>
<!-- Generator: Adobe Illustrator 28.0.0, SVG Export Plug-In . SVG Version: 6.00 Build 0)  -->
<svg version="1.1" id="Navbar" xmlns="http://www.w3.org/2000/svg" xmlns:xlink="http://www.w3.org/1999/xlink" x="0px" y="0px"
	 viewBox="0 0 1080 300" style="enable-background:new 0 0 1080 300;" xml:space="preserve">
<style type="text/css">
	.st0{fill:#FFFFFF;}
	.st1{fill:url(#background_00000026147229535556004150000016099695420084870289_);}
	.st2{fill:#231F20;}
</style>
<path class="st0" d="M390.6,117.7l-9.9,12.9h-25.1c-17.4,0-30.1-11-30.1-25.5s12.8-24.5,30.1-24.5h35l-9.9,13h-25.1
	c-8.4,0-14.7,5-14.7,12.2s6.2,12,14.7,12L390.6,117.7z"/>
<path class="st0" d="M467.6,80.6L438,114v16.5h-15.6V114l-30.5-33.4h19.9l12,13.9c1.6,1.8,5.8,6.3,6.8,7.8c1-1.4,2.7-3.6,6.3-7.9
	l11.4-13.8H467.6z"/>
<path class="st0" d="M537.2,116c0,8.3-4.6,14.6-20.3,14.6h-44v-30.4h44.3c2.2,0,4.3-0.8,4.3-3.4s-2.2-3.2-4.3-3.2h-44.2l10.5-13
	h33.1c12,0,19.7,4.6,19.7,13.8c0,5.9-3.4,9.2-6.8,10.5C533.6,106.1,537.2,110,537.2,116z M488.4,110.8v6.9h28.5
	c3.4,0,4.8-1.2,4.8-3.5c0-2.2-1.4-3.4-4.8-3.4H488.4z"/>
<path class="st0" d="M603,117.7l-9.9,12.9h-48.1v-50h57.9l-10,13h-32.4v6h39.6l-8.9,11.4h-30.7v6.8L603,117.7z"/>
<path class="st0" d="M679.3,130.6h-20.7l-11.1-13.2h-23.8v13.2h-15.5V105h43.5c4.8,0,8.5-2.2,8.5-5.6c0-3.9-3.2-5.8-8.5-5.8h-43.5
	l10.1-13h32.1c11.4,0,25.7,3.6,25.7,17.9c0.2,7.8-5.4,14.6-13.1,15.8c2.5,2,4.8,4.2,7,6.6L679.3,130.6z"/>
<path class="st0" d="M759.8,100.5c12.2,0,18.8,4.6,18.8,13.7c0,10.2-6.2,16.4-21.5,16.4h-46.6l9.9-12.9h37.8c3.7,0,5.3-1,5.3-3.7
	s-1.6-3.6-5.3-3.6h-27.2c-12.9,0-18.8-5.8-18.8-14.3c0-9.4,6.3-15.6,21.5-15.6h43.4l-9.9,13h-34.7c-3.6,0-5.3,0.9-5.3,3.4
	s1.7,3.5,5.3,3.5L759.8,100.5z"/>
<path class="st0" d="M826.8,117.8h-26.2v12.8h-15.4V105h43c4.8,0,7.5-2.3,7.5-5.8s-2.8-5.7-7.5-5.7h-43l10.2-13h31.4
	c15.5,0,24.5,7.6,24.5,18.8S842.4,117.8,826.8,117.8z"/>
<path class="st0" d="M868.6,130.6l9.4-12.9h12.5c3,0,6.5,0,8.9,0.2c-1.3-1.8-3.4-4.8-5.1-7.2l-9-13.2l-23.5,33.2h-18.3l32.1-45.2
	c2.1-2.9,5.2-5.6,10-5.6c4.6,0,7.7,2.5,9.9,5.6l31.2,45.2H868.6z"/>
<path class="st0" d="M988.2,117.7l-9.9,12.9h-25.1c-17.3,0-30.1-11-30.1-25.5s12.8-24.5,30.1-24.5h35.1l-9.9,13h-25.1
	c-8.4,0-14.7,5-14.7,12.2s6.2,12,14.7,12L988.2,117.7z"/>
<path class="st0" d="M1051.7,117.7l-9.9,12.9h-48.1v-50h57.9l-10,13h-32.4v6h39.6l-8.9,11.4h-30.7v6.8L1051.7,117.7z"/>
<path class="st0" d="M360.5,220.3H327v-31.2h15.5v18.3h18c8.6,0,14.8-4.8,14.8-12c0-7-6.4-12.2-14.8-12.2H327l9.9-13h23.6
	c17.5,0,30.1,10.1,30.1,24.5S377.8,220.3,360.5,220.3z"/>
<path class="st0" d="M414.2,220.3h-15.5v-50h15.5L414.2,220.3z"/>
<path class="st0" d="M454.7,189h32v31.2h-34.3c-17.4,0-30.1-11-30.1-25.5c0-14.6,12.8-24.5,30.1-24.5h35.8l-10,13h-25.8
	c-8.4,0-14.7,5.1-14.7,12.2c0,7.3,6.1,12,14.7,12h18.9v-7.3h-25.9L454.7,189z"/>
<path class="st0" d="M511.3,220.3h-15.5v-50h15.5V220.3z"/>
<path class="st0" d="M583,170.3l-10,13h-17.9v37h-15.5v-37h-23.5l10-13H583z"/>
<path class="st0" d="M593.2,220.3l9.3-12.9h12.6c3,0,6.5,0,8.9,0.1c-1.3-1.8-3.4-4.9-5.1-7.2l-9-13.2l-23.5,33.2h-18.3l32.1-45.2
	c2.1-2.9,5.2-5.6,10-5.6c4.6,0,7.7,2.5,9.9,5.6l31.2,45.2H593.2z"/>
<path class="st0" d="M711,207.4l-10,12.9h-44.2v-50h15.5v37.2L711,207.4z"/>
<linearGradient id="background_00000073696402058635551870000012764060242285980067_" gradientUnits="userSpaceOnUse" x1="4.3483" y1="296.5683" x2="293.4783" y2="6.4483" gradientTransform="matrix(1 0 0 -1 0 301)">
	<stop  offset="0.14" style="stop-color:#FFCA06"/>
	<stop  offset="0.87" style="stop-color:#F47A20"/>
</linearGradient>
<circle id="background" style="fill:url(#background_00000073696402058635551870000012764060242285980067_);" cx="149.4" cy="149.9" r="149.6"/>
<path class="st0" d="M227.4,134.2v64.2c0,16.1-12.7,28.4-30,28.4c-17.7,0-29.5-11.9-29.5-28.4V164H213v-29.8h-76.9v64.2
	c0,1.4,0.1,2.8,0.2,4.2L83,202.6c1.3-14.2,0.6-28.6-2.1-42.6c-3.5-18.3-7.7-40.4-25.8-52.7c-5-3.3-10.6-5.7-16.4-7
	c0.1,28.8,0.2,57.7,0.3,86.6c0.6,13.5,4.9,26.6,12.5,37.8c4,5.9,8.8,12.6,19.2,18.6c7.9,4.5,22.8,6,26.2,6
	c16.6,0.1,40.7,0.9,71.8,0.2c9.4,4.4,19.8,6.7,30.2,6.6c35.6,0,60.5-24.2,60.5-57.8v-45.3L227.4,134.2z"/>
<path class="st0" d="M157.3,79.3c3.8-6.7,5.6-14.4,5.2-22.1l-64.6,1.3c-11.7,1.6-22.4,7.2-30.3,16c-6.4,7.3-10.4,16.2-11.7,25.8
	l65-0.7C122.9,99.6,146.2,98.3,157.3,79.3z"/>
<path class="st2" d="M120,192c-1.5,3.3-1.9,7-1.3,10.6c0,0.1,0,0.1,0,0.2l2.3-0.1c0-0.1-0.1-0.3-0.1-0.5c-0.6-3.3-0.1-6.8,1.4-9.8
	c1.9-3.7,5.2-6.5,9.1-8c1.5-0.6,3.1-1,4.7-1.2V181c-1.9,0.1-3.8,0.6-5.6,1.3C125.9,184,122.2,187.5,120,192z"/>
<path class="st2" d="M194.2,180.4c-0.1-0.3-0.4-0.5-0.7-0.6c-0.3-0.1-0.6-0.1-0.9,0.1c-0.3,0.1-0.5,0.4-0.6,0.6
	c-2.2,5.9-6,8.8-11.6,8.8c0.4-1.8,0.7-3.6,0.9-5.5c0-0.2,0-0.5,0.1-0.7c0.1-0.9,0.1-1.9,0.1-2.8v-1.8c0-0.2,0-0.4,0-0.6
	c0-0.4-0.1-0.8-0.1-1.2c-0.1-1-0.2-1.9-0.4-2.9c-0.1-0.2-0.1-0.4-0.1-0.7c-0.1-0.4-0.1-0.8-0.3-1.2c-0.1-0.2-0.1-0.4-0.1-0.5
	c-0.1-0.2-0.1-0.4-0.2-0.6c-0.1-0.4-0.2-0.7-0.3-1.1c-0.1-0.3-0.3-0.6-0.4-0.9c-0.3-0.8-0.7-1.5-1.1-2.2c-0.3-0.5-0.6-1-0.9-1.5
	c-0.2-0.3-0.4-0.6-0.7-0.9c-0.1-0.1-0.2-0.3-0.3-0.4c-2.2-2.7-4.9-5.1-7.9-6.9c-2.8-1.7-5.8-3.2-8.8-4.4c-1.7-0.7-3.6-1.4-5.5-2.1
	l-5.9-2.1c-4-1.3-7.7-3.3-11-5.8c-1.5-1.2-2.7-2.8-3.6-4.5c-0.8-1.8-1.2-3.7-1.1-5.6c0-2,0.4-3.9,1-5.8c0.7-1.8,1.5-3.5,2.6-5
	c1.9-2.7,4.5-4.9,7.4-6.4c2-1.1,4.2-1.8,6.4-2.2c0.4-0.1,0.9-0.2,1.4-0.2h0.5l0.7-0.1c4.1,0,7.3,1.3,9.4,3.8
	c2.9,3.6,3.6,10.2,2.4,17.5h2.2c1.4-8,0.5-14.8-2.9-19c-2.6-3.1-6.3-4.6-11.2-4.6h-0.7c-0.2,0-0.4,0-0.6,0c-0.5,0-1,0-1.5,0.1
	c-2.6,0.2-5.1,0.9-7.4,1.9c-3.5,1.6-6.6,3.9-9,6.8c-1.4,1.8-2.6,3.7-3.5,5.8c-0.9,2.2-1.5,4.6-1.7,7c-0.3,2.6,0.1,5.3,1.1,7.8
	c1,2.5,2.5,4.7,4.5,6.6c3.6,3.2,7.8,5.8,12.4,7.5l2.3,0.9l3.6,1.4c1.8,0.8,3.6,1.5,5.1,2.3c2.7,1.2,5.4,2.6,7.9,4.2
	c2.4,1.4,4.5,3.2,6.3,5.3l0.3,0.3c0.2,0.2,0.3,0.4,0.4,0.5l0.6,1c0.3,0.4,0.6,0.9,0.7,1.4c0.1,0.3,0.3,0.5,0.4,0.8
	c0.7,1.7,1.1,3.5,1.3,5.3c0.1,0.5,0.1,1,0.2,1.5s0,1,0.1,1.5c0,0.8,0,1.6,0,2.4c0,0.2,0,0.5,0,0.7c-0.1,1.8-0.3,3.7-0.6,5.5
	c-1.2-0.2-2.4-0.4-3.6-0.7s-2.4-0.5-3.6-0.8v2.3c1.1,0.3,2.2,0.5,3.3,0.7s2.3,0.5,3.4,0.7c-0.5,1.9-1.2,3.7-2.1,5.4
	c-0.8,1.6-1.7,3.2-2.8,4.7c-0.6,0.8-1.1,1.4-1.5,1.9c0.2,1.3,0.4,2.5,0.8,3.7c0.1,0.4,0.3,0.9,0.4,1.3c1.4-1.3,2.7-2.6,3.9-4.1
	c3-3.7,5.2-7.9,6.6-12.5c6.8,0.4,11.6-3.1,14.4-10.4C194.4,181,194.4,180.7,194.2,180.4z"/>
</svg>
