<?xml version="1.0" encoding="UTF-8"?>
<svg id="Layer_1" xmlns="http://www.w3.org/2000/svg" xmlns:xlink="http://www.w3.org/1999/xlink" version="1.1" viewBox="0 0 300 300">
  <!-- Generator: Adobe Illustrator 29.1.0, SVG Export Plug-In . SVG Version: 2.1.0 Build 142)  -->
  <defs>
    <style>
      .st0 {
        fill: url(#linear-gradient1);
      }

      .st1 {
        fill: url(#linear-gradient);
      }

      .st2 {
        fill: #262424;
      }
    </style>
    <linearGradient id="linear-gradient" x1="0" y1="179.33" x2="300" y2="179.33" gradientUnits="userSpaceOnUse">
      <stop offset=".14" stop-color="#f9cd31"/>
      <stop offset=".87" stop-color="#f9872b"/>
    </linearGradient>
    <linearGradient id="linear-gradient1" x1="23.35" y1="44.1" x2="168.35" y2="44.1" xlink:href="#linear-gradient"/>
  </defs>
  <g>
    <path class="st1" d="M256.41,119.47v87.26c0,21.82-17.29,38.57-40.84,38.57s-40.08-16.17-40.08-38.57v-46.75h61.38v-40.51h-104.47v87.26c0,1.94.07,3.85.21,5.74-24.13-.02-48.27-.05-72.4-.07,2.15-24.36-.21-44.23-2.81-57.86-4.75-24.89-10.5-54.97-35.1-71.62-8.28-5.6-16.48-8.18-22.29-9.49.16,39.21.32,78.42.47,117.63.51,10.6,3.09,31.26,16.99,51.42,5.5,7.97,11.94,17.18,26.13,25.26,10.7,6.1,30.98,8.18,35.61,8.21,22.51.18,55.3,1.18,97.61.33,12.05,5.75,25.96,8.95,41.01,8.95,48.35,0,82.17-32.92,82.17-78.5v-61.55l-43.59-25.71Z"/>
    <path class="st0" d="M161.21,44.82c7-11.99,7.37-23.93,7.08-30.05-29.26.59-58.53,1.18-87.79,1.77-5.44.73-25.6,4.07-41.24,21.8-12.22,13.84-15.09,28.98-15.91,35.09,59.1-.62,37.78-.39,88.37-.92,2.74-.03,34.41-1.88,49.49-27.69Z"/>
  </g>
  <g>
    <path class="st2" d="M110.4,197.99c-1.93,4.17-2.51,8.96-1.76,14.36.02.09.04.19.06.28,1.04-.06,2.08-.13,3.12-.19-.04-.16-.09-.39-.15-.67-1.3-6.5,1.36-12.1,1.97-13.31,3.6-7.17,10.16-9.93,12.35-10.82,2.53-1.02,4.8-1.44,6.41-1.63v-2.93c-1.85.14-4.55.54-7.57,1.71-2.02.78-10.28,4.22-14.42,13.18Z"/>
    <path class="st2" d="M211.35,182.28c-.18-.36-.49-.61-.92-.76-.41-.12-.79-.09-1.15.09-.36.18-.61.47-.76.88-2.93,8.03-8.2,12.01-15.79,11.94.58-2.5.96-4.98,1.15-7.43.02-.34.05-.66.07-.97.12-1.27.18-2.56.18-3.86v-2.42c0-.29-.01-.56-.04-.83-.05-.55-.08-1.09-.11-1.62-.1-1.3-.26-2.6-.5-3.89-.07-.29-.13-.59-.18-.9-.07-.55-.2-1.09-.4-1.62-.07-.24-.13-.48-.18-.72-.1-.26-.18-.52-.25-.76-.12-.53-.28-1.03-.47-1.51-.19-.43-.37-.85-.54-1.26-.41-1.06-.9-2.06-1.48-2.99-.38-.67-.77-1.33-1.15-1.98-.29-.41-.59-.81-.9-1.19-.14-.19-.28-.37-.4-.54-3.8-4.37-7.38-7.51-10.74-9.41-3.22-1.99-7.22-4-12.01-6.02-2.36-.99-4.84-1.96-7.46-2.92-2.6-.91-5.28-1.86-8.04-2.85-5.53-1.83-10.51-4.46-14.93-7.9-2.12-1.75-3.73-3.8-4.83-6.13-1.11-2.36-1.61-4.89-1.51-7.61.07-2.72.53-5.34,1.37-7.86.94-2.48,2.13-4.74,3.57-6.78,3.08-4.01,6.42-6.91,10.02-8.69,3.53-1.73,6.44-2.72,8.73-2.96.72-.14,1.33-.22,1.84-.22.26-.02.49-.05.69-.07l.9-.07c5.63,0,9.9,1.73,12.84,5.19,3.99,4.95,4.95,13.88,3.27,23.83h3.02c1.87-10.89.69-20.13-3.94-25.77-3.53-4.21-8.59-6.31-15.18-6.31h-.97c-.24.02-.49.04-.76.04-.58-.02-1.27.01-2.09.11-2.57.07-5.94.94-10.1,2.6-4.21,1.73-8.28,4.82-12.22,9.27-1.85,2.28-3.44,4.89-4.76,7.82-1.25,2.96-2.03,6.14-2.34,9.56-.36,3.49.12,7,1.44,10.53,1.44,3.49,3.49,6.45,6.13,8.91,5.41,4.64,11.01,8.04,16.8,10.2,1.06.43,2.09.85,3.1,1.26,1.66.67,3.27,1.32,4.83,1.95,2.5,1.03,4.83,2.06,7,3.06,4.4,2.04,7.98,3.93,10.74,5.66,2.88,1.66,5.76,4.05,8.62,7.18.12.14.25.3.4.47.22.24.42.48.61.72.29.46.58.91.87,1.37.41.58.75,1.2,1.01,1.87.17.36.35.72.54,1.08.87,2.14,1.47,4.52,1.8,7.14.1.67.18,1.35.25,2.02.02.67.06,1.36.11,2.06.05,1.08.06,2.19.04,3.32-.02.34-.04.66-.04.97-.07,2.52-.35,5.01-.83,7.46-1.59-.28-3.23-.59-4.91-.94-1.69-.35-3.32-.73-4.9-1.12,0,1.05,0,2.1,0,3.15,1.45.35,2.95.69,4.49,1.01,1.57.33,3.1.62,4.59.89-.72,2.56-1.65,5.02-2.78,7.38-1.55,3.22-3.13,5.49-3.78,6.39-.77,1.07-1.48,1.95-2.03,2.6.2,1.54.54,3.22,1.06,5.01.17.59.36,1.16.55,1.71,1.72-1.57,3.52-3.42,5.28-5.61,4.93-6.11,7.56-12.31,9.01-16.95,9.3.53,15.82-4.17,19.54-14.1.12-.41.09-.79-.09-1.15Z"/>
  </g>
</svg>