<?xml version="1.0" encoding="utf-8"?>
<!-- Generator: Adobe Illustrator 26.3.1, SVG Export Plug-In . SVG Version: 6.00 Build 0)  -->
<svg version="1.1" id="Layer_3" xmlns="http://www.w3.org/2000/svg" xmlns:xlink="http://www.w3.org/1999/xlink" x="0px" y="0px"
	 viewBox="0 0 879.1 631.5" style="enable-background:new 0 0 879.1 631.5;" xml:space="preserve">
<style type="text/css">
	.st0{fill:#F2F2F2;}
	.st1{fill:#F9A826;}
	.st2{fill:#3F3D56;}
	.st3{fill:#FFFFFF;}
	.st4{opacity:0.3;fill:#F9A826;enable-background:new    ;}
	.st5{fill:#FFB9B9;}
	.st6{fill:#2F2E41;}
	.st7{fill:#575A89;}
	.st8{opacity:0.1;enable-background:new    ;}
</style>
<ellipse class="st0" cx="439.5" cy="544.7" rx="438.5" ry="25.2"/>
<rect x="140.7" y="65.2" class="st0" width="658.8" height="21"/>
<circle class="st1" cx="158.3" cy="75.4" r="5.4"/>
<circle class="st1" cx="175.9" cy="75.4" r="5.4"/>
<circle class="st1" cx="193.5" cy="75.4" r="5.4"/>
<polygon class="st2" points="141.1,396.7 140.7,397.1 140.7,538.4 799.4,538.4 799.4,290.1 791.6,290.7 "/>
<rect x="188.2" y="205.4" class="st2" width="184" height="7.4"/>
<rect x="188.2" y="221.7" class="st2" width="184" height="7.4"/>
<rect x="188.2" y="238" class="st2" width="62.3" height="7.4"/>
<rect x="563.3" y="411.3" class="st3" width="184" height="7.4"/>
<rect x="563.3" y="427.6" class="st3" width="184" height="7.4"/>
<rect x="563.3" y="444" class="st3" width="62.3" height="7.4"/>
<circle class="st0" cx="449" cy="524.4" r="7.2"/>
<circle class="st0" cx="470" cy="525.1" r="7.2"/>
<circle class="st0" cx="491" cy="525.8" r="7.2"/>
<circle class="st2" cx="470.1" cy="525.1" r="5.8"/>
<rect x="248.9" y="290.3" class="st2" width="62.3" height="14.2"/>
<rect x="619.2" y="482.7" class="st3" width="62.3" height="14.2"/>
<circle class="st4" cx="280.4" cy="297.5" r="43.1"/>
<circle class="st4" cx="280.4" cy="297.5" r="28.7"/>
<circle class="st1" cx="280.4" cy="297.5" r="20"/>
<circle class="st4" cx="643" cy="190.7" r="43.1"/>
<circle class="st4" cx="643" cy="190.7" r="28.7"/>
<circle class="st1" cx="643" cy="190.7" r="20"/>
<circle class="st4" cx="650.7" cy="489.8" r="43.1"/>
<circle class="st4" cx="650.7" cy="489.8" r="28.7"/>
<circle class="st1" cx="650.7" cy="489.8" r="20"/>
<rect x="70.7" y="132.6" transform="matrix(3.874888e-02 -0.9992 0.9992 3.874888e-02 -62.4182 217.9743)" class="st1" width="22.8" height="17.8"/>
<path class="st5" d="M153.7,209.6c0,0,24.6-11.7,24.2-1.6s-24.8,16.8-24.8,16.8L153.7,209.6z"/>
<path class="st6" d="M140.2,295.3c0,0,11.6,28.4,15.9,48.8c4.3,20.5,10.8,48.6,2.4,68.6c-8.4,20-32.2,78.7-32.5,85
	c-0.2,6.3,2,12.8-3,12.6c-5.1-0.2-32.7-8.9-33.8-12.7c-1.1-3.9,9.4-13.6,9.4-13.6l26-81.5l-27.1-53.1l-19.6,79.2l-3.8,98.8
	c0,0-18.8-5.8-21.5-0.8c0,0-8.4-11.7-9.5-16.9c-1.1-5.1,4-102.6,4-102.6s-17.3-111.1-3.3-110.5C57.6,297.2,112.2,263.8,140.2,295.3z
	"/>
<path class="st6" d="M123.2,505.3c0,0,12.9,28.4,14.1,29.7c1.2,1.3,9.6,14.3,3.3,14.1c-6.3-0.2-21.3-7.2-32.3-17.8
	c-11-10.6-25.5-28.9-24.2-30.1c1.3-1.2,10.3-4.7,10.3-4.7L123.2,505.3z"/>
<path class="st6" d="M71.8,521.1c0,0,0.8,12.7,3.1,17.9c2.3,5.2,2,12.8-4.3,12.5c-6.3-0.2-22.7-3.4-22.7-3.4s-1-7.7,0.3-8.9
	c1.3-1.2,6.9-15,4.5-18.9C50.4,516.5,71.8,521.1,71.8,521.1z"/>
<path class="st5" d="M62.4,108.3c0,0-13.5,21.1-18.8,25.9c-5.3,4.9,9.5,15.6,9.5,15.6l26.5,3.6c0,0-0.3-24.1,1-26.6
	C82.1,124.3,62.4,108.3,62.4,108.3z"/>
<path class="st1" d="M85.5,135.9c0,0-5.5,9.9-10.5,9.7c-5.1-0.2-31.3-11.4-32.4-15.2c-1.1-3.9-8.7,27.6-8.7,27.6L98,270.9l15.6-10.8
	l-7.6-66.3L99.8,158L85.5,135.9z"/>
<path class="st7" d="M40.2,236.9c2.6,5.4,4.2,10.9,3.9,16.7c0,0.3,0,0.5,0,0.8c-0.6,11.7-4.9,25.3-6.5,35.2
	c-1.1,7.1-0.8,12.2,3.3,13.5c10,2.9-1.5,5,37.4,17.9c38.8,12.9,45.6,1.8,45.7-0.8c0.1-2.5-5.5-21.8-4.2-23
	c1.3-1.2,18.4,15.9,23.6,13.6c5.2-2.3,0.6-15.2,0.6-15.2s-11.6-27.1-11.4-33.4c0.2-6.3-17.6-36.2-17.6-36.2l-12.2-79.2
	c0,0-4.7-10.3-11-11.8s-11.5,2.1-11.5,2.1l10.5,23.3l11.1,41l-1.9,15.2c0,0-12.9-27.2-21.4-37.6s-26.6-35.3-26.6-35.3
	s-4.2-14.2-1-18.5c3.2-4.3-13.3-4.9-20.3,12.6c-3.7,9.3-9.8,23.1-13.6,36c-3.4,11.4-5,22.1-1.6,28.2C20.8,211,33.6,223.2,40.2,236.9
	z"/>
<path class="st8" d="M15.7,201.7c5.1,9.3,18,21.5,24.5,35.2c1.7-6.2,3.8-12.5,3.8-12.5s8-42.8-15.7-53.9c-3.9-0.4-7.8,0.7-11,3.1
	C13.9,184.9,12.3,195.6,15.7,201.7z"/>
<path class="st7" d="M109.7,199l20.1,5.9l27.9,1.1l2.9,24.2l-45.8,3.3C114.7,233.4,103.2,201.3,109.7,199z"/>
<path class="st5" d="M76.9,280.4c0,0,26.9,4.5,20.7,12.5c-6.1,8.1-29.9-0.4-29.9-0.4L76.9,280.4z"/>
<path class="st8" d="M44.1,254.3c-0.6,11.7-4.9,25.3-6.5,35.2c8.6,8.1,16.7,15.2,19.8,15.4c6.3,0.2,16.5-0.6,20.3,0.8s6-22.6,6-22.6
	s-2.2-7.7-12.2-11.9C64.6,268.3,51.7,260.6,44.1,254.3z"/>
<path class="st7" d="M28.6,162.8c0,0-21.4-3.4-20.3,32.2s-2.3,58.3,6.4,65s36.6,37,43,37.2c6.3,0.2,16.5-0.6,20.3,0.8
	c3.8,1.4,6-22.6,6-22.6s-2.2-7.7-12.2-11.9s-33.5-19.1-33.3-24.1s6-22.6,6-22.6S52.3,173.9,28.6,162.8z"/>
<circle class="st5" cx="81.3" cy="111.6" r="27.9"/>
<path class="st6" d="M100.1,71.6c0.7,0.6,1.5,1,2.3,1.2c0.9,0.2,1.8-0.4,1.9-1.3c0.6,1.3,1.4,2.7,2.7,3.4c1.3,0.7,3.3,0.1,3.5-1.3
	c0.2,1.1,0.7,2.1,1.4,3c0.8,0.8,2.3,1,3,0.1c-0.6,3.1-0.2,6.3-0.4,9.5c-0.2,3.2-1,6.5-3.4,8.6c-3.5,3-8.7,2.3-13.3,1.7
	c-0.7-0.1-1.4-0.1-2.1,0.1c-1.7,0.7-1.6,3.1-1.7,5c-0.3,6.8-5.4,12.3-12.1,13.2c-1.8,0.3-3.7-0.2-5.2-1.3c-1.3-1.1-2-2.9-3.5-3.7
	c-2.4-1.3-5.4,0.6-7.1,2.8c-1.8,2.1-3.5,4.8-6.3,5.2c-3.6,0.5-6.4-3.2-7.8-6.6c-3.8-9.7-3.5-20.4,0.8-29.9
	C60.5,64.5,86.4,61.9,100.1,71.6z"/>
<path class="st0" d="M769.8,515.2c9.8,16.8,29.6,23.4,29.6,23.4s3.9-20.5-5.9-37.3c-9.8-16.8-29.6-23.4-29.6-23.4
	S760,498.4,769.8,515.2z"/>
<path class="st1" d="M776,509.3c17,9.4,24.1,29.1,24.1,29.1s-20.4,4.4-37.4-5c-17-9.4-24.1-29.1-24.1-29.1S759,499.9,776,509.3z"/>
</svg>
